<svg width="14" height="14" viewBox="0 0 14 14" fill="none" xmlns="http://www.w3.org/2000/svg">
<path d="M10.9578 14V9.07759C10.9578 8.85149 11.0499 8.64629 11.1984 8.49777C11.3468 8.34931 11.552 8.25721 11.7782 8.25721H13.5284V6.80815H13.5271C13.527 6.66917 13.456 6.53376 13.3281 6.45724C12.5753 6.00647 12.2021 5.0658 12.2021 4.15558C12.2021 3.37513 12.5012 2.71281 12.9491 2.19091C13.3421 1.73298 13.1212 1.02149 12.5386 0.865779L9.34983 0.0135415L9.34975 0.0138697C9.16915 -0.0345601 8.97273 0.0462473 8.88196 0.218636C8.31079 1.30315 6.93975 1.68487 5.8945 1.05665C5.5704 0.861869 5.30249 0.583268 5.12001 0.250795C5.03923 0.0706673 4.83752 -0.0294737 4.64063 0.02314L1.48778 0.865779C0.905202 1.02146 0.684329 1.73298 1.07732 2.19091C2.10553 3.38908 2.12174 5.57747 0.709952 6.45593C0.576148 6.52347 0.484375 6.66217 0.484375 6.82231V8.25724H2.23452C2.4607 8.25724 2.66584 8.34934 2.81431 8.4978C2.96279 8.64632 3.0549 8.85152 3.0549 9.07762V14H10.9578V14ZM4.28642 8.25732H9.72728C9.95382 8.25732 10.1375 8.44097 10.1375 8.66751C10.1375 8.89404 9.95382 9.0777 9.72728 9.0777H4.28642C4.05989 9.0777 3.87623 8.89404 3.87623 8.66751C3.87623 8.44095 4.05989 8.25732 4.28642 8.25732ZM4.28642 9.89808H9.72728C9.95382 9.89808 10.1375 10.0817 10.1375 10.3083C10.1375 10.5348 9.95382 10.7185 9.72728 10.7185H4.28642C4.05989 10.7185 3.87623 10.5348 3.87623 10.3083C3.87623 10.0817 4.05989 9.89808 4.28642 9.89808ZM4.28642 11.5388H9.72728C9.95382 11.5388 10.1375 11.7225 10.1375 11.949C10.1375 12.1756 9.95382 12.3592 9.72728 12.3592H4.28642C4.05989 12.3592 3.87623 12.1756 3.87623 11.949C3.87623 11.7225 4.05989 11.5388 4.28642 11.5388Z" fill="white"/>
<path d="M2.22866 9.078C2.22875 9.07798 2.2288 9.07795 2.22866 9.07795L2.22855 9.07803L2.22842 9.07817C2.22847 9.07822 2.22853 9.07811 2.22853 9.07803L2.22858 9.07798C2.22864 9.07784 2.22861 9.07787 2.22858 9.07795H0.478516V13.5902C0.478516 13.8167 0.662172 14.0004 0.888707 14.0004H2.22866V9.078Z" fill="white"/>
<path d="M11.7716 9.07818L11.7717 9.07834C11.7717 9.0784 11.7716 9.07832 11.7716 9.07818L11.7715 9.07815C11.7715 9.07815 11.7715 9.07818 11.7715 9.07818V14.0006H13.1115C13.3381 14.0006 13.5217 13.817 13.5217 13.5904V9.07812H11.7716V9.07818Z" fill="white"/>
</svg>
