<svg id="Capa_1" enable-background="new 0 0 512 512" height="512" viewBox="0 0 512 512" width="512" xmlns="http://www.w3.org/2000/svg"><g><g><path d="m79.623 246.525h352.753v185.706h-352.753z" fill="#407093"/></g><g><path d="m384.758 246.525v75.877c0 36.034-29.211 65.246-65.246 65.246h-239.889v44.583h352.753v-185.706z" fill="#2b4d66"/></g><g><path d="m61.71 113.883 192.103-83.31c2.563-1.111 5.471-1.111 8.034 0l192.103 83.31z" fill="#f9f6f9"/></g><g><path d="m159.77 113.883 96.051-41.655c1.281-.556 2.736-.556 4.017 0l96.051 41.655z" fill="#d0cee7"/></g><g><path d="m259.838 72.229c-1.281-.556-2.736-.556-4.017 0l-18.579 8.057 77.473 33.598h41.175z" fill="#beb9dd"/></g><g><path d="m261.847 30.574c-2.563-1.111-5.471-1.111-8.034 0l-17.048 7.393 175.055 75.916h42.13z" fill="#dddaec"/></g><g><path d="m35.875 270.784h64.305v153.496h-64.305z" fill="#f9f6f9"/></g><g><path d="m78.094 270.783v91.688c0 15.841-12.842 28.683-28.683 28.683h-13.536v33.125h64.305v-153.496z" fill="#d0cee7"/></g><g><path d="m486.382 182.262 14.896-17.912c6.929-8.331 10.722-18.825 10.722-29.661v-27.806c0-2.23-1.808-4.038-4.038-4.038h-503.924c-2.23 0-4.038 1.808-4.038 4.038v29.313c0 10.836 3.793 21.33 10.722 29.661l14.771 17.762c1.867 2.245 1.867 5.502 0 7.747l-14.771 17.762c-6.929 8.33-10.722 18.824-10.722 29.66v27.957c0 2.23 1.808 4.038 4.038 4.038h503.923c2.23 0 4.038-1.808 4.038-4.038v-29.162c0-10.836-3.793-21.33-10.722-29.661l-14.896-17.912c-1.866-2.246-1.866-5.503.001-7.748z" fill="#dd636e"/></g><g><path d="m67.429 376.253c-4.182 0-7.572-3.39-7.572-7.572v-32.734c0-4.182 3.39-7.572 7.572-7.572s7.572 3.39 7.572 7.572v32.734c0 4.182-3.389 7.572-7.572 7.572z" fill="#dddaec"/></g><g><path d="m289.982 424.28h-64.305l6.104-16.624-6.104-16.501v-120.371h64.305z" fill="#f9f6f9"/></g><g><path d="m267.896 270.783v91.688c0 15.841-12.842 28.683-28.683 28.683h-13.536v33.125h64.305v-153.496z" fill="#d0cee7"/></g><g><path d="m257.23 376.253c-4.182 0-7.572-3.39-7.572-7.572v-32.734c0-4.182 3.39-7.572 7.572-7.572s7.572 3.39 7.572 7.572v32.734c.001 4.182-3.389 7.572-7.572 7.572z" fill="#dddaec"/></g><g><path d="m476.125 424.28h-64.306l6.431-18.582-6.431-14.543v-120.371h64.306z" fill="#f9f6f9"/></g><g><path d="m454.039 270.783v91.688c0 15.841-12.842 28.683-28.683 28.683h-13.536v33.125h64.305v-153.496z" fill="#d0cee7"/></g><g><path d="m443.373 376.253c-4.182 0-7.572-3.39-7.572-7.572v-32.734c0-4.182 3.39-7.572 7.572-7.572s7.572 3.39 7.572 7.572v32.734c0 4.182-3.39 7.572-7.572 7.572z" fill="#dddaec"/></g><g><path d="m501.278 164.35c6.929-8.331 10.722-18.825 10.722-29.661v-27.806c0-2.23-1.808-4.038-4.038-4.038h-39.771v31.845c0 10.836-3.793 21.33-10.722 29.661l-14.897 17.913c-1.867 2.245-1.867 5.502 0 7.747l14.896 17.912c4.056 4.878 7.031 10.499 8.805 16.494.377 1.276-.586 2.559-1.917 2.559h-462.824c-1.008 3.828-1.532 7.796-1.532 11.812v27.957c0 2.23 1.808 4.038 4.038 4.038h503.923c2.23 0 4.038-1.808 4.038-4.038v-29.162c0-10.836-3.793-21.33-10.722-29.661l-14.896-17.912c-1.867-2.245-1.867-5.502 0-7.747z" fill="#da4a54"/></g><g fill="#f9ead2"><path d="m206.341 140.263c-.026-.07-.053-.138-.081-.207-1.495-3.633-4.997-5.979-8.925-5.979-.003 0-.006 0-.009 0-3.931.003-7.433 2.357-8.923 5.996-.024.057-.046.115-.068.173l-34.427 90.394c-1.489 3.908.473 8.283 4.381 9.771 3.806 1.48 8.286-.434 9.771-4.381l6.717-17.636h44.863l6.647 17.614c1.476 3.913 5.846 5.889 9.758 4.411 3.912-1.477 5.887-5.846 4.41-9.758zm-25.796 62.986 16.766-44.022 16.614 44.022z"/><path d="m340.169 132.721c-.026 0-.05 0-.075 0-4.182.04-7.54 3.463-7.499 7.645l.664 68.564-50.252-72.769c-1.883-2.727-5.317-3.911-8.485-2.926-3.163.986-5.318 3.915-5.318 7.229v91.514c0 4.182 3.39 7.572 7.572 7.572s7.572-3.39 7.572-7.572v-67.224l48.076 69.616c2.381 3.437 6.286 4.915 9.955 3.77 3.777-1.18 6.217-4.812 6.217-9.326l-.857-88.596c-.041-4.155-3.423-7.497-7.57-7.497z"/><path d="m450.051 226.529-43.853-42.309 40.465-37.195c3.079-2.83 3.281-7.62.451-10.7-2.83-3.079-7.62-3.28-10.699-.451l-36.624 33.664v-29.246c0-4.182-3.39-7.572-7.572-7.572s-7.572 3.39-7.572 7.572v91.685c0 4.182 3.39 7.572 7.572 7.572s7.572-3.39 7.572-7.572v-32.896l39.746 38.345c3.006 2.902 7.8 2.82 10.706-.192 2.904-3.007 2.818-7.801-.192-10.705z"/><path d="m119.344 179.926c4.251-5.002 6.823-11.472 6.823-18.536 0-15.808-12.861-28.669-28.668-28.669h-26.633c-4.182 0-7.572 3.39-7.572 7.572v91.685c0 2.014.803 3.945 2.229 5.366 1.42 1.413 3.34 2.206 5.343 2.206h.033c.246-.001 24.584-.109 31.25-.109 17.784 0 32.251-14.468 32.251-32.251.001-11.464-6.018-21.544-15.056-27.264zm-21.845-32.061c7.458 0 13.524 6.067 13.524 13.525s-6.067 13.525-13.524 13.525c-1.973 0-19.06.025-19.06.025v-27.075zm4.65 76.433c-4.304 0-15.902.044-23.711.077v-34.255c2.864-.012 23.711-.036 23.711-.036 9.433 0 17.107 7.674 17.107 17.107.001 9.432-7.674 17.107-17.107 17.107z"/></g><g fill="#f1cb86"><g><path d="m439.537 237.428c3.006 2.902 7.8 2.82 10.706-.192 2.761-2.862 2.813-7.333.225-10.262h-21.767z"/><path d="m392.219 239.551c4.182 0 7.572-3.39 7.572-7.572v-5.004h-15.144v5.004c0 4.181 3.389 7.572 7.572 7.572z"/></g><g><path d="m276.775 239.551c4.182 0 7.572-3.39 7.572-7.572v-5.004h-15.144v5.004c0 4.181 3.39 7.572 7.572 7.572z"/><path d="m332.423 234.371c2.381 3.437 6.286 4.915 9.955 3.77 3.777-1.18 6.217-4.812 6.217-9.326l-.018-1.841h-21.263z"/></g><g><path d="m158.289 240.411c3.806 1.48 8.286-.434 9.771-4.381l3.449-9.056h-16.205l-1.396 3.665c-1.489 3.909.473 8.284 4.381 9.772z"/><path d="m226.287 236.008c1.476 3.913 5.846 5.889 9.758 4.411 3.912-1.477 5.887-5.846 4.41-9.758l-1.391-3.687h-16.186z"/></g><path d="m70.866 239.551h.033c.246-.001 24.584-.109 31.25-.109 10.331 0 19.536-4.888 25.443-12.467h-64.298v5.004c0 2.014.803 3.945 2.229 5.366 1.42 1.413 3.341 2.206 5.343 2.206z"/></g><g><path d="m104.89 259.744h-73.1c-16.358 0-30.185 12.825-30.633 29.176-.465 16.965 13.149 30.864 30.009 30.864 12.673 0 23.506-7.856 27.909-18.962.618-1.56 2.083-2.619 3.761-2.619h10.389c1.672 0 3.136 1.05 3.751 2.605 4.595 11.607 16.212 19.669 29.616 18.929 15.018-.829 27.28-12.962 28.254-27.971 1.133-17.485-12.714-32.022-29.956-32.022z" fill="#d0cee7"/></g><g><g><path d="m107.062 259.831c3.398 5.222 5.223 11.561 4.783 18.349-.974 15.009-13.236 27.142-28.254 27.971-1.307.072-2.591.037-3.859-.054 5.638 8.67 15.61 14.261 26.859 13.64 15.018-.829 27.28-12.962 28.254-27.971 1.086-16.744-11.568-30.774-27.783-31.935z" fill="#beb9dd"/></g></g><g><path d="m294.692 259.744h-73.1c-16.358 0-30.185 12.825-30.633 29.176-.465 16.965 13.149 30.864 30.009 30.864 12.673 0 23.506-7.856 27.909-18.962.618-1.56 2.083-2.619 3.76-2.619h10.389c1.672 0 3.136 1.05 3.751 2.605 4.595 11.607 16.212 19.669 29.616 18.929 15.018-.829 27.28-12.962 28.254-27.971 1.134-17.485-12.713-32.022-29.955-32.022z" fill="#d0cee7"/></g><g><g><path d="m296.864 259.831c3.398 5.222 5.223 11.561 4.783 18.349-.974 15.009-13.236 27.142-28.254 27.971-1.307.072-2.591.037-3.859-.054 5.638 8.67 15.61 14.261 26.859 13.64 15.018-.829 27.28-12.962 28.254-27.971 1.086-16.744-11.568-30.774-27.783-31.935z" fill="#beb9dd"/></g></g><g><path d="m480.834 259.744h-73.1c-16.358 0-30.185 12.825-30.633 29.176-.465 16.965 13.148 30.864 30.009 30.864 12.673 0 23.506-7.856 27.909-18.962.618-1.56 2.083-2.619 3.76-2.619h10.389c1.672 0 3.136 1.05 3.751 2.605 4.595 11.607 16.212 19.669 29.616 18.929 15.018-.829 27.28-12.962 28.254-27.971 1.135-17.485-12.712-32.022-29.955-32.022z" fill="#d0cee7"/></g><g><g><path d="m483.006 259.831c3.398 5.222 5.223 11.561 4.783 18.349-.974 15.009-13.236 27.142-28.254 27.971-1.307.072-2.591.037-3.859-.054 5.638 8.67 15.61 14.261 26.859 13.64 15.018-.829 27.28-12.962 28.254-27.971 1.087-16.744-11.568-30.774-27.783-31.935z" fill="#beb9dd"/></g></g><g><path d="m180.743 422.163h-44.629v-39.941c0-10.717 6.288-19.966 15.375-24.259 3.47-1.639 29.254 9.45 29.254 24.259z" fill="#c6865c"/></g><g><path d="m371.281 422.163h-47.195v-39.941c0-10.717 6.288-19.966 15.375-24.259 3.47-1.639 31.82 9.45 31.82 24.259z" fill="#c6865c"/></g><path d="m162.929 355.408c-4.092 0-7.968.92-11.438 2.559 9.088 4.293 15.377 13.538 15.377 24.255v39.94h22.875v-39.94c0-14.809-12.005-26.814-26.814-26.814z" fill="#b16e3d"/><path d="m350.901 355.408c-4.092 0-7.968.92-11.438 2.559 9.088 4.293 15.377 13.538 15.377 24.255v39.94h22.875v-39.94c.001-14.809-12.005-26.814-26.814-26.814z" fill="#b16e3d"/><g><path d="m489.975 456.083h-467.95v-36.504c0-2.209 1.791-4 4-4h459.951c2.209 0 4 1.791 4 4v36.504z" fill="#f9f6f9"/></g><g><path d="m489.975 456.083h-467.95v-36.504c0-2.209 1.791-4 4-4h459.951c2.209 0 4 1.791 4 4v36.504z" fill="#f9f6f9"/></g><g><path d="m485.937 415.579h-12.999v12.613c0 2.23-1.808 4.038-4.038 4.038h-446.875v23.852h467.951v-36.465c-.001-2.23-1.809-4.038-4.039-4.038z" fill="#dddaec"/></g><g><path d="m506.854 482.26h-501.708c-2.209 0-4-1.791-4-4v-25.303c0-2.209 1.791-4 4-4h501.709c2.209 0 4 1.791 4 4v25.303c-.001 2.209-1.791 4-4.001 4z" fill="#d0cee7"/></g><g><path d="m506.816 448.956h-12.096v13.13c0 2.23-1.808 4.038-4.038 4.038h-489.536v12.096c0 2.23 1.808 4.038 4.038 4.038h501.632c2.23 0 4.038-1.808 4.038-4.038v-25.226c0-2.229-1.808-4.038-4.038-4.038z" fill="#beb9dd"/></g></g></svg>