<svg width="72" height="72" viewBox="0 0 72 72" fill="none" xmlns="http://www.w3.org/2000/svg">
<path d="M36 0C16.1178 0 0 16.1178 0 36C0 55.8822 16.1178 72 36 72C55.8822 72 72 55.8823 72 36C72 16.1177 55.8822 0 36 0ZM42 59.065C42 60.423 40.899 61.524 39.541 61.524H32.7947C31.4368 61.524 30.3358 60.423 30.3358 59.065V31.6921C30.3358 30.3341 31.4366 29.2331 32.7947 29.2331H39.541C40.899 29.2331 42 30.3339 42 31.6921V59.065ZM36 24.5739C32.6287 24.5739 29.8957 21.8409 29.8957 18.4696C29.8957 15.0982 32.6287 12.3652 36 12.3652C39.3713 12.3652 42.1043 15.0982 42.1043 18.4696C42.1043 21.8409 39.3713 24.5739 36 24.5739Z" fill="white"/>
</svg>
