<svg width="14" height="14" viewBox="0 0 14 14" fill="none" xmlns="http://www.w3.org/2000/svg">
<path d="M6.99602 1.84537C3.94444 -0.823664 0.064413 1.52143 0.000788975 4.70058C-0.0154246 5.5108 0.218456 6.30001 0.684002 7.0276H3.70154L4.23825 6.13304C4.3941 5.87332 4.77125 5.86495 4.93593 6.12388L6.06834 7.90336L7.71904 4.41863C7.86299 4.11457 8.29201 4.10492 8.45078 4.39977L9.86577 7.0276H13.308C15.858 3.04228 10.8184 -1.49783 6.99602 1.84537Z" fill="white"/>
<path d="M9.25896 7.63111L8.11236 5.50171L6.49097 8.92462C6.35303 9.21584 5.94731 9.24113 5.77432 8.96924L4.59944 7.12305L4.28466 7.64768C4.21054 7.77121 4.07705 7.84678 3.93299 7.84678H1.33203C1.41356 7.93211 0.979023 7.49845 6.70598 13.1958C6.86593 13.3549 7.1245 13.3549 7.28448 13.1958C12.9233 7.5861 12.5771 7.93195 12.6584 7.84678H9.62006C9.46916 7.84681 9.33049 7.76396 9.25896 7.63111Z" fill="white"/>
</svg>
