<svg viewBox="0 0 54 54" fill="none" xmlns="http://www.w3.org/2000/svg">
<g clip-path="url(#clip0)">
<path d="M7.2915 13.7207C8.7015 12.7352 10.827 12.9242 12.093 13.9697L10.641 11.8592C9.4725 10.1927 9.891 8.38966 11.559 7.21966C13.227 6.05416 17.9535 9.18766 17.9535 9.18766C16.7745 7.50466 16.995 5.37166 18.678 4.19116C20.361 3.01516 22.683 3.42166 23.862 5.10766L39.492 27.1877L37.5 46.5002L20.8755 40.4372L6.375 18.9377C5.1855 17.2442 5.5965 14.9087 7.2915 13.7207Z" fill="#EF9645"/>
<path d="M4.04245 26.0041C4.04245 26.0041 2.34445 23.5291 4.82095 21.8326C7.29445 20.1361 8.99095 22.6096 8.99095 22.6096L16.8674 34.0966C17.139 33.6436 17.436 33.1966 17.7675 32.7556L6.83545 16.8151C6.83545 16.8151 5.13895 14.3416 7.61395 12.6451C10.0875 10.9486 11.7839 13.4221 11.7839 13.4221L22.0665 28.4176C22.4489 28.1056 22.8405 27.7921 23.2439 27.4846L11.3234 10.0981C11.3234 10.0981 9.62695 7.62462 12.1019 5.92812C14.5754 4.23162 16.2719 6.70512 16.2719 6.70512L28.1924 24.0886C28.6304 23.8201 29.0639 23.5876 29.4989 23.3416L18.3569 7.09362C18.3569 7.09362 16.6604 4.62012 19.1339 2.92362C21.6074 1.22712 23.3039 3.70062 23.3039 3.70062L35.0849 20.8816L36.8759 23.4946C29.4539 28.5856 28.7474 38.1631 32.9879 44.3476C33.8354 45.5851 35.0729 44.7376 35.0729 44.7376C29.9834 37.3141 31.5375 28.9726 38.9609 23.8831L36.7724 12.9301C36.7724 12.9301 35.9549 10.0441 38.8394 9.22512C41.7254 8.40762 42.5444 11.2936 42.5444 11.2936L45.0719 18.7996C46.0739 21.7756 47.1404 24.7411 48.5519 27.5461C52.5374 35.4661 50.1569 45.3091 42.6419 50.4646C34.4444 56.0851 23.2379 53.9956 17.616 45.7996L4.04245 26.0041Z" fill="#FFDC5D"/>
<path d="M18 48.063C12 48.063 5.937 42 5.937 36C5.937 35.1705 5.3295 34.5 4.5 34.5C3.6705 34.5 2.937 35.1705 2.937 36C2.937 45 9 51.063 18 51.063C18.8295 51.063 19.5 50.3295 19.5 49.5C19.5 48.6705 18.8295 48.063 18 48.063Z" fill="#5DADEC"/>
<path d="M10.5 51C6 51 3 48 3 43.5C3 42.6705 2.3295 42 1.5 42C0.6705 42 0 42.6705 0 43.5C0 49.5 4.5 54 10.5 54C11.3295 54 12 53.3295 12 52.5C12 51.6705 11.3295 51 10.5 51ZM36 3C35.172 3 34.5 3.672 34.5 4.5C34.5 5.328 35.172 6 36 6C42 6 48 11.3835 48 18C48 18.828 48.672 19.5 49.5 19.5C50.328 19.5 51 18.828 51 18C51 9.729 45 3 36 3Z" fill="#5DADEC"/>
<path d="M43.5 0.0629883C42.672 0.0629883 42 0.671988 42 1.49999C42 2.32799 42.672 3.06299 43.5 3.06299C48 3.06299 50.937 6.40049 50.937 10.5C50.937 11.328 51.6705 12 52.5 12C53.3295 12 53.937 11.328 53.937 10.5C53.937 4.74449 49.5 0.0629883 43.5 0.0629883Z" fill="#5DADEC"/>
</g>
<defs>
<clipPath id="clip0">
<rect width="54" height="54" fill="white"/>
</clipPath>
</defs>
</svg>
