<svg width="380" height="620" viewBox="0 0 380 620" fill="none" xmlns="http://www.w3.org/2000/svg">
<path d="M360.924 0C368.07 0 372.214 3.2566 373.356 9.76985C374.179 13.7716 374.368 18.3979 373.924 23.6489C373.609 27.7048 372.69 31.0042 371.169 33.5471L371.916 41.4122L372.375 42.427L373.797 44.6918L374.072 45.1753L376.056 45.3197L376.287 52.448L380 52.5979C376.932 91.0682 372.862 113.784 367.788 120.745C365.753 124.394 362.855 127.402 359.094 129.769L331.209 144.092C320.953 148.241 307.312 151.309 290.288 153.296L306.958 219.455C322.233 243.584 336.912 268.345 350.994 293.737C349.585 297.441 346.962 299.452 343.124 299.77C342.605 299.716 342.092 299.664 341.584 299.612H341.585C326.705 298.097 316.374 297.339 310.592 297.339C310.331 297.339 310.079 297.341 309.837 297.344C307.015 297.38 305.448 297.624 305.137 298.078C305.086 298.073 305.031 298.071 304.971 298.071C304.962 298.071 304.953 298.071 304.944 298.071C303.033 298.095 297.098 300.774 287.139 306.107L277.795 306.817H277.794L277.614 306.831C276.518 307.32 276.028 307.833 276.144 308.371C287.656 365.715 299.215 416.891 310.821 461.9C312.026 465.881 316.899 502.053 325.441 570.416C324.326 571.365 322.895 572.168 321.15 572.826H321.157C321.325 573.247 321.523 573.686 321.751 574.142C323.459 577.551 325.869 581.269 328.98 585.294C331.635 588.676 334.17 591.372 336.586 593.38C337.802 594.537 341.236 596.831 346.888 600.26C347.72 600.829 348.438 601.41 349.043 602.002C350.531 603.439 351.342 605.268 351.474 607.489C351.509 610.613 350.503 613.108 348.457 614.974C346.775 616.506 343.913 617.397 339.87 617.644C338.092 617.716 336.329 617.753 334.584 617.753C329.189 617.753 323.95 617.408 318.867 616.718C316.988 616.418 315.655 616.046 314.868 615.603C314.469 615.382 314.166 615.154 313.958 614.92C313.189 613.693 312.74 613.079 312.612 613.079C312.608 613.079 312.604 613.079 312.601 613.081C312.194 612.741 311.526 612.434 310.597 612.158C309.51 611.861 308.347 611.69 307.11 611.646L301.25 611.776C300.3 611.684 299.574 611.437 299.073 611.035C298.04 610.292 297.608 608.709 297.775 606.287C297.592 605.931 298.483 600.501 300.448 589.996L301.064 585.06C301.355 581.99 301.497 578.726 301.49 575.268H301.484L301.44 575.27H301.442L289.051 575.812C269.191 489.223 258.539 445.915 257.097 445.888H257.094C257.033 445.889 256.988 445.97 256.961 446.129L208.744 359.448L176.164 428.602C165.005 498.919 154.904 549.659 145.863 580.822L140.117 579.893H140.117L127.799 577.9H127.79C129.872 591.248 131.672 601.546 133.188 608.795C133.489 610.603 133.512 611.784 133.256 612.338C133.021 612.822 132.583 613.083 131.943 613.123C126.764 613.145 122.42 613.507 118.911 614.21C118.02 614.272 115.141 615.197 110.276 616.983C109.157 617.307 107.925 617.577 106.578 617.792C94.4573 619.25 87.9125 619.979 86.9441 619.979C86.8337 619.979 86.7958 619.969 86.8302 619.951H86.8215C86.0513 619.984 85.3091 620 84.5948 620C77.8689 620 73.6204 618.536 71.8492 615.609C71.0179 614.12 70.8553 612.309 71.3616 610.175C71.9154 608.023 72.9439 606.293 74.4472 604.985C75.2617 604.275 76.2411 603.794 77.3854 603.542C77.9425 603.428 78.5089 603.353 79.0845 603.317C82.221 603.231 84.0316 603.132 84.5165 603.019C85.6677 602.87 86.7648 602.582 87.8079 602.155C90.004 601.273 92.0347 599.565 93.9 597.033C96.7136 593.517 100.486 585.923 105.216 574.249H105.224L104.933 574.202C119.805 462.823 126.907 407.022 126.241 406.801H126.227C126.629 402.632 132.318 376.417 143.293 328.156L139.243 318.461L135.566 168.077L130.668 162.282L50.1472 150.602L7.59116 84.2139L11.3736 83.0332L9.00784 75.8081L11.9395 75.013L9.31152 62.5319C7.10031 60.5469 5.2403 57.6628 3.73148 53.8796C1.74274 48.9923 0.545746 44.5165 0.140472 40.4524C-0.727692 33.7374 2.42841 29.3656 9.60883 27.3368L9.61465 27.3348C14.5701 25.916 19.0412 25.2066 23.0281 25.2066C25.0287 25.2066 26.9074 25.3853 28.6642 25.7425C32.9876 26.7648 35.3131 29.3347 35.6406 33.4524C35.806 35.4771 35.5248 38.0714 34.797 41.2353C34.5826 42.5297 33.2898 47.0292 30.9185 54.7338C30.5507 56.0439 30.2141 57.3705 29.9085 58.7134L32.4103 69.4613L33.6328 69.1297L33.651 69.1247L35.8283 75.3994L37.3751 74.9166L68.2063 120.242L125.762 121.334L142.828 102.486L182.529 110.327L183.799 110.376L183.847 108.739L183.9 108.758L182.581 100.44C180.591 100.184 179.392 99.7428 178.985 99.1159L177.481 96.1613L174.757 91.5422C174.231 90.521 173.928 89.6811 173.85 89.0227C173.753 88.2059 173.895 87.4648 174.276 86.7996L175.873 84.7846H175.881C175.089 84.3804 174.461 83.8321 173.995 83.1397C173.121 81.9523 172.381 79.9838 171.777 77.2343C171.076 73.8942 170.808 70.9129 170.974 68.2903C171.114 66.101 171.717 64.3703 172.782 63.0983L172.789 63.0909C172.969 62.8744 173.163 62.6706 173.371 62.4796H173.379C173.373 62.3227 173.367 62.1653 173.361 62.0074C174.737 57.922 175.906 54.9699 176.868 53.1512C178.058 50.8008 179.427 48.884 180.974 47.4006H180.982C181.706 45.8571 182.399 44.6387 183.06 43.7452C184.462 41.7612 186.145 40.3482 188.107 39.5061L188.14 39.4915C190.343 38.5886 192.65 38.1372 195.06 38.1372C196.638 38.1372 198.259 38.3305 199.926 38.717C202.836 39.4771 205.307 41.0883 207.337 43.5506H207.344C210.287 44.7224 213.102 46.6046 215.79 49.1972C216.803 50.1765 217.681 51.1779 218.424 52.2011H218.431C219.993 53.4195 221.207 54.4832 222.072 55.3925C223.979 57.3052 225.332 59.3882 226.131 61.6413C227.23 64.5438 227.519 68.0519 226.997 72.1657C227.5 71.9216 228.042 71.7996 228.622 71.7996C229.044 71.7996 229.487 71.8645 229.951 71.9943C231.118 72.4242 231.762 73.4038 231.883 74.9332C232.061 81.1443 231.859 84.7968 231.276 85.8907C230.976 86.6264 230.514 87.1036 229.89 87.3223C229.57 87.481 228.956 87.5603 228.049 87.5603C227.668 87.5603 227.236 87.5463 226.752 87.5184H226.744C226.772 89.9694 226.617 93.5425 226.279 98.238C226.249 99.0826 226.25 99.8213 226.282 100.454C226.193 101.07 226.602 103.581 227.508 107.987L227.663 107.916L227.822 107.843L228.342 112.093L230.605 112.18L272.825 101.55L285.446 113.769L337.33 103.699L347.473 52.2133L347.655 51.292L347.896 51.3017L348.373 43.3113L348.374 43.3052L350.876 43.4873C350.878 43.3913 350.88 43.2983 350.882 43.2084H350.888L350.351 35.9189C349.66 34.7252 348.943 33.5561 348.201 32.4118C343.641 25.7433 341.066 21.8219 340.476 20.6478C338.838 17.8375 337.797 15.4409 337.352 13.458C336.438 9.42781 337.895 6.29256 341.722 4.0522C346.427 1.49365 352.652 0.144786 360.397 0.0056363H360.404C360.579 0.0018593 360.752 0 360.924 0Z" fill="white" fill-opacity="0.1"/>
</svg>
