<svg id="Layer_1" enable-background="new 0 0 510 510" height="512" viewBox="0 0 510 510" width="512" xmlns="http://www.w3.org/2000/svg"><g><path d="m90 120h-90v75l45 10 45-10 10-35z" fill="#ffd92e"/><path d="m0 195v75h90l10-37.5-10-37.5z" fill="#fcbe00"/><path d="m285 120-15 10-15-10v-31.898l15-8.352 15 8.352z" fill="#ff3d7d"/><path d="m150 120-15 10-15-10v-30l15-10 15 10z" fill="#d8e4fe"/><path d="m90 60h90v30h-90z" fill="#ecf2ff"/><path d="m30 510h-30v-135c0-33.084 26.916-60 60-60s60 26.916 60 60v60c0 16.542 13.458 30 30 30s30-13.458 30-30v-105l15-15 15 15v105c0 33.084-26.916 60-60 60s-60-26.916-60-60v-60c0-16.542-13.458-30-30-30s-30 13.458-30 30z" fill="#d8e4fe"/><path d="m150 270v60h90v-60l-45-10z" fill="#ff3d7d"/><path d="m270 90c-33.084 0-60-26.916-60-60v-30h120v30c0 33.084-26.916 60-60 60z" fill="#ffd92e"/><path d="m510 180h-92.572l-4.928 7.5 7.5 7.5 42.5 10 47.5-10z" fill="#ecf2ff"/><path d="m411.214 202.5 6.214 7.5h92.572v-15h-90z" fill="#d8e4fe"/><path d="m375 150h-15l-16.667 20 16.667 25 25 10 35-10c0-24.812-20.186-45-45-45z" fill="#98e53b"/><path d="m360 240h15c24.814 0 45-20.188 45-45h-60l-16.667 21.333z" fill="#27d072"/><path d="m360 120h-270v75l132.5 10 137.5-10z" fill="#575f64"/><path d="m90 195h270v75h-270z" fill="#474f54"/><path d="m120 180v15l15 10 15-10v-15z" fill="#6cf"/><path d="m120 195h30v15h-30z" fill="#4596e6"/><path d="m210 180h-30v15l15 10 15-10z" fill="#6cf"/><path d="m180 195h30v15h-30z" fill="#4596e6"/></g></svg>