<svg id="Capa_1" enable-background="new 0 0 497 497" height="512" viewBox="0 0 497 497" width="512" xmlns="http://www.w3.org/2000/svg"><g><g><path d="m308.254 160.312c-1.986 0-3.967-.784-5.442-2.337-2.851-3.004-2.727-7.751.278-10.603l6.777-6.431c.037-.035.075-.07.113-.105 5.145-4.685 8.152-11.123 8.468-18.129.316-6.993-2.093-13.661-6.782-18.775-9.715-10.643-26.276-11.406-36.956-1.726l-38.642 36.433c-3.013 2.841-7.76 2.702-10.602-.312-2.841-3.014-2.702-7.76.312-10.602l38.693-36.481c.032-.03.063-.059.096-.088 16.785-15.284 42.878-14.096 58.167 2.651 7.392 8.063 11.196 18.571 10.699 29.577-.496 10.991-5.216 21.105-13.294 28.49l-6.724 6.38c-1.45 1.375-3.307 2.058-5.161 2.058z" fill="#918291"/></g><g><path d="m299.529 162.167c-3.446 0-6.549-2.389-7.318-5.894l-10.658-48.557c-2.348-10.708-.364-21.714 5.585-30.992 5.949-9.277 15.125-15.676 25.84-18.019 22.174-4.857 44.168 9.225 49.027 31.39l10.741 48.862c.889 4.046-1.669 8.046-5.715 8.936-4.045.888-8.046-1.67-8.936-5.715l-10.742-48.866c-3.089-14.092-17.068-23.039-31.169-19.953-6.803 1.488-12.634 5.559-16.419 11.463-3.785 5.902-5.049 12.892-3.561 19.681l10.657 48.555c.888 4.046-1.672 8.045-5.718 8.934-.54.118-1.081.175-1.614.175z" fill="#918291"/></g><g><path clip-rule="evenodd" d="m259.775 245.293c7.424 42.716-6.58 88.156-41.139 119.385-53.624 48.417-136.353 44.26-184.831-9.268s-44.317-136.18 9.28-184.596c34.559-31.201 81.266-40.553 123.052-28.927l25.364-22.888c8.042-7.274 20.584-6.628 27.839 1.404l67.178 74.17c7.283 8.032 6.636 20.558-1.406 27.831zm-68.022-32.55c30.426 33.589 27.81 85.46-5.821 115.847s-85.568 27.775-115.994-5.813c-30.426-33.617-27.81-85.46 5.821-115.847 33.659-30.387 85.568-27.775 115.994 5.813z" fill="#c6d0da" fill-rule="evenodd"/></g><g><path d="m218.975 194.827c-2.015 0-4.022-.806-5.5-2.399-2.817-3.037-2.639-7.782.398-10.599l9.083-8.425c3.038-2.817 7.783-2.638 10.599.398 2.817 3.037 2.639 7.782-.398 10.599l-9.083 8.425c-1.445 1.339-3.275 2.001-5.099 2.001z" fill="#685d68"/></g><g><path clip-rule="evenodd" d="m212.618 275.287c-1.8 19.771-10.77 38.924-26.686 53.303-5.399 4.887-11.276 8.903-17.462 12.104-4.64 4.943-9.476 9.773-14.594 14.463-17.35 15.924-36.19 28.983-55.846 39.121 41.167 10.616 86.693 1.011 120.606-29.601 7.986-7.246 14.903-15.222 20.696-23.787-.422-1.629-.815-3.314-1.181-4.971-9.758-45.524 5.511-90.571 36.528-120.874l-7.142-33.392c-.591-2.752-.591-5.476-.028-8.088l-24.802-27.382-5.118-5.645c14.087 46.537-2.504 86.304-24.971 134.749z" fill="#a0aab7" fill-rule="evenodd"/></g><g><path clip-rule="evenodd" d="m411.171 185.839c40.717 14.941 73.14 49.793 82.897 95.317 15.128 70.575-29.863 140.055-100.528 155.164-70.665 15.137-140.233-29.825-155.39-100.4-9.758-45.524 5.511-90.571 36.528-120.874l-7.142-33.392c-2.278-10.588 4.527-21.119 15.128-23.394l97.913-20.951c10.629-2.247 21.146 4.55 23.424 15.137zm-62.257 42.491c44.345-9.492 87.987 18.732 97.491 63.021s-18.728 87.903-63.073 97.395c-44.373 9.492-88.015-18.732-97.519-63.021s18.756-87.902 63.101-97.395z" fill="#c6d0da" fill-rule="evenodd"/></g><g><path clip-rule="evenodd" d="m381.477 192.186c40.746 14.941 76.936 40.357 88.858 95.879 11.923 55.55-29.723 129.608-91.839 150.587 5.005-.477 10.011-1.264 15.044-2.331 57.561-12.301 98.11-60.69 102.975-116.38.647-7.414.647-14.969 0-22.58-.478-5.364-1.293-10.784-2.446-16.204-9.758-45.524-42.18-80.377-82.897-95.317l-7.171-33.392c-2.278-10.588-12.795-17.384-23.424-15.137l-15.157 3.258-14.51 3.117c5.793-1.264 11.557.225 15.972 3.51 3.656 2.752 6.411 6.796 7.452 11.599z" fill="#a0aab7" fill-rule="evenodd"/></g><g><path d="m340.472 199.603c-3.428 0-6.521-2.365-7.309-5.849l-2.728-12.076c-.913-4.041 1.623-8.056 5.663-8.968 4.045-.915 8.057 1.623 8.968 5.663l2.728 12.076c.913 4.041-1.623 8.056-5.663 8.968-.556.126-1.112.186-1.659.186z" fill="#685d68"/></g></g></svg>