<svg width="36" height="36" viewBox="0 0 36 36" fill="none" xmlns="http://www.w3.org/2000/svg">
<g clip-path="url(#clip0)">
<path d="M36 18C36 27.941 27.941 36 18 36C8.059 36 0 27.941 0 18C0 8.059 8.059 0 18 0C27.941 0 36 8.059 36 18Z" fill="#FFCC4D"/>
<path d="M24.327 23.622C24.174 23.49 23.959 23.463 23.776 23.553L19.776 25.553C17.905 26.488 13.049 26.5 13 26.5C12.724 26.5 12.5 26.724 12.5 27C12.5 27.185 12.601 27.347 12.75 27.433V27.434H12.751V27.435C12.822 27.475 12.904 27.498 12.991 27.5H19.999C22.657 27.5 24.088 25.315 24.474 24.158C24.538 23.966 24.48 23.755 24.327 23.622V23.622ZM31.001 16C30.696 16 30.397 15.862 30.2 15.6C27.559 12.079 24.139 12.001 23.994 12C23.444 11.994 23 11.544 23.003 10.995C23.006 10.444 23.45 10 24 10C24.184 10 28.537 10.05 31.8 14.4C32.132 14.842 32.042 15.469 31.6 15.8C31.42 15.935 31.21 16 31.001 16V16ZM4.99901 16C4.79101 16 4.58001 15.935 4.40001 15.8C3.95801 15.469 3.86901 14.842 4.20001 14.4C7.46201 10.05 11.816 10 12 10C12.552 10 13 10.448 13 11C13 11.551 12.555 11.998 12.004 12C11.848 12.002 8.43501 12.086 5.79901 15.6C5.60401 15.862 5.30301 16 4.99901 16ZM15.897 17.396C15.92 17.344 15.956 17.3 15.97 17.242C16.104 16.706 15.778 16.163 15.243 16.029C15.063 15.984 10.776 14.949 7.44601 17.167C6.98701 17.473 6.86301 18.094 7.16901 18.554C7.36101 18.844 7.67801 19 8.00101 19C8.19101 19 8.38401 18.945 8.55501 18.832C9.64701 18.103 10.917 17.837 12.023 17.771C12.014 17.847 12 17.922 12 18C12 19.104 12.896 20 14 20C15.104 20 16 19.104 16 18C16 17.788 15.958 17.588 15.897 17.396V17.396ZM27.896 17.395C27.919 17.343 27.955 17.3 27.969 17.243C28.104 16.707 27.778 16.164 27.242 16.03C27.062 15.985 22.776 14.95 19.445 17.168C18.985 17.474 18.861 18.095 19.168 18.555C19.36 18.844 19.678 19 20.001 19C20.191 19 20.384 18.945 20.555 18.832C21.647 18.103 22.916 17.838 24.024 17.772C24.015 17.848 24 17.922 24 18C24 19.104 24.896 20 26 20C27.104 20 28 19.104 28 18C28 17.788 27.958 17.587 27.896 17.395V17.395Z" fill="#664500"/>
<g clip-path="url(#clip1)">
<path d="M13.375 23.539L13.384 23.6L9.60197 15.486C9.31597 14.875 8.45397 14.672 7.67697 15.035L7.61597 15.063C6.93597 15.38 6.54497 16.026 6.65197 16.593C6.65197 16.593 5.37697 15.446 4.62797 15.796L4.56797 15.823C3.81897 16.173 3.44497 16.959 3.73497 17.58L4.26797 18.772C3.96697 18.128 3.07797 17.906 2.28297 18.278L2.22097 18.307C1.42597 18.678 1.02397 19.501 1.32497 20.145L6.45597 33.295L13.25 33.507L15.281 27.257L13.375 23.539ZM33.853 18.308L33.791 18.279C32.995 17.907 32.106 18.129 31.806 18.773L32.339 17.581C32.629 16.96 32.255 16.173 31.507 15.824L31.447 15.797C30.698 15.447 29.856 15.668 29.565 16.289L29.422 16.595C29.529 16.028 29.139 15.382 28.458 15.065L28.396 15.037C27.619 14.674 26.757 14.877 26.472 15.489L22.701 23.577L22.668 23.463L20.647 27.983L24 34.375L30.195 29.912L34.749 20.146C35.05 19.502 34.647 18.679 33.853 18.308V18.308Z" fill="#EF9645"/>
<path d="M35.809 22.672C35.809 22.672 36.462 21.629 35.355 21.114C34.249 20.599 33.873 21.771 33.873 21.771L31.483 26.913C31.342 26.749 30.778 26.397 30.617 26.242L33.932 19.106C33.932 19.106 34.585 18.063 33.477 17.548C32.37 17.034 31.994 18.205 31.994 18.205L28.876 24.916C28.701 24.817 28.246 24.589 28.064 24.493L31.68 16.712C31.68 16.712 32.332 15.669 31.225 15.154C30.119 14.639 29.743 15.811 29.743 15.811L26.125 23.591C25.932 23.513 25.328 23.256 25.137 23.187L28.517 15.915C28.517 15.915 29.168 14.872 28.062 14.357C26.954 13.842 26.579 15.014 26.579 15.014L23.005 22.703L22.719 23.32L22.591 23.596C25.914 25.14 27.077 29.212 25.791 31.98C25.533 32.534 24.614 32.28 24.614 32.28C26.158 28.959 24.972 25.714 21.65 24.171L21.794 19.626C21.794 19.626 21.928 18.413 20.715 18.278C19.5 18.144 19.366 19.358 19.366 19.358L18.857 22.541C18.654 23.803 18.426 25.066 18.047 26.287C16.981 29.734 18.598 33.525 21.962 35.09C25.631 36.795 29.989 35.202 31.694 31.534L31.951 30.978L35.809 22.672V22.672Z" fill="#FFDC5D"/>
<path d="M0.191971 22.672C0.191971 22.672 -0.462029 21.629 0.644971 21.114C1.75197 20.599 2.12697 21.771 2.12697 21.771L4.51697 26.913C4.65797 26.749 5.22197 26.397 5.38297 26.242L2.06797 19.106C2.06797 19.106 1.41397 18.063 2.52297 17.548C3.62797 17.034 4.00497 18.205 4.00497 18.205L7.12397 24.916C7.29897 24.817 7.75397 24.589 7.93597 24.493L4.32097 16.713C4.32097 16.713 3.66797 15.67 4.77597 15.155C5.88297 14.64 6.25897 15.812 6.25897 15.812L9.87697 23.592C10.07 23.514 10.674 23.257 10.865 23.188L7.48497 15.916C7.48497 15.916 6.83397 14.873 7.93997 14.358C9.04697 13.843 9.42297 15.015 9.42297 15.015L12.997 22.704L13.283 23.321L13.411 23.597C10.088 25.141 8.92497 29.213 10.211 31.981C10.469 32.535 11.388 32.281 11.388 32.281C9.84397 28.96 11.03 25.715 14.351 24.172L14.208 19.627C14.208 19.627 14.074 18.414 15.286 18.279C16.501 18.145 16.636 19.359 16.636 19.359L17.144 22.542C17.347 23.804 17.576 25.067 17.955 26.288C19.022 29.735 17.403 33.526 14.039 35.091C10.37 36.796 6.01197 35.203 4.30697 31.535L4.05097 30.979L0.191971 22.672V22.672Z" fill="#FFDC5D"/>
</g>
</g>
<defs>
<clipPath id="clip0">
<rect width="36" height="36" fill="white"/>
</clipPath>
<clipPath id="clip1">
<rect width="36" height="36" fill="white" transform="translate(0 7)"/>
</clipPath>
</defs>
</svg>
