<svg id="Capa_1" enable-background="new 0 0 497 497" height="512" viewBox="0 0 497 497" width="512" xmlns="http://www.w3.org/2000/svg"><path d="m251.613 362.066-98.013 98.014c-35.094 35.094-92.186 35.094-127.28 0s-35.094-92.187 0-127.282l291.479-291.496c40.942-40.942 107.559-40.935 148.493 0 40.304 40.305 28.714 94.684-21.206 127.289 29.239-29.239 29.239-76.829-.007-106.075-29.239-29.239-76.828-29.239-106.067 0l-76.785 76.786c-.001.004 30 0 30 0l-116.68 116.696-23.999-6.001-104.014 104.015c-23.391 23.392-23.391 61.463 0 84.855 23.398 23.399 61.455 23.399 84.853 0l214.686-214.689c17.501-17.501 17.501-46.14 0-63.641-17.225-17.225-45.681-17.945-62.813-.813 27.526-42.257 57.509-46.917 84.026-20.4 29.239 29.239 29.239 76.829 0 106.068h30l-116.673 116.674z" fill="#acd5df"/><path d="m262.22 139.323-111.37 111.372c-2.929 2.929-2.929 7.678 0 10.607l10.607 10.607c2.929 2.929 7.673 2.934 10.602.005 22.896-22.894 112.19-112.178 112.202-112.19 29.126-28.617 66.645-37.781 84.026-20.401-29.239-29.239-76.814-29.253-106.067 0z" fill="#c4f3ff"/><path d="m466.299 189.805-188.169 188.172c-2.929 2.929-7.678 2.929-10.607 0l-10.607-10.607c-2.929-2.929-2.929-7.678 0-10.607l188.17-188.172c40.935-40.935 50.452-98.042 21.206-127.289 40.942 40.943 40.942 107.568.007 148.503z" fill="#93b7c0"/></svg>