<svg width="128" height="128" viewBox="0 0 128 128" fill="none" xmlns="http://www.w3.org/2000/svg">
<g clip-path="url(#clip0_1564_112)">
<path d="M87.9739 59.6978L77.3902 51.5029L63.8975 23.8528C60.9556 17.8241 54.8346 14 48.1264 14H-20.094C-25.9118 14 -31.2812 17.1247 -34.1551 22.183L-50.4889 50.9301C-66.442 51.361 -81.6381 61.7526 -81.6381 61.7526C-87.4334 64.336 -87.8799 71.8539 -87.8799 78.1992C-87.8799 79.7503 -87.64 81.008 -89.1912 81.008C-90.7423 81.008 -92 82.2657 -92 83.8168V93.848C-92 95.3991 -90.7427 96.6568 -89.1912 96.6568H80.5193C87.2441 96.6568 92.6953 91.2052 92.6953 84.4808V69.3251C92.6953 65.5582 90.9521 62.0037 87.9739 59.6978Z" fill="#237BFF"/>
<path d="M-72.5552 93.5621C-72.5552 79.4496 -61.1147 68.0092 -47.0022 68.0092C-32.8897 68.0092 -21.4493 79.4496 -21.4493 93.5621V96.6568H-72.5552V93.5621ZM21.0305 96.6568H72.1364V93.5621C72.1364 79.4496 60.6959 68.0092 46.5834 68.0092C32.4709 68.0092 21.0305 79.4496 21.0305 93.5621V96.6568Z" fill="#1D55A8"/>
<path d="M-25.8121 94.1241C-25.8121 105.542 -35.0679 114.797 -46.4855 114.797C-57.9032 114.797 -67.1589 105.542 -67.1589 94.1241C-67.1589 82.7064 -57.9032 73.4507 -46.4855 73.4507C-35.0679 73.4507 -25.8121 82.7064 -25.8121 94.1241ZM47.1001 73.4507C35.6825 73.4507 26.4267 82.7064 26.4267 94.1241C26.4267 105.542 35.6825 114.797 47.1001 114.797C58.5178 114.797 67.7736 105.542 67.7736 94.1241C67.7736 82.7064 58.5178 73.4507 47.1001 73.4507Z" fill="#2B3B47"/>
<path d="M-32.9354 94.1241C-32.9354 101.608 -39.0021 107.674 -46.4857 107.674C-53.9692 107.674 -60.0359 101.608 -60.0359 94.1241C-60.0359 86.6405 -53.9692 80.5738 -46.4857 80.5738C-39.0021 80.5738 -32.9354 86.6409 -32.9354 94.1241ZM47.1 80.5742C39.6164 80.5742 33.5497 86.6409 33.5497 94.1244C33.5497 101.608 39.6164 107.675 47.1 107.675C54.5835 107.675 60.6502 101.608 60.6502 94.1244C60.6502 86.6409 54.5835 80.5742 47.1 80.5742Z" fill="#9BA5A8"/>
<path d="M-32.8326 48.1043L61.3598 48.3687C63.2887 48.3742 64.5543 46.3545 63.7084 44.621L56.2679 29.3746C54.3441 25.4321 50.2667 22.8849 45.88 22.8849H-17.0463C-20.7094 22.8849 -24.0903 24.8525 -25.8998 28.0373L-35.0904 44.2125C-36.0756 45.946 -34.827 48.0988 -32.8326 48.1043Z" fill="white"/>
<path d="M28.6123 16.642H18.5044V53.3995H28.6123V16.642Z" fill="#237BFF"/>
<path d="M-41.7387 94.1241C-41.7387 96.7455 -43.8637 98.8705 -46.4851 98.8705C-49.1065 98.8705 -51.2314 96.7455 -51.2314 94.1241C-51.2314 91.5027 -49.1065 89.3777 -46.4851 89.3777C-43.8637 89.3777 -41.7387 91.5027 -41.7387 94.1241ZM47.1002 89.3777C44.4788 89.3777 42.3538 91.5027 42.3538 94.1241C42.3538 96.7455 44.4788 98.8705 47.1002 98.8705C49.7216 98.8705 51.8466 96.7455 51.8466 94.1241C51.8469 91.5027 49.7216 89.3777 47.1002 89.3777Z" fill="#E5E4DF"/>
<path d="M92.667 80.2909H89.8781C86.8641 80.2909 84.9834 77.8475 84.9834 74.8335C84.9834 71.8195 86.8641 69.3762 89.8781 69.3762H92.667V80.2909ZM-87.9733 79.5419H-84.8099C-81.7959 79.5419 -79.9152 77.0985 -79.9152 74.0846C-79.9152 71.0706 -81.7959 68.6272 -84.8099 68.6272H-86.949C-88.1011 70.8625 -87.9733 79.5419 -87.9733 79.5419Z" fill="#FFD469"/>
<rect x="61" y="61.8345" width="45.9475" height="5.78915" rx="2.89458" transform="rotate(-47.4234 61 61.8345)" fill="#237BFF"/>
<path d="M-17.6108 41.9284V48.9687C-17.6108 51.0296 -20.454 52.2425 -22.5493 51.0788C-24.0125 50.2662 -25.4971 49.2849 -26.5344 48.2172L-33.6449 48.2099C-35.5098 48.2071 -36.6437 46.1548 -35.6541 44.5744L-28.536 32.6776L-25.5076 41.8441C-24.6392 41.128 -23.6257 40.4547 -22.6184 39.8587C-20.5358 38.6256 -17.6108 39.8356 -17.6108 41.9284ZM63.1182 48.3478C64.6896 48.3431 65.7136 46.695 65.0214 45.2843L55.0937 25.0443C54.4833 23.8 53.2184 23.0116 51.8326 23.0116H47.1V48.3948L63.1182 48.3478Z" fill="#2B3B47"/>
</g>
<defs>
<clipPath id="clip0_1564_112">
<rect width="128" height="128" fill="white"/>
</clipPath>
</defs>
</svg>
