<svg width="128" height="128" viewBox="0 0 128 128" fill="none" xmlns="http://www.w3.org/2000/svg">
<path d="M124.657 56.5748L117.344 50.9125L108.022 31.8078C105.989 27.6423 101.76 25 97.1247 25H49.9879C45.9682 25 42.2582 27.159 40.2724 30.654L28.9867 50.5168C17.9639 50.8145 7.46419 57.9945 7.46419 57.9945C3.45994 59.7795 3.15144 64.974 3.15144 69.3583C3.15144 70.43 3.31719 71.299 2.24544 71.299C1.17369 71.299 0.304688 72.168 0.304688 73.2398V80.1708C0.304688 81.2425 1.17344 82.1115 2.24544 82.1115H119.506C124.153 82.1115 127.919 78.3448 127.919 73.6985V63.2268C127.919 60.624 126.715 58.168 124.657 56.5748Z" fill="#237BFF"/>
<path d="M13.7402 79.9733C13.7402 70.2223 21.645 62.3175 31.396 62.3175C41.147 62.3175 49.0517 70.2223 49.0517 79.9733V82.1115H13.7402V79.9733ZM78.403 82.1115H113.714V79.9733C113.714 70.2223 105.81 62.3175 96.0587 62.3175C86.3077 62.3175 78.403 70.2223 78.403 79.9733V82.1115Z" fill="#1D55A8"/>
<path d="M46.0372 80.3615C46.0372 88.2505 39.642 94.6458 31.753 94.6458C23.864 94.6458 17.4688 88.2505 17.4688 80.3615C17.4688 72.4725 23.864 66.0773 31.753 66.0773C39.642 66.0773 46.0372 72.4725 46.0372 80.3615ZM96.4157 66.0773C88.5267 66.0773 82.1315 72.4725 82.1315 80.3615C82.1315 88.2505 88.5267 94.6458 96.4157 94.6458C104.305 94.6458 110.7 88.2505 110.7 80.3615C110.7 72.4725 104.305 66.0773 96.4157 66.0773Z" fill="#2B3B47"/>
<path d="M41.1151 80.3615C41.1151 85.5322 36.9234 89.724 31.7526 89.724C26.5819 89.724 22.3901 85.5322 22.3901 80.3615C22.3901 75.1907 26.5819 70.999 31.7526 70.999C36.9234 70.999 41.1151 75.191 41.1151 80.3615ZM96.4154 70.9992C91.2446 70.9992 87.0529 75.191 87.0529 80.3617C87.0529 85.5325 91.2446 89.7242 96.4154 89.7242C101.586 89.7242 105.778 85.5325 105.778 80.3617C105.778 75.191 101.586 70.9992 96.4154 70.9992Z" fill="#9BA5A8"/>
<path d="M41.1863 48.5642L106.268 48.747C107.601 48.7507 108.476 47.3552 107.891 46.1575L102.75 35.623C101.421 32.899 98.6036 31.139 95.5726 31.139H52.0938C49.5628 31.139 47.2268 32.4985 45.9766 34.699L39.6263 45.8752C38.9456 47.073 39.8083 48.5605 41.1863 48.5642Z" fill="white"/>
<path d="M83.6412 26.8255H76.6572V52.223H83.6412V26.8255Z" fill="#237BFF"/>
<path d="M35.0326 80.3615C35.0326 82.1728 33.5644 83.641 31.7531 83.641C29.9419 83.641 28.4736 82.1728 28.4736 80.3615C28.4736 78.5503 29.9419 77.082 31.7531 77.082C33.5644 77.082 35.0326 78.5503 35.0326 80.3615ZM96.4156 77.082C94.6044 77.082 93.1361 78.5503 93.1361 80.3615C93.1361 82.1728 94.6044 83.641 96.4156 83.641C98.2269 83.641 99.6951 82.1728 99.6951 80.3615C99.6954 78.5503 98.2269 77.082 96.4156 77.082Z" fill="#E5E4DF"/>
<path d="M127.9 70.8035H125.973C123.89 70.8035 122.591 69.1153 122.591 67.0328C122.591 64.9503 123.89 63.262 125.973 63.262H127.9V70.8035ZM3.08689 70.286H5.27264C7.35514 70.286 8.65464 68.5978 8.65464 66.5153C8.65464 64.4328 7.35514 62.7445 5.27264 62.7445H3.79464C2.99864 64.289 3.08689 70.286 3.08689 70.286Z" fill="#FFD469"/>
<path d="M51.7037 44.297V49.1615C51.7037 50.5855 49.7392 51.4235 48.2914 50.6195C47.2804 50.058 46.2547 49.38 45.5379 48.6423L40.6249 48.6373C39.3364 48.6353 38.5529 47.2173 39.2367 46.1253L44.1549 37.9053L46.2474 44.2388C46.8474 43.744 47.5477 43.2788 48.2437 42.867C49.6827 42.015 51.7037 42.851 51.7037 44.297ZM107.483 48.7325C108.569 48.7293 109.276 47.5905 108.798 46.6158L101.939 32.631C101.517 31.7713 100.643 31.2265 99.6854 31.2265H96.4154V48.765L107.483 48.7325Z" fill="#2B3B47"/>
<path d="M76.086 68.7587H63.4998H50.9136C49.6549 68.7587 47.1377 70.024 47.1377 72.5346C47.1377 80.2683 63.4998 91.4138 63.4998 98.9656C63.4998 91.4138 79.8619 80.2683 79.8619 72.5346C79.8619 70.024 77.3446 68.7587 76.086 68.7587Z" fill="#464655"/>
<path d="M48.3486 77.4398C50.7837 83.4191 56.6457 87.638 63.4998 87.638C70.354 87.638 76.216 83.4191 78.6512 77.4398L75.54 76.7483C74.3882 76.4924 73.5688 75.4708 73.5688 74.291V68.7585H53.4308V74.291C53.4308 75.471 52.6114 76.4923 51.4597 76.7483L48.3486 77.4398Z" fill="#E6B47D"/>
<path d="M51.4598 76.7483L48.488 77.4088L48.4023 77.5587C48.4045 77.5637 48.4069 77.5687 48.409 77.5737C63.5056 83.8537 73.569 70.0179 73.569 70.0179V68.7592H53.4309V74.291C53.4309 75.471 52.6117 76.4924 51.4598 76.7483Z" fill="#D2A073"/>
<path d="M45.8784 54.9138V58.0609C45.8784 59.583 46.9594 60.8527 48.3956 61.1441V63.4589C48.3956 65.9838 49.5605 68.3418 51.4997 69.7423L57.0958 73.7838C58.2408 74.6109 59.5863 75.0522 60.9626 75.0522H66.0358C67.412 75.0522 68.7575 74.6109 69.9024 73.7838L75.4985 69.7423C77.4377 68.3418 78.6025 65.984 78.6025 63.4589V61.1441C80.0387 60.8526 81.1197 59.5829 81.1197 58.0609V54.9138H45.8784V54.9138Z" fill="#F0C891"/>
<path d="M78.6025 58.6897H77.3444C76.5521 58.6897 75.8059 59.0627 75.3305 59.6967L73.0655 62.7171C72.59 63.351 71.844 63.7241 71.0516 63.7241H55.9483C55.156 63.7241 54.4099 63.3511 53.9345 62.7172L51.669 59.6966C51.1935 59.0627 50.4475 58.6897 49.6552 58.6897H48.3965L48.3955 63.459C48.3955 65.984 49.5604 68.3419 51.4996 69.7425L57.0956 73.784C58.2407 74.6109 59.5862 75.0524 60.9625 75.0524H66.0384C67.4144 75.0524 68.7597 74.6111 69.9046 73.784L75.4997 69.7425C77.4388 68.3419 78.6035 65.984 78.6035 63.459L78.6025 58.6897Z" fill="#E6B47D"/>
<path d="M57.2059 58.6903C56.5137 58.6903 55.9473 58.1239 55.9473 57.4316V56.1729C55.9473 55.4807 56.5136 54.9142 57.2059 54.9142C57.8982 54.9142 58.4646 55.4805 58.4646 56.1729V57.4316C58.4646 58.1239 57.8983 58.6903 57.2059 58.6903Z" fill="#5A4137"/>
<path d="M69.7924 58.6903C69.1002 58.6903 68.5337 58.1239 68.5337 57.4316V56.1729C68.5337 55.4807 69.1 54.9142 69.7924 54.9142C70.4846 54.9142 71.0511 55.4805 71.0511 56.1729V57.4316C71.0511 58.1239 70.4846 58.6903 69.7924 58.6903Z" fill="#5A4137"/>
<path d="M66.0167 68.7591H60.9823C60.2867 68.7591 59.7236 68.1962 59.7236 67.5004C59.7236 66.8048 60.2865 66.2418 60.9823 66.2418H66.0167C66.7124 66.2418 67.2754 66.8047 67.2754 67.5004C67.2753 68.1962 66.7124 68.7591 66.0167 68.7591Z" fill="#D2A073"/>
<path d="M47.1381 51.1379H79.8622C80.5572 51.1379 81.1209 51.7015 81.1209 52.3966V54.9138C81.1209 55.6088 80.5572 56.1725 79.8622 56.1725H47.1381C46.443 56.1725 45.8794 55.6088 45.8794 54.9138V52.3966C45.8795 51.7015 46.443 51.1379 47.1381 51.1379Z" fill="#464655"/>
<path d="M79.8619 51.1379H47.1377V47.362C47.1377 38.3255 54.4632 31 63.4998 31C72.5364 31 79.8619 38.3255 79.8619 47.3621V51.1379Z" fill="#5B5D6E"/>
<path d="M89.5504 79.6763L80.8556 77.5027L79.862 72.5344C79.862 73.9364 79.311 75.4531 78.4303 77.0376C74.454 84.1936 63.4998 92.7827 63.4998 98.9656C63.4998 92.7828 52.5457 84.1936 48.5695 77.0378C47.6889 75.4533 47.1379 73.9365 47.1379 72.5346L46.1442 77.5028L37.4494 79.6764C33.5274 80.657 30.7759 84.1809 30.7759 88.2237V101.483C30.7759 102.873 31.903 104 33.2931 104H93.7069C95.097 104 96.2241 102.873 96.2241 101.483V88.2237C96.2239 84.1808 93.4725 80.6568 89.5504 79.6763Z" fill="#707487"/>
<path d="M39.8918 89.202L33.0491 82.3595C31.6366 83.9348 30.7759 85.9907 30.7759 88.2237V101.483C30.7759 102.873 31.903 104 33.2931 104H42.1034V94.5418C42.1036 92.539 41.308 90.6182 39.8918 89.202Z" fill="#5B5D6E"/>
<path d="M87.1083 89.202L93.9508 82.3595C95.3633 83.9348 96.224 85.9907 96.224 88.2237V101.483C96.224 102.873 95.097 104 93.7068 104H84.8965V94.5418C84.8965 92.539 85.6921 90.6182 87.1083 89.202Z" fill="#5B5D6E"/>
</svg>
