<svg width="128" height="128" viewBox="0 0 128 128" fill="none" xmlns="http://www.w3.org/2000/svg">
<path d="M124.657 51.5748L117.344 45.9125L108.022 26.8078C105.989 22.6423 101.76 20 97.1247 20H49.9879C45.9682 20 42.2582 22.159 40.2724 25.654L28.9867 45.5168C17.9639 45.8145 7.46419 52.9945 7.46419 52.9945C3.45994 54.7795 3.15144 59.974 3.15144 64.3583C3.15144 65.43 3.31719 66.299 2.24544 66.299C1.17369 66.299 0.304688 67.168 0.304688 68.2398V75.1708C0.304688 76.2425 1.17344 77.1115 2.24544 77.1115H119.506C124.153 77.1115 127.919 73.3448 127.919 68.6985V58.2268C127.919 55.624 126.715 53.168 124.657 51.5748Z" fill="#237BFF"/>
<path d="M13.74 74.9733C13.74 65.2223 21.6447 57.3175 31.3957 57.3175C41.1467 57.3175 49.0515 65.2223 49.0515 74.9733V77.1115H13.74V74.9733ZM78.4027 77.1115H113.714V74.9733C113.714 65.2223 105.809 57.3175 96.0585 57.3175C86.3075 57.3175 78.4027 65.2223 78.4027 74.9733V77.1115Z" fill="#1D55A8"/>
<path d="M46.037 75.3615C46.037 83.2505 39.6418 89.6458 31.7528 89.6458C23.8638 89.6458 17.4685 83.2505 17.4685 75.3615C17.4685 67.4725 23.8638 61.0773 31.7528 61.0773C39.6418 61.0773 46.037 67.4725 46.037 75.3615ZM96.4155 61.0773C88.5265 61.0773 82.1313 67.4725 82.1313 75.3615C82.1313 83.2505 88.5265 89.6458 96.4155 89.6458C104.305 89.6458 110.7 83.2505 110.7 75.3615C110.7 67.4725 104.305 61.0773 96.4155 61.0773Z" fill="#2B3B47"/>
<path d="M41.1151 75.3615C41.1151 80.5322 36.9234 84.724 31.7526 84.724C26.5819 84.724 22.3901 80.5322 22.3901 75.3615C22.3901 70.1907 26.5819 65.999 31.7526 65.999C36.9234 65.999 41.1151 70.191 41.1151 75.3615ZM96.4154 65.9992C91.2446 65.9992 87.0529 70.191 87.0529 75.3617C87.0529 80.5325 91.2446 84.7242 96.4154 84.7242C101.586 84.7242 105.778 80.5325 105.778 75.3617C105.778 70.191 101.586 65.9992 96.4154 65.9992Z" fill="#9BA5A8"/>
<path d="M41.1863 43.5642L106.268 43.747C107.601 43.7507 108.476 42.3552 107.891 41.1575L102.75 30.623C101.421 27.899 98.6036 26.139 95.5726 26.139H52.0938C49.5628 26.139 47.2268 27.4985 45.9766 29.699L39.6263 40.8752C38.9456 42.073 39.8083 43.5605 41.1863 43.5642Z" fill="white"/>
<path d="M83.6415 21.8255H76.6575V47.223H83.6415V21.8255Z" fill="#237BFF"/>
<path d="M35.0326 75.3615C35.0326 77.1728 33.5644 78.641 31.7531 78.641C29.9419 78.641 28.4736 77.1728 28.4736 75.3615C28.4736 73.5503 29.9419 72.082 31.7531 72.082C33.5644 72.082 35.0326 73.5503 35.0326 75.3615ZM96.4156 72.082C94.6044 72.082 93.1361 73.5503 93.1361 75.3615C93.1361 77.1728 94.6044 78.641 96.4156 78.641C98.2269 78.641 99.6951 77.1728 99.6951 75.3615C99.6954 73.5503 98.2269 72.082 96.4156 72.082Z" fill="#E5E4DF"/>
<path d="M127.9 65.8035H125.973C123.89 65.8035 122.591 64.1153 122.591 62.0328C122.591 59.9503 123.89 58.262 125.973 58.262H127.9V65.8035ZM3.08689 65.286H5.27264C7.35514 65.286 8.65464 63.5978 8.65464 61.5153C8.65464 59.4328 7.35514 57.7445 5.27264 57.7445H3.79464C2.99864 59.289 3.08689 65.286 3.08689 65.286Z" fill="#FFD469"/>
<path d="M51.7037 39.297V44.1615C51.7037 45.5855 49.7392 46.4235 48.2914 45.6195C47.2804 45.058 46.2547 44.38 45.5379 43.6423L40.6249 43.6373C39.3364 43.6353 38.5529 42.2173 39.2367 41.1253L44.1549 32.9053L46.2474 39.2388C46.8474 38.744 47.5477 38.2788 48.2437 37.867C49.6827 37.015 51.7037 37.851 51.7037 39.297ZM107.483 43.7325C108.569 43.7293 109.276 42.5905 108.798 41.6158L101.939 27.631C101.517 26.7713 100.643 26.2265 99.6854 26.2265H96.4154V43.765L107.483 43.7325Z" fill="#2B3B47"/>
<g clip-path="url(#clip0_1564_172)">
<path d="M81.9296 49.2408C81.5846 49.2408 81.2393 49.1092 80.9758 48.8457L73.6096 41.4794L67.324 43.808C66.6248 44.0666 65.8495 43.7103 65.5907 43.0119C65.3319 42.3134 65.6885 41.5375 66.387 41.2787L73.4834 38.6498C73.9775 38.4667 74.5329 38.5881 74.9056 38.9608L82.8833 46.9385C83.41 47.4651 83.41 48.3192 82.8833 48.8457C82.62 49.1092 82.2747 49.2408 81.9296 49.2408Z" fill="#F7B239"/>
<path d="M89.645 50.4248L92.887 53.6668L99.5317 47.022L108.421 49.4787L109.653 45.0626L99.4739 42.2459C98.6769 42.0235 97.8219 42.2479 97.2369 42.8331L89.645 50.4248Z" fill="#E6E6E6"/>
<path d="M89.9126 48.152L95.1596 53.399C95.68 53.9194 95.68 54.7633 95.1596 55.2837L91.5949 58.8485L84.4631 51.7167L88.0279 48.152C88.5483 47.6316 89.3922 47.6316 89.9126 48.152Z" fill="#B3B3B3"/>
<path d="M93.3992 57.4734C94.3547 58.4289 94.3547 59.978 93.3992 60.9334L87.9972 66.3354L65.6553 88.679C64.2976 90.0349 62.0983 90.0349 60.7424 88.679L41.0169 68.9538C39.661 67.5979 39.661 65.3987 41.0169 64.0409L64.1004 40.959C64.9452 40.1144 66.3148 40.1144 67.1594 40.959L69.4963 43.2959L75.5169 49.3165L82.649 46.7235L86.5153 50.5897L93.3992 57.4734Z" fill="#E09B2D"/>
<path d="M93.9063 57.9804C94.5817 58.6558 94.5817 59.751 93.9063 60.4265L87.9973 66.3355L65.6554 88.6793C64.2976 90.0352 62.0983 90.0352 60.7424 88.6793L44.8834 72.8202C43.5275 71.4642 43.5275 69.265 44.8834 67.9072L69.4964 43.2959L74.2049 48.0044C75.0055 48.805 76.1972 49.0693 77.2612 48.6825L82.6491 46.7235L93.9063 57.9804Z" fill="#F7B239"/>
<path d="M81.092 64.0403H65.6559V48.6042C65.6559 47.8594 65.0522 47.2556 64.3073 47.2556C63.5623 47.2556 62.9586 47.8594 62.9586 48.6042V64.0403H47.5222C46.7773 64.0403 46.1736 64.6441 46.1736 65.389C46.1736 66.1338 46.7773 66.7376 47.5222 66.7376H62.9585V82.1737C62.9585 82.9185 63.5622 83.5224 64.3071 83.5224C65.0521 83.5224 65.6558 82.9185 65.6558 82.1737V66.7378H81.0919C81.8369 66.7378 82.4405 66.1339 82.4405 65.3891C82.4405 64.6443 81.837 64.0403 81.092 64.0403Z" fill="#CE8A28"/>
</g>
<defs>
<clipPath id="clip0_1564_172">
<rect width="73" height="73" fill="white" transform="translate(40 34.8098)"/>
</clipPath>
</defs>
</svg>
