<svg width="128" height="128" viewBox="0 0 128 128" fill="none" xmlns="http://www.w3.org/2000/svg">
<g clip-path="url(#clip0_1564_64)">
<path d="M200.974 59.6978L190.39 51.5029L176.898 23.8528C173.956 17.8241 167.835 14 161.126 14H92.906C87.0882 14 81.7188 17.1247 78.8449 22.183L62.5111 50.9301C46.558 51.361 31.3619 61.7526 31.3619 61.7526C25.5666 64.336 25.1201 71.8539 25.1201 78.1992C25.1201 79.7503 25.36 81.008 23.8088 81.008C22.2577 81.008 21 82.2657 21 83.8168V93.848C21 95.3991 22.2573 96.6568 23.8088 96.6568H193.519C200.244 96.6568 205.695 91.2052 205.695 84.4808V69.3251C205.695 65.5582 203.952 62.0037 200.974 59.6978Z" fill="#237BFF"/>
<path d="M40.4448 93.5621C40.4448 79.4496 51.8853 68.0092 65.9978 68.0092C80.1103 68.0092 91.5507 79.4496 91.5507 93.5621V96.6568H40.4448V93.5621ZM134.03 96.6568H185.136V93.5621C185.136 79.4496 173.696 68.0092 159.583 68.0092C145.471 68.0092 134.03 79.4496 134.03 93.5621V96.6568Z" fill="#1D55A8"/>
<path d="M87.1879 94.1241C87.1879 105.542 77.9321 114.797 66.5145 114.797C55.0968 114.797 45.8411 105.542 45.8411 94.1241C45.8411 82.7064 55.0968 73.4507 66.5145 73.4507C77.9321 73.4507 87.1879 82.7064 87.1879 94.1241ZM160.1 73.4507C148.682 73.4507 139.427 82.7064 139.427 94.1241C139.427 105.542 148.682 114.797 160.1 114.797C171.518 114.797 180.774 105.542 180.774 94.1241C180.774 82.7064 171.518 73.4507 160.1 73.4507Z" fill="#2B3B47"/>
<path d="M80.0646 94.1241C80.0646 101.608 73.9979 107.674 66.5143 107.674C59.0308 107.674 52.9641 101.608 52.9641 94.1241C52.9641 86.6405 59.0308 80.5738 66.5143 80.5738C73.9979 80.5738 80.0646 86.6409 80.0646 94.1241ZM160.1 80.5742C152.616 80.5742 146.55 86.6409 146.55 94.1244C146.55 101.608 152.616 107.675 160.1 107.675C167.584 107.675 173.65 101.608 173.65 94.1244C173.65 86.6409 167.584 80.5742 160.1 80.5742Z" fill="#9BA5A8"/>
<path d="M80.1674 48.1043L174.36 48.3687C176.289 48.3742 177.554 46.3545 176.708 44.621L169.268 29.3746C167.344 25.4321 163.267 22.8849 158.88 22.8849H95.9537C92.2906 22.8849 88.9097 24.8525 87.1002 28.0373L77.9096 44.2125C76.9244 45.946 78.173 48.0988 80.1674 48.1043Z" fill="white"/>
<path d="M71.2613 94.1241C71.2613 96.7455 69.1363 98.8705 66.5149 98.8705C63.8935 98.8705 61.7686 96.7455 61.7686 94.1241C61.7686 91.5027 63.8935 89.3777 66.5149 89.3777C69.1363 89.3777 71.2613 91.5027 71.2613 94.1241ZM160.1 89.3777C157.479 89.3777 155.354 91.5027 155.354 94.1241C155.354 96.7455 157.479 98.8705 160.1 98.8705C162.722 98.8705 164.847 96.7455 164.847 94.1241C164.847 91.5027 162.722 89.3777 160.1 89.3777Z" fill="#E5E4DF"/>
<path d="M205.667 80.2909H202.878C199.864 80.2909 197.983 77.8475 197.983 74.8335C197.983 71.8195 199.864 69.3762 202.878 69.3762H205.667V80.2909ZM25.0267 79.5419H28.1901C31.2041 79.5419 33.0848 77.0985 33.0848 74.0846C33.0848 71.0706 31.2041 68.6272 28.1901 68.6272H26.051C24.8989 70.8625 25.0267 79.5419 25.0267 79.5419Z" fill="#FFD469"/>
<path d="M95.3892 41.9284V48.9687C95.3892 51.0296 92.546 52.2425 90.4507 51.0788C88.9875 50.2662 87.5029 49.2849 86.4656 48.2172L79.3551 48.2099C77.4902 48.2071 76.3563 46.1548 77.3459 44.5744L84.464 32.6776L87.4924 41.8441C88.3608 41.128 89.3743 40.4547 90.3816 39.8587C92.4642 38.6256 95.3892 39.8356 95.3892 41.9284ZM176.118 48.3478C177.69 48.3431 178.714 46.695 178.021 45.2843L168.094 25.0443C167.483 23.8 166.218 23.0116 164.833 23.0116H160.1V48.3948L176.118 48.3478Z" fill="#2B3B47"/>
<rect x="29.377" y="25.1959" width="45.9475" height="5.78915" rx="2.89458" transform="rotate(33.6048 29.377 25.1959)" fill="#237BFF"/>
</g>
<defs>
<clipPath id="clip0_1564_64">
<rect width="128" height="128" fill="white"/>
</clipPath>
</defs>
</svg>
