<svg width="128" height="128" viewBox="0 0 128 128" fill="none" xmlns="http://www.w3.org/2000/svg">
<path d="M124.657 79.765L117.344 74.1028L108.022 54.998C105.989 50.8325 101.76 48.1902 97.1247 48.1902H49.9879C45.9682 48.1902 42.2582 50.3492 40.2724 53.8442L28.9867 73.707C17.9639 74.0048 7.46419 81.1848 7.46419 81.1848C3.45994 82.9698 3.15144 88.1643 3.15144 92.5485C3.15144 93.6203 3.31719 94.4893 2.24544 94.4893C1.17369 94.4893 0.304688 95.3583 0.304688 96.43V103.361C0.304688 104.433 1.17344 105.302 2.24544 105.302H119.506C124.153 105.302 127.919 101.535 127.919 96.8888V86.417C127.919 83.8143 126.715 81.3583 124.657 79.765Z" fill="#6CCB76"/>
<path d="M13.74 103.163C13.74 93.4125 21.6447 85.5078 31.3957 85.5078C41.1467 85.5078 49.0515 93.4125 49.0515 103.163V105.302H13.74V103.163ZM78.4027 105.302H113.714V103.163C113.714 93.4125 105.809 85.5078 96.0585 85.5078C86.3075 85.5078 78.4027 93.4125 78.4027 103.163V105.302Z" fill="#418B27"/>
<path d="M46.037 103.552C46.037 111.441 39.6418 117.836 31.7528 117.836C23.8638 117.836 17.4685 111.441 17.4685 103.552C17.4685 95.6628 23.8638 89.2675 31.7528 89.2675C39.6418 89.2675 46.037 95.6628 46.037 103.552ZM96.4155 89.2675C88.5265 89.2675 82.1313 95.6628 82.1313 103.552C82.1313 111.441 88.5265 117.836 96.4155 117.836C104.305 117.836 110.7 111.441 110.7 103.552C110.7 95.6628 104.305 89.2675 96.4155 89.2675Z" fill="#2B3B47"/>
<path d="M41.1151 103.552C41.1151 108.722 36.9234 112.914 31.7526 112.914C26.5819 112.914 22.3901 108.722 22.3901 103.552C22.3901 98.381 26.5819 94.1892 31.7526 94.1892C36.9234 94.1892 41.1151 98.3812 41.1151 103.552ZM96.4154 94.1895C91.2446 94.1895 87.0529 98.3812 87.0529 103.552C87.0529 108.723 91.2446 112.914 96.4154 112.914C101.586 112.914 105.778 108.723 105.778 103.552C105.778 98.3812 101.586 94.1895 96.4154 94.1895Z" fill="#9BA5A8"/>
<path d="M41.1863 71.7545L106.268 71.9372C107.601 71.941 108.476 70.5455 107.891 69.3477L102.75 58.8133C101.421 56.0893 98.6036 54.3293 95.5726 54.3293H52.0938C49.5628 54.3293 47.2268 55.6888 45.9766 57.8893L39.6263 69.0655C38.9456 70.2632 39.8083 71.7507 41.1863 71.7545Z" fill="white"/>
<path d="M83.6415 50.0157H76.6575V75.4132H83.6415V50.0157Z" fill="#6CCB76"/>
<path d="M35.0326 103.552C35.0326 105.363 33.5644 106.831 31.7531 106.831C29.9419 106.831 28.4736 105.363 28.4736 103.552C28.4736 101.741 29.9419 100.272 31.7531 100.272C33.5644 100.272 35.0326 101.741 35.0326 103.552ZM96.4156 100.272C94.6044 100.272 93.1361 101.741 93.1361 103.552C93.1361 105.363 94.6044 106.831 96.4156 106.831C98.2269 106.831 99.6951 105.363 99.6951 103.552C99.6954 101.741 98.2269 100.272 96.4156 100.272Z" fill="#E5E4DF"/>
<path d="M127.9 93.9938H125.973C123.89 93.9938 122.591 92.3055 122.591 90.223C122.591 88.1405 123.89 86.4522 125.973 86.4522H127.9V93.9938ZM3.08689 93.4762H5.27264C7.35514 93.4762 8.65464 91.788 8.65464 89.7055C8.65464 87.623 7.35514 85.9348 5.27264 85.9348H3.79464C2.99864 87.4793 3.08689 93.4762 3.08689 93.4762Z" fill="#FFD469"/>
<path d="M51.7037 67.4873V72.3518C51.7037 73.7758 49.7392 74.6138 48.2914 73.8098C47.2804 73.2483 46.2547 72.5703 45.5379 71.8325L40.6249 71.8275C39.3364 71.8255 38.5529 70.4075 39.2367 69.3155L44.1549 61.0955L46.2474 67.429C46.8474 66.9343 47.5477 66.469 48.2437 66.0573C49.6827 65.2053 51.7037 66.0413 51.7037 67.4873ZM107.483 71.9228C108.569 71.9195 109.276 70.7808 108.798 69.806L101.939 55.8212C101.517 54.9615 100.643 54.4167 99.6854 54.4167H96.4154V71.9553L107.483 71.9228Z" fill="#2B3B47"/>
<path d="M70.9982 31.5773C71.0511 35.8282 72.7904 39.8841 75.8336 42.8526C78.8768 45.8211 82.9745 47.4592 87.2254 47.4065C89.3303 47.3804 91.4095 46.94 93.3442 46.1104C95.2789 45.2808 97.0313 44.0783 98.5012 42.5714C99.9712 41.0646 101.13 39.283 101.911 37.3283C102.693 35.3736 103.082 33.2841 103.055 31.1792C103.029 29.0743 102.589 26.9952 101.759 25.0605C100.929 23.1259 99.7267 21.3736 98.2198 19.9037C96.7128 18.4338 94.9312 17.2751 92.9764 16.4938C91.0217 15.7125 88.9323 15.3239 86.8274 15.3501C82.5765 15.403 78.5206 17.1423 75.5521 20.1855C72.5836 23.2287 70.9455 27.3264 70.9982 31.5773V31.5773ZM88.4385 31.3607C88.4293 30.6191 88.5662 29.8828 88.8415 29.1941C89.1168 28.5053 89.5251 27.8775 90.043 27.3466C90.5609 26.8156 91.1784 26.3919 91.8601 26.0996C92.5418 25.8073 93.2744 25.6521 94.0161 25.6429C95.5138 25.6245 96.9575 26.2017 98.0296 27.2477C99.1017 28.2937 99.7144 29.7228 99.7329 31.2205C99.7516 32.7182 99.1746 34.162 98.1288 35.2343C97.083 36.3066 95.654 36.9195 94.1563 36.9383C93.4146 36.9475 92.6784 36.8106 91.9897 36.5353C91.3009 36.26 90.6731 35.8517 90.1422 35.3338C89.6112 34.8159 89.1875 34.1984 88.8952 33.5167C88.6029 32.835 88.4477 32.1024 88.4385 31.3607Z" fill="#F4A100"/>
<path d="M68.7245 41.6838L74.1822 41.6161L73.9492 22.8472L66.4067 22.9408L66.4696 39.837L68.7245 41.6838Z" fill="#F4A100"/>
<path d="M68.8544 30.0537C68.9073 34.3046 70.6466 38.3605 73.6898 41.329C76.733 44.2975 80.8307 45.9356 85.0816 45.8829C87.1865 45.8568 89.2657 45.4164 91.2004 44.5868C93.1351 43.7572 94.8875 42.5547 96.3574 41.0479C97.8274 39.541 98.9862 37.7594 99.7676 35.8047C100.549 33.8501 100.938 31.7606 100.912 29.6557C100.885 27.5508 100.445 25.4716 99.6153 23.537C98.7855 21.6023 97.5829 19.85 96.076 18.3801C94.569 16.9103 92.7874 15.7516 90.8326 14.9703C88.8779 14.189 86.7885 13.8004 84.6835 13.8266C80.4326 13.8794 76.3768 15.6188 73.4083 18.6619C70.4398 21.7051 68.8017 25.8028 68.8544 30.0537V30.0537ZM86.2947 29.8372C86.2855 29.0955 86.4224 28.3593 86.6977 27.6705C86.973 26.9818 87.3813 26.354 87.8992 25.8231C88.4171 25.2921 89.0346 24.8684 89.7163 24.5761C90.398 24.2838 91.1306 24.1286 91.8723 24.1194C93.37 24.101 94.8137 24.6782 95.8858 25.7242C96.9579 26.7702 97.5706 28.1992 97.5891 29.6969C97.6078 31.1946 97.0308 32.6385 95.985 33.7107C94.9392 34.783 93.5102 35.396 92.0125 35.4147C91.2708 35.424 90.5346 35.287 89.8459 35.0117C89.1571 34.7364 88.5293 34.3282 87.9984 33.8102C87.4674 33.2923 87.0437 32.6749 86.7514 31.9932C86.4591 31.3115 86.3039 30.5788 86.2947 29.8372V29.8372Z" fill="#FFBF3E"/>
<path d="M37.7665 38.4426L40.228 38.412L43.2936 38.374L46.8358 34.2749L50.9957 38.2783L53.6206 38.2457L55.4705 35.545L58.1245 38.1898L67.1433 38.0778L72.4697 38.0117L72.3091 25.0747L37.6059 25.5057L29.9366 33.0048L37.7665 38.4426Z" fill="#F4A100"/>
<path d="M66.2503 21.0324L66.4834 39.8015L75.6188 39.688L75.3857 20.9189L66.2503 21.0324Z" fill="#FFBF3E"/>
<path d="M36.0245 37.2536L38.5574 37.2222L41.7121 37.183L45.3586 33.0826L49.6379 37.0846L52.3389 37.051L54.2436 34.3496L56.9737 36.9935L66.2543 36.8782L67.4193 36.8638L67.376 23.9254L35.8638 24.3167L27.9691 31.8186L36.0245 37.2536Z" fill="#FFBF3E"/>
</svg>
