<svg width="128" height="128" viewBox="0 0 128 128" fill="none" xmlns="http://www.w3.org/2000/svg">
<path d="M124.657 51.5748L117.344 45.9125L108.022 26.8078C105.989 22.6423 101.76 20 97.1247 20H49.9879C45.9682 20 42.2582 22.159 40.2724 25.654L28.9867 45.5168C17.9639 45.8145 7.46419 52.9945 7.46419 52.9945C3.45994 54.7795 3.15144 59.974 3.15144 64.3583C3.15144 65.43 3.31719 66.299 2.24544 66.299C1.17369 66.299 0.304688 67.168 0.304688 68.2398V75.1708C0.304688 76.2425 1.17344 77.1115 2.24544 77.1115H119.506C124.153 77.1115 127.919 73.3448 127.919 68.6985V58.2268C127.919 55.624 126.715 53.168 124.657 51.5748Z" fill="#237BFF"/>
<path d="M13.7402 74.9733C13.7402 65.2223 21.645 57.3175 31.396 57.3175C41.147 57.3175 49.0517 65.2223 49.0517 74.9733V77.1115H13.7402V74.9733ZM78.403 77.1115H113.714V74.9733C113.714 65.2223 105.81 57.3175 96.0587 57.3175C86.3077 57.3175 78.403 65.2223 78.403 74.9733V77.1115Z" fill="#1D55A8"/>
<path d="M46.0372 75.3615C46.0372 83.2505 39.642 89.6458 31.753 89.6458C23.864 89.6458 17.4688 83.2505 17.4688 75.3615C17.4688 67.4725 23.864 61.0773 31.753 61.0773C39.642 61.0773 46.0372 67.4725 46.0372 75.3615ZM96.4157 61.0773C88.5267 61.0773 82.1315 67.4725 82.1315 75.3615C82.1315 83.2505 88.5267 89.6458 96.4157 89.6458C104.305 89.6458 110.7 83.2505 110.7 75.3615C110.7 67.4725 104.305 61.0773 96.4157 61.0773Z" fill="#2B3B47"/>
<path d="M41.1151 75.3615C41.1151 80.5322 36.9234 84.724 31.7526 84.724C26.5819 84.724 22.3901 80.5322 22.3901 75.3615C22.3901 70.1907 26.5819 65.999 31.7526 65.999C36.9234 65.999 41.1151 70.191 41.1151 75.3615ZM96.4154 65.9992C91.2446 65.9992 87.0529 70.191 87.0529 75.3617C87.0529 80.5325 91.2446 84.7242 96.4154 84.7242C101.586 84.7242 105.778 80.5325 105.778 75.3617C105.778 70.191 101.586 65.9992 96.4154 65.9992Z" fill="#9BA5A8"/>
<path d="M41.1863 43.5642L106.268 43.747C107.601 43.7507 108.476 42.3552 107.891 41.1575L102.75 30.623C101.421 27.899 98.6036 26.139 95.5726 26.139H52.0938C49.5628 26.139 47.2268 27.4985 45.9766 29.699L39.6263 40.8752C38.9456 42.073 39.8083 43.5605 41.1863 43.5642Z" fill="white"/>
<path d="M83.6412 21.8255H76.6572V47.223H83.6412V21.8255Z" fill="#237BFF"/>
<path d="M35.0326 75.3615C35.0326 77.1728 33.5644 78.641 31.7531 78.641C29.9419 78.641 28.4736 77.1728 28.4736 75.3615C28.4736 73.5503 29.9419 72.082 31.7531 72.082C33.5644 72.082 35.0326 73.5503 35.0326 75.3615ZM96.4156 72.082C94.6044 72.082 93.1361 73.5503 93.1361 75.3615C93.1361 77.1728 94.6044 78.641 96.4156 78.641C98.2269 78.641 99.6951 77.1728 99.6951 75.3615C99.6954 73.5503 98.2269 72.082 96.4156 72.082Z" fill="#E5E4DF"/>
<path d="M127.9 65.8035H125.973C123.89 65.8035 122.591 64.1153 122.591 62.0328C122.591 59.9503 123.89 58.262 125.973 58.262H127.9V65.8035ZM3.08689 65.286H5.27264C7.35514 65.286 8.65464 63.5978 8.65464 61.5153C8.65464 59.4328 7.35514 57.7445 5.27264 57.7445H3.79464C2.99864 59.289 3.08689 65.286 3.08689 65.286Z" fill="#FFD469"/>
<path d="M51.7037 39.297V44.1615C51.7037 45.5855 49.7392 46.4235 48.2914 45.6195C47.2804 45.058 46.2547 44.38 45.5379 43.6423L40.6249 43.6373C39.3364 43.6353 38.5529 42.2173 39.2367 41.1253L44.1549 32.9053L46.2474 39.2388C46.8474 38.744 47.5477 38.2788 48.2437 37.867C49.6827 37.015 51.7037 37.851 51.7037 39.297ZM107.483 43.7325C108.569 43.7293 109.276 42.5905 108.798 41.6158L101.939 27.631C101.517 26.7713 100.643 26.2265 99.6854 26.2265H96.4154V43.765L107.483 43.7325Z" fill="#2B3B47"/>
<path d="M108.242 100.156C107.519 93.9717 104.949 89.715 104.788 89.3937L101.736 91.3213C101.736 91.4016 103.905 94.9354 104.628 100.156H108.242Z" fill="#324A5E"/>
<path d="M39.2512 40.8031L39.0103 42.811C38.93 43.2929 39.3315 43.6945 39.8134 43.6945L53.9489 44.337C55.4749 44.4173 57.0008 44.8189 58.3662 45.4614L68.4056 50.4409L70.5741 46.2646L59.1693 41.6063C58.0449 41.1244 56.7599 40.8835 55.5552 40.8031L40.1347 40C39.7331 40 39.3315 40.3213 39.2512 40.8031Z" fill="white"/>
<path d="M45.7568 40.3213V43.9354L46.8009 44.0157V40.4016L45.7568 40.3213Z" fill="#E6E9EE"/>
<path d="M49.2104 40.4819V44.0961L50.0939 44.1764V40.5622L49.2104 40.4819Z" fill="#E6E9EE"/>
<path d="M51.6196 40.6425V44.2567H52.6637V40.6425H51.6196Z" fill="#E6E9EE"/>
<path d="M77.7219 47.7905L70.7345 45.7024C70.4936 45.622 70.1723 45.7024 70.0117 45.9433L66.6385 50.2803C66.3975 50.6016 66.4778 51.0835 66.8794 51.2441L70.9755 53.252L77.7219 47.7905Z" fill="#F1543F"/>
<path d="M85.9943 85.6992L84.147 70.0378C84.0667 69.4756 83.6651 68.9134 83.1029 68.7527L82.9423 68.6724L76.6777 66.5842C76.5974 66.5842 76.4368 66.5039 76.3565 66.5039C75.1518 66.263 74.0273 67.0661 73.7864 68.2709C73.5455 69.4756 74.3486 70.6 75.5533 70.8409L81.0147 71.885L84.0667 86.1008C84.147 86.5827 84.6289 86.9842 85.1911 86.9039C85.673 86.7433 86.0746 86.2614 85.9943 85.6992Z" fill="white"/>
<path d="M97.2386 82.8882L84.4685 88.9118C82.541 89.7953 80.2922 88.9118 79.489 86.9843L71.2969 66.4236L80.1315 65.8614L77.8024 68.9134C76.5977 70.5197 76.3567 72.6882 77.3205 74.5354L82.2197 83.9323C82.6213 84.6551 83.5048 84.8961 84.1473 84.4945L95.4717 77.6677L97.2386 82.8882Z" fill="#324A5E"/>
<path d="M81.0152 47.3086L91.4561 57.1071C91.938 57.589 92.179 58.3118 91.938 58.9543L90.412 63.2913L86.5569 65.5401L72.1002 67.789C71.297 67.8693 70.5742 67.548 70.253 66.8252L67.8435 61.7653C67.6829 61.4441 67.6026 61.1228 67.6829 60.8016L68.5663 53.8945C68.6467 53.3323 68.9679 52.8504 69.4498 52.6094L79.0073 47.148C79.6498 46.6661 80.453 46.8268 81.0152 47.3086Z" fill="#FF7058"/>
<path d="M90.3316 61.5244L102.78 84.9764L98.6844 87.3858L85.834 65.0582L90.3316 61.5244Z" fill="#FF7058"/>
<path d="M99.4874 92.1244L97.6402 88.9921C97.2386 88.3496 97.4795 87.5464 98.1221 87.1449L102.62 84.4945C103.262 84.0929 104.065 84.3339 104.467 84.9764L106.314 88.1087C106.716 88.7512 106.475 89.5543 105.832 89.9559L101.335 92.6063C100.692 93.0079 99.8087 92.7669 99.4874 92.1244Z" fill="white"/>
</svg>
