<svg width="128" height="128" viewBox="0 0 128 128" fill="none" xmlns="http://www.w3.org/2000/svg">
<path d="M124.657 51.5748L117.344 45.9125L108.022 26.8078C105.989 22.6423 101.76 20 97.1247 20H49.9879C45.9682 20 42.2582 22.159 40.2724 25.654L28.9867 45.5168C17.9639 45.8145 7.46419 52.9945 7.46419 52.9945C3.45994 54.7795 3.15144 59.974 3.15144 64.3583C3.15144 65.43 3.31719 66.299 2.24544 66.299C1.17369 66.299 0.304688 67.168 0.304688 68.2398V75.1708C0.304688 76.2425 1.17344 77.1115 2.24544 77.1115H119.506C124.153 77.1115 127.919 73.3448 127.919 68.6985V58.2268C127.919 55.624 126.715 53.168 124.657 51.5748Z" fill="#237BFF"/>
<path d="M13.74 74.9733C13.74 65.2223 21.6447 57.3175 31.3957 57.3175C41.1467 57.3175 49.0515 65.2223 49.0515 74.9733V77.1115H13.74V74.9733ZM78.4027 77.1115H113.714V74.9733C113.714 65.2223 105.809 57.3175 96.0585 57.3175C86.3075 57.3175 78.4027 65.2223 78.4027 74.9733V77.1115Z" fill="#1D55A8"/>
<path d="M46.037 75.3615C46.037 83.2505 39.6418 89.6458 31.7528 89.6458C23.8638 89.6458 17.4685 83.2505 17.4685 75.3615C17.4685 67.4725 23.8638 61.0773 31.7528 61.0773C39.6418 61.0773 46.037 67.4725 46.037 75.3615ZM96.4155 61.0773C88.5265 61.0773 82.1313 67.4725 82.1313 75.3615C82.1313 83.2505 88.5265 89.6458 96.4155 89.6458C104.305 89.6458 110.7 83.2505 110.7 75.3615C110.7 67.4725 104.305 61.0773 96.4155 61.0773Z" fill="#2B3B47"/>
<path d="M41.1151 75.3615C41.1151 80.5322 36.9234 84.724 31.7526 84.724C26.5819 84.724 22.3901 80.5322 22.3901 75.3615C22.3901 70.1907 26.5819 65.999 31.7526 65.999C36.9234 65.999 41.1151 70.191 41.1151 75.3615ZM96.4154 65.9992C91.2446 65.9992 87.0529 70.191 87.0529 75.3617C87.0529 80.5325 91.2446 84.7242 96.4154 84.7242C101.586 84.7242 105.778 80.5325 105.778 75.3617C105.778 70.191 101.586 65.9992 96.4154 65.9992Z" fill="#9BA5A8"/>
<path d="M41.1863 43.5642L106.268 43.747C107.601 43.7507 108.476 42.3552 107.891 41.1575L102.75 30.623C101.421 27.899 98.6036 26.139 95.5726 26.139H52.0938C49.5628 26.139 47.2268 27.4985 45.9766 29.699L39.6263 40.8752C38.9456 42.073 39.8083 43.5605 41.1863 43.5642Z" fill="white"/>
<path d="M83.6415 21.8255H76.6575V47.223H83.6415V21.8255Z" fill="#237BFF"/>
<path d="M35.0326 75.3615C35.0326 77.1728 33.5644 78.641 31.7531 78.641C29.9419 78.641 28.4736 77.1728 28.4736 75.3615C28.4736 73.5503 29.9419 72.082 31.7531 72.082C33.5644 72.082 35.0326 73.5503 35.0326 75.3615ZM96.4156 72.082C94.6044 72.082 93.1361 73.5503 93.1361 75.3615C93.1361 77.1728 94.6044 78.641 96.4156 78.641C98.2269 78.641 99.6951 77.1728 99.6951 75.3615C99.6954 73.5503 98.2269 72.082 96.4156 72.082Z" fill="#E5E4DF"/>
<path d="M127.9 65.8035H125.973C123.89 65.8035 122.591 64.1153 122.591 62.0328C122.591 59.9503 123.89 58.262 125.973 58.262H127.9V65.8035ZM3.08689 65.286H5.27264C7.35514 65.286 8.65464 63.5978 8.65464 61.5153C8.65464 59.4328 7.35514 57.7445 5.27264 57.7445H3.79464C2.99864 59.289 3.08689 65.286 3.08689 65.286Z" fill="#FFD469"/>
<path d="M51.7037 39.297V44.1615C51.7037 45.5855 49.7392 46.4235 48.2914 45.6195C47.2804 45.058 46.2547 44.38 45.5379 43.6423L40.6249 43.6373C39.3364 43.6353 38.5529 42.2173 39.2367 41.1253L44.1549 32.9053L46.2474 39.2388C46.8474 38.744 47.5477 38.2788 48.2437 37.867C49.6827 37.015 51.7037 37.851 51.7037 39.297ZM107.483 43.7325C108.569 43.7293 109.276 42.5905 108.798 41.6158L101.939 27.631C101.517 26.7713 100.643 26.2265 99.6854 26.2265H96.4154V43.765L107.483 43.7325Z" fill="#2B3B47"/>
<path d="M106.558 42.1642L103.693 38.54L98.5021 37.9323L97.8944 43.1233L100.759 46.7477L84.8853 59.2945L77.8682 62.4855L80.4639 62.7892L76.1148 66.2268C74.914 67.1759 74.7098 68.9191 75.659 70.12C76.6083 71.321 78.3515 71.5249 79.5523 70.5758L105.647 49.9506C108.048 48.0523 108.457 44.5662 106.558 42.1642Z" fill="#616F6D"/>
<path d="M101.974 36.3656C99.4431 33.163 94.795 32.6189 91.5923 35.1502L97.8945 43.1235L103.693 38.5401L101.974 36.3656Z" fill="#889391"/>
<path d="M98.7019 53.0845C96.8033 50.6825 94.1185 47.2858 94.1185 47.2858L85.49 42.3291L49.22 75.7079C49.8527 76.5084 49.7167 77.6705 48.9162 78.3034C48.1157 78.9361 46.9535 78.8001 46.3206 77.9996L43.7253 77.6958L43.4214 80.2913C45.32 82.6933 48.8061 83.1014 51.2078 81.2028L73.823 63.3276L79.014 63.9353L87.7121 57.0604L90.0038 59.9598C91.9024 62.3618 95.3885 62.7699 97.7904 60.8713C100.192 58.9727 100.6 55.4866 98.7019 53.0845Z" fill="#F63341"/>
<path d="M46.6245 75.4041C47.425 74.7714 48.5872 74.9074 49.2201 75.7079L89.2312 44.0828L84.344 40.8796L44.3328 72.5047C41.9308 74.4033 41.5227 77.8894 43.4213 80.2913L46.3207 77.9996C45.6878 77.1989 45.8239 76.0368 46.6245 75.4041Z" fill="#F85C67"/>
<path d="M91.2183 49.5771L94.1177 47.2854L90.6803 42.9365L87.7809 45.2282L91.2183 49.5771Z" fill="#616F6D"/>
<path d="M84.3438 40.8795L87.7812 45.2284L90.6806 42.9368L87.2431 38.5878L84.3438 40.8795Z" fill="#889391"/>
<path d="M79.6217 58.7442L86.4969 67.4423L89.3961 65.1506L87.4084 59.6558L82.5211 56.4525L79.6217 58.7442Z" fill="#263230"/>
<path d="M89.3963 65.1507L92.2957 62.859L85.4207 54.1611L82.5214 56.4527L89.3963 65.1507Z" fill="#394B48"/>
</svg>
