<svg width="128" height="128" viewBox="0 0 128 128" fill="none" xmlns="http://www.w3.org/2000/svg">
<path d="M124.657 51.5748L117.344 45.9125L108.022 26.8078C105.989 22.6423 101.76 20 97.1247 20H49.9879C45.9682 20 42.2582 22.159 40.2724 25.654L28.9867 45.5168C17.9639 45.8145 7.46419 52.9945 7.46419 52.9945C3.45994 54.7795 3.15144 59.974 3.15144 64.3583C3.15144 65.43 3.31719 66.299 2.24544 66.299C1.17369 66.299 0.304688 67.168 0.304688 68.2398V75.1708C0.304688 76.2425 1.17344 77.1115 2.24544 77.1115H119.506C124.153 77.1115 127.919 73.3448 127.919 68.6985V58.2268C127.919 55.624 126.715 53.168 124.657 51.5748Z" fill="#237BFF"/>
<path d="M13.7402 74.9733C13.7402 65.2223 21.645 57.3175 31.396 57.3175C41.147 57.3175 49.0517 65.2223 49.0517 74.9733V77.1115H13.7402V74.9733ZM78.403 77.1115H113.714V74.9733C113.714 65.2223 105.81 57.3175 96.0587 57.3175C86.3077 57.3175 78.403 65.2223 78.403 74.9733V77.1115Z" fill="#1D55A8"/>
<path d="M46.0372 75.3615C46.0372 83.2505 39.642 89.6458 31.753 89.6458C23.864 89.6458 17.4688 83.2505 17.4688 75.3615C17.4688 67.4725 23.864 61.0773 31.753 61.0773C39.642 61.0773 46.0372 67.4725 46.0372 75.3615ZM96.4157 61.0773C88.5267 61.0773 82.1315 67.4725 82.1315 75.3615C82.1315 83.2505 88.5267 89.6458 96.4157 89.6458C104.305 89.6458 110.7 83.2505 110.7 75.3615C110.7 67.4725 104.305 61.0773 96.4157 61.0773Z" fill="#2B3B47"/>
<path d="M41.1151 75.3615C41.1151 80.5322 36.9234 84.724 31.7526 84.724C26.5819 84.724 22.3901 80.5322 22.3901 75.3615C22.3901 70.1907 26.5819 65.999 31.7526 65.999C36.9234 65.999 41.1151 70.191 41.1151 75.3615ZM96.4154 65.9992C91.2446 65.9992 87.0529 70.191 87.0529 75.3617C87.0529 80.5325 91.2446 84.7242 96.4154 84.7242C101.586 84.7242 105.778 80.5325 105.778 75.3617C105.778 70.191 101.586 65.9992 96.4154 65.9992Z" fill="#9BA5A8"/>
<path d="M41.1863 43.5642L106.268 43.747C107.601 43.7507 108.476 42.3552 107.891 41.1575L102.75 30.623C101.421 27.899 98.6036 26.139 95.5726 26.139H52.0938C49.5628 26.139 47.2268 27.4985 45.9766 29.699L39.6263 40.8752C38.9456 42.073 39.8083 43.5605 41.1863 43.5642Z" fill="white"/>
<path d="M83.6412 21.8255H76.6572V47.223H83.6412V21.8255Z" fill="#237BFF"/>
<path d="M35.0326 75.3615C35.0326 77.1728 33.5644 78.641 31.7531 78.641C29.9419 78.641 28.4736 77.1728 28.4736 75.3615C28.4736 73.5503 29.9419 72.082 31.7531 72.082C33.5644 72.082 35.0326 73.5503 35.0326 75.3615ZM96.4156 72.082C94.6044 72.082 93.1361 73.5503 93.1361 75.3615C93.1361 77.1728 94.6044 78.641 96.4156 78.641C98.2269 78.641 99.6951 77.1728 99.6951 75.3615C99.6954 73.5503 98.2269 72.082 96.4156 72.082Z" fill="#E5E4DF"/>
<path d="M127.9 65.8035H125.973C123.89 65.8035 122.591 64.1153 122.591 62.0328C122.591 59.9503 123.89 58.262 125.973 58.262H127.9V65.8035ZM3.08689 65.286H5.27264C7.35514 65.286 8.65464 63.5978 8.65464 61.5153C8.65464 59.4328 7.35514 57.7445 5.27264 57.7445H3.79464C2.99864 59.289 3.08689 65.286 3.08689 65.286Z" fill="#FFD469"/>
<path d="M98.0941 61.3885H93.8025V53.8716C93.8025 45.2809 86.8132 38.2916 78.2223 38.2916H75.7774C67.1866 38.2916 60.1974 45.2809 60.1974 53.8716V61.3885H55.9058V53.8716C55.9058 42.9144 64.8201 34 75.7774 34H78.2223C89.1796 34 98.0941 42.9144 98.0941 53.8718V61.3885Z" fill="#45B7EF"/>
<path d="M78.2224 34H77V38.2916H78.2224C86.8132 38.2916 93.8026 45.2809 93.8026 53.8716V61.3885H98.0942V53.8716C98.0942 42.9144 89.1799 34 78.2224 34Z" fill="#2FA1DB"/>
<path d="M98.4584 54.2364V64.2492H96.3137V90H57.6867V64.2492H55.542V54.2364H98.4584Z" fill="#FC8E8E"/>
<path d="M77 54.2364V90H96.3135V64.2492H98.4582V54.2364H77Z" fill="#D26767"/>
<path d="M76.9999 54.2364H66.5903V57.0965C66.5903 59.0691 68.2028 60.6816 70.1755 60.6816C72.1481 60.6816 73.7606 59.0691 73.7606 57.0965V62.8327C73.7606 64.7468 75.2791 66.3217 77.1714 66.4134C77.2292 66.4162 77.2872 66.4178 77.3457 66.4178C79.3183 66.4178 80.9308 64.8053 80.9308 62.8327V59.9646C80.9308 61.9372 82.5434 63.5497 84.516 63.5497C86.4886 63.5497 88.1011 61.9372 88.1011 59.9646V65.7008C88.1011 67.6734 89.7136 69.2859 91.6862 69.2859C93.6588 69.2859 95.2714 67.6734 95.2714 65.7008V54.2364H76.9999Z" fill="#E9D94F"/>
<path d="M77 54.2364V66.4008C77.1139 66.4118 77.2291 66.4178 77.3458 66.4178C79.3184 66.4178 80.9309 64.8053 80.9309 62.8327V59.9646C80.9309 61.9372 82.5434 63.5497 84.516 63.5497C86.4886 63.5497 88.1011 61.9372 88.1011 59.9646V65.7008C88.1011 67.6734 89.7137 69.2859 91.6863 69.2859C93.6589 69.2859 95.2714 67.6734 95.2714 65.7008V54.2364H77Z" fill="#FFEF60"/>
<path d="M77 70.8793H64.2529V82.0331H77H89.7472V70.8793H77Z" fill="#45B7EF"/>
<path d="M89.7471 70.8793H77V82.0331H89.7471V70.8793Z" fill="#2FA1DB"/>
<path d="M51.7037 39.297V44.1615C51.7037 45.5855 49.7392 46.4235 48.2914 45.6195C47.2804 45.058 46.2547 44.38 45.5379 43.6423L40.6249 43.6373C39.3364 43.6353 38.5529 42.2173 39.2367 41.1253L44.1549 32.9053L46.2474 39.2388C46.8474 38.744 47.5477 38.2788 48.2437 37.867C49.6827 37.015 51.7037 37.851 51.7037 39.297ZM107.483 43.7325C108.569 43.7293 109.276 42.5905 108.798 41.6158L101.939 27.631C101.517 26.7713 100.643 26.2265 99.6854 26.2265H96.4154V43.765L107.483 43.7325Z" fill="#2B3B47"/>
</svg>
