<svg width="128" height="128" viewBox="0 0 128 128" fill="none" xmlns="http://www.w3.org/2000/svg">
<path d="M67.1999 74.1845C66.8775 74.1845 66.6162 74.4458 66.6162 74.7682V76.3642H57.8323V74.7682C57.8323 74.4458 57.571 74.1845 57.2486 74.1845H55.6891C55.3668 74.1845 55.1055 74.4458 55.1055 74.7682V79.0596C55.1055 79.3819 55.3668 79.6432 55.6891 79.6432H68.7593C69.0816 79.6432 69.3429 79.3819 69.3429 79.0596V74.7682C69.3429 74.4458 69.0816 74.1845 68.7593 74.1845H67.1999V74.1845Z" fill="#2D2E30"/>
<path d="M62.2243 76.3641H57.8323V74.7681C57.8323 74.4457 57.5709 74.1844 57.2485 74.1844H55.6891C55.3668 74.1844 55.1055 74.4457 55.1055 74.7681V79.0595C55.1055 79.3818 55.3669 79.6431 55.6891 79.6431H62.2243V76.3641V76.3641Z" fill="#57565C"/>
<path d="M124.657 51.5748L117.344 45.9125L108.022 26.8078C105.989 22.6423 101.76 20 97.1247 20H49.9879C45.9682 20 42.2582 22.159 40.2724 25.654L28.9867 45.5168C17.9639 45.8145 7.46419 52.9945 7.46419 52.9945C3.45994 54.7795 3.15144 59.974 3.15144 64.3583C3.15144 65.43 3.31719 66.299 2.24544 66.299C1.17369 66.299 0.304688 67.168 0.304688 68.2398V75.1708C0.304688 76.2425 1.17344 77.1115 2.24544 77.1115H119.506C124.153 77.1115 127.919 73.3448 127.919 68.6985V58.2268C127.919 55.624 126.715 53.168 124.657 51.5748Z" fill="#237BFF"/>
<path d="M13.7402 74.9733C13.7402 65.2223 21.645 57.3175 31.396 57.3175C41.147 57.3175 49.0517 65.2223 49.0517 74.9733V77.1115H13.7402V74.9733ZM78.403 77.1115H113.714V74.9733C113.714 65.2223 105.81 57.3175 96.0587 57.3175C86.3077 57.3175 78.403 65.2223 78.403 74.9733V77.1115Z" fill="#1D55A8"/>
<path d="M46.0372 75.3615C46.0372 83.2505 39.642 89.6458 31.753 89.6458C23.864 89.6458 17.4688 83.2505 17.4688 75.3615C17.4688 67.4725 23.864 61.0773 31.753 61.0773C39.642 61.0773 46.0372 67.4725 46.0372 75.3615ZM96.4157 61.0773C88.5267 61.0773 82.1315 67.4725 82.1315 75.3615C82.1315 83.2505 88.5267 89.6458 96.4157 89.6458C104.305 89.6458 110.7 83.2505 110.7 75.3615C110.7 67.4725 104.305 61.0773 96.4157 61.0773Z" fill="#2B3B47"/>
<path d="M41.1151 75.3615C41.1151 80.5322 36.9234 84.724 31.7526 84.724C26.5819 84.724 22.3901 80.5322 22.3901 75.3615C22.3901 70.1907 26.5819 65.999 31.7526 65.999C36.9234 65.999 41.1151 70.191 41.1151 75.3615ZM96.4154 65.9992C91.2446 65.9992 87.0529 70.191 87.0529 75.3617C87.0529 80.5325 91.2446 84.7242 96.4154 84.7242C101.586 84.7242 105.778 80.5325 105.778 75.3617C105.778 70.191 101.586 65.9992 96.4154 65.9992Z" fill="#9BA5A8"/>
<path d="M41.1863 43.5642L106.268 43.747C107.601 43.7507 108.476 42.3552 107.891 41.1575L102.75 30.623C101.421 27.899 98.6036 26.139 95.5726 26.139H52.0938C49.5628 26.139 47.2268 27.4985 45.9766 29.699L39.6263 40.8752C38.9456 42.073 39.8083 43.5605 41.1863 43.5642Z" fill="white"/>
<path d="M83.6412 21.8255H76.6572V47.223H83.6412V21.8255Z" fill="#237BFF"/>
<path d="M35.0326 75.3615C35.0326 77.1728 33.5644 78.641 31.7531 78.641C29.9419 78.641 28.4736 77.1728 28.4736 75.3615C28.4736 73.5503 29.9419 72.082 31.7531 72.082C33.5644 72.082 35.0326 73.5503 35.0326 75.3615ZM96.4156 72.082C94.6044 72.082 93.1361 73.5503 93.1361 75.3615C93.1361 77.1728 94.6044 78.641 96.4156 78.641C98.2269 78.641 99.6951 77.1728 99.6951 75.3615C99.6954 73.5503 98.2269 72.082 96.4156 72.082Z" fill="#E5E4DF"/>
<path d="M127.9 65.8035H125.973C123.89 65.8035 122.591 64.1153 122.591 62.0328C122.591 59.9503 123.89 58.262 125.973 58.262H127.9V65.8035ZM3.08689 65.286H5.27264C7.35514 65.286 8.65464 63.5978 8.65464 61.5153C8.65464 59.4328 7.35514 57.7445 5.27264 57.7445H3.79464C2.99864 59.289 3.08689 65.286 3.08689 65.286Z" fill="#FFD469"/>
<path d="M51.7037 39.297V44.1615C51.7037 45.5855 49.7392 46.4235 48.2914 45.6195C47.2804 45.058 46.2547 44.38 45.5379 43.6423L40.6249 43.6373C39.3364 43.6353 38.5529 42.2173 39.2367 41.1253L44.1549 32.9053L46.2474 39.2388C46.8474 38.744 47.5477 38.2788 48.2437 37.867C49.6827 37.015 51.7037 37.851 51.7037 39.297ZM107.483 43.7325C108.569 43.7293 109.276 42.5905 108.798 41.6158L101.939 27.631C101.517 26.7713 100.643 26.2265 99.6854 26.2265H96.4154V43.765L107.483 43.7325Z" fill="#2B3B47"/>
<path d="M65.2096 82.6933V78.8725H59.2383V83.7023C59.2383 86.3957 61.1418 88.7137 63.7839 89.2374L77.6134 91.9789L78.4323 87.8478L67.6944 85.7191C66.2501 85.4328 65.2096 84.1657 65.2096 82.6933Z" fill="#6E190C"/>
<path d="M62.224 78.8726H59.2383V83.7023C59.2383 83.73 59.2397 83.7575 59.2401 83.7851H62.224V78.8726V78.8726Z" fill="#9D2217"/>
<path d="M81.0949 100.824H71.8527C70.7464 100.824 69.8496 99.9273 69.8496 98.8211V97.0753H83.0981V98.8211C83.0981 99.9274 82.2013 100.824 81.0949 100.824Z" fill="#2D2E30"/>
<path d="M89.614 91.8685C89.4261 91.8685 89.2351 91.8377 89.0476 91.7727C88.145 91.46 87.6668 90.4746 87.9796 89.5722L96.5064 64.9651C96.8192 64.0623 97.8049 63.5845 98.7069 63.8971C99.6096 64.2098 100.088 65.1951 99.775 66.0976L91.2482 90.7047C91.0005 91.4198 90.3305 91.8685 89.614 91.8685Z" fill="black"/>
<path d="M92.087 93.5032L85.5498 91.238L88.1492 83.7365C88.2547 83.4318 88.5872 83.2705 88.8919 83.376L94.326 85.259C94.6307 85.3645 94.792 85.697 94.6865 86.0017L92.087 93.5032Z" fill="#2D2E30"/>
<path d="M82.5828 85.5668L61.9382 93.8873C59.7749 94.7591 60.3987 97.9759 62.7311 97.9759H93.1732C95.1472 97.9759 96.0509 95.5157 94.5462 94.2379L84.7487 85.9174C84.1481 85.4072 83.3138 85.2723 82.5828 85.5668Z" fill="#DE3205"/>
<path d="M57.2224 104.199C60.6589 104.199 63.4447 101.413 63.4447 97.9764C63.4447 94.5398 60.6589 91.754 57.2224 91.754C53.7858 91.754 51 94.5398 51 97.9764C51 101.413 53.7858 104.199 57.2224 104.199Z" fill="#1D1D1F"/>
<path d="M57.2221 99.9925C58.3356 99.9925 59.2382 99.0898 59.2382 97.9764C59.2382 96.8629 58.3356 95.9603 57.2221 95.9603C56.1087 95.9603 55.2061 96.8629 55.2061 97.9764C55.2061 99.0898 56.1087 99.9925 57.2221 99.9925Z" fill="white"/>
<path d="M68.8612 86.3912L59.4289 89.3639C58.5189 89.6507 57.5923 88.9711 57.5923 88.017V84.2493C57.5923 83.4693 58.2245 82.8371 59.0045 82.8371H68.1789C68.791 82.8371 69.3334 83.2314 69.5223 83.8136L69.7802 84.6086C70.0222 85.3549 69.6095 86.1553 68.8612 86.3912Z" fill="#DE3205"/>
<path d="M94.5463 94.2379L84.7488 85.9174C84.1481 85.4071 83.3139 85.2721 82.5828 85.5669L77.9531 87.4328V97.9757H93.1733C95.1474 97.9758 96.0509 95.5157 94.5463 94.2379Z" fill="#9D2217"/>
<path d="M77.371 95.0643C77.1939 95.0643 77.0169 94.9969 76.8819 94.8617C76.6116 94.5915 76.6116 94.1535 76.8819 93.8832L79.9835 90.7817C80.2536 90.5115 80.692 90.5115 80.9617 90.7817C81.232 91.0518 81.232 91.4898 80.9617 91.7601L77.8601 94.8617C77.7251 94.9968 77.5479 95.0643 77.371 95.0643Z" fill="#780F13"/>
<path d="M81.204 95.0643C81.027 95.0643 80.8499 94.9968 80.7149 94.8617C80.4447 94.5915 80.4447 94.1535 80.7148 93.8832L83.8164 90.7817C84.0864 90.5115 84.5248 90.5115 84.7946 90.7817C85.0649 91.0518 85.0649 91.4898 84.7946 91.7601L81.6933 94.8617C81.5582 94.9968 81.3811 95.0643 81.204 95.0643Z" fill="#780F13"/>
<path d="M85.037 95.0643C84.8599 95.0643 84.6829 94.9969 84.5479 94.8617C84.2777 94.5915 84.2777 94.1535 84.5479 93.8832L87.6495 90.7817C87.9196 90.5115 88.358 90.5115 88.6277 90.7817C88.898 91.0518 88.898 91.4898 88.6277 91.7601L85.5261 94.8617C85.3911 94.9968 85.2139 95.0643 85.037 95.0643Z" fill="#780F13"/>
<path d="M96.7775 104.199C100.214 104.199 103 101.413 103 97.9764C103 94.5398 100.214 91.754 96.7775 91.754C93.341 91.754 90.5552 94.5398 90.5552 97.9764C90.5552 101.413 93.341 104.199 96.7775 104.199Z" fill="#1D1D1F"/>
<path d="M96.7773 99.9925C97.8908 99.9925 98.7934 99.0898 98.7934 97.9764C98.7934 96.8629 97.8908 95.9603 96.7773 95.9603C95.6639 95.9603 94.7612 96.8629 94.7612 97.9764C94.7612 99.0898 95.6639 99.9925 96.7773 99.9925Z" fill="white"/>
</svg>
