<svg width="128" height="128" viewBox="0 0 128 128" fill="none" xmlns="http://www.w3.org/2000/svg">
<path d="M119.042 54.6396L113.012 50.4665L107.483 26.3642C106.157 20.5809 101.01 16.4812 95.0762 16.4812H32.9235C26.99 16.4812 21.8435 20.5809 20.5167 26.3642L14.9881 50.4669L8.95849 54.6399C4.96932 57.4006 2.58887 61.9433 2.58887 66.7944V88.4861C2.58887 92.5149 5.855 95.781 9.88382 95.781H118.116C122.145 95.781 125.411 92.5149 125.411 88.4861V66.7944C125.411 61.943 123.031 57.4003 119.042 54.6396Z" fill="#237BFF"/>
<path d="M105.965 50.4659H22.0361L27.2123 27.9008C27.8273 25.2222 30.1749 23.3491 32.9253 23.3491H95.0762C97.8266 23.3491 100.174 25.2222 100.789 27.9008L105.965 50.4659Z" fill="#76CDCE"/>
<path d="M12.3916 68.5402C12.3916 73.853 16.6986 78.16 22.0114 78.16C27.3243 78.16 31.6313 73.853 31.6313 68.5402H12.3916Z" fill="#FFCB5A"/>
<path d="M96.3691 68.5402C96.3691 73.853 100.676 78.16 105.989 78.16C111.302 78.16 115.609 73.853 115.609 68.5402H96.3691Z" fill="#FFCB5A"/>
<path d="M122.793 85.3663H5.20734C2.33144 85.3663 0 87.6978 0 90.5737C0 93.4496 2.33144 95.781 5.20734 95.781H122.793C125.669 95.781 128 93.4496 128 90.5737C128 87.6978 125.669 85.3663 122.793 85.3663Z" fill="#237BFF"/>
<path d="M9.45264 95.781V108.492C9.45264 110.164 10.8075 111.519 12.479 111.519H24.076C25.7474 111.519 27.1023 110.164 27.1023 108.492V95.781" fill="#666666"/>
<path d="M100.897 95.781V108.492C100.897 110.164 102.252 111.519 103.924 111.519H115.521C117.192 111.519 118.547 110.164 118.547 108.492V95.781" fill="#666666"/>
<path d="M84.1235 95.781V97.3217C84.1235 101.064 81.0902 104.097 77.3483 104.097H55.3108C51.5689 104.097 48.5356 101.064 48.5356 97.3217V95.781" fill="#4D4D4D"/>
<path d="M105.965 50.4659H77.069L49.9521 23.3491H95.0762C97.8266 23.3491 100.174 25.2222 100.789 27.9008L105.965 50.4659Z" fill="#96E0DE"/>
<path d="M88.82 68.5402H41.6792V72.2865H88.82V68.5402Z" fill="#1D55A8"/>
<path d="M88.82 74.8542H41.6792V78.6005H88.82V74.8542Z" fill="#1D55A8"/>
</svg>
