<svg width="128" height="128" viewBox="0 0 128 128" fill="none" xmlns="http://www.w3.org/2000/svg">
<path d="M36 16L64 64L92 16H36Z" fill="#FF9811"/>
<path d="M64 64H0L36 16L64 64Z" fill="#FFDA44"/>
<path d="M64 64H128L92 16L64 64Z" fill="#FF5023"/>
<path d="M64 0V16C90.5092 16 112 37.4904 112 64C112 90.5096 90.5092 112 64 112V128C99.346 128 128 99.3464 128 64C128 28.6536 99.346 0 64 0Z" fill="#237BFF"/>
<path d="M16 64C16 37.4904 37.4908 16 64 16V0C28.654 0 0 28.6536 0 64C0 99.3464 28.654 128 64 128V112C37.4908 112 16 90.5096 16 64Z" fill="#1D55A8"/>
<path d="M64 96C81.6731 96 96 81.6731 96 64C96 46.3269 81.6731 32 64 32C46.3269 32 32 46.3269 32 64C32 81.6731 46.3269 96 64 96Z" fill="white"/>
<path d="M58.082 53.5616C63.8484 50.2956 98.8008 44.2884 98.8008 44.2884C98.8008 44.2884 75.6768 71.178 69.9104 74.444C64.144 77.7104 56.8208 75.6836 53.5548 69.9172C50.2888 64.1504 52.3148 56.828 58.082 53.5616Z" fill="#237BFF"/>
</svg>
