<?xml version="1.0" encoding="utf-8"?>
<!-- Generator: Adobe Illustrator 24.1.1, SVG Export Plug-In . SVG Version: 6.00 Build 0)  -->
<svg version="1.1" id="Layer_1" xmlns="http://www.w3.org/2000/svg" xmlns:xlink="http://www.w3.org/1999/xlink" x="0px" y="0px"
	 viewBox="0 0 512 512" style="enable-background:new 0 0 512 512;" xml:space="preserve">
<style type="text/css">
	.st0{fill:#555555;}
</style>
<g>
	<path class="st0" d="M256,0c141.4,0,256,114.6,256,256S397.4,512,256,512S0,397.4,0,256S114.6,0,256,0z M256,35.7
		C134.3,35.7,35.7,134.3,35.7,256S134.3,476.3,256,476.3S476.3,377.7,476.3,256S377.7,35.7,256,35.7z M256,140.1
		c9.6,0,17.5,7.8,17.5,17.5l0,79.9l80,0c9.6,0,17.4,7.8,17.4,17.4s-7.8,17.4-17.4,17.4h-80l0,80c0,9.6-7.8,17.5-17.5,17.5
		c-9.6,0-17.4-7.8-17.4-17.5l0-80h-80c-9.6,0-17.4-7.8-17.4-17.4s7.8-17.4,17.4-17.4l80,0l0-79.9C238.6,148,246.4,140.1,256,140.1z"
		/>
</g>
</svg>
