<?xml version="1.0" encoding="iso-8859-1"?>
<!-- Generator: Adobe Illustrator 19.0.0, SVG Export Plug-In . SVG Version: 6.00 Build 0)  -->
<svg version="1.1" id="Capa_1" xmlns="http://www.w3.org/2000/svg" xmlns:xlink="http://www.w3.org/1999/xlink" x="0px" y="0px"
	 viewBox="0 0 469.34 469.34" style="enable-background:new 0 0 469.34 469.34;" xml:space="preserve">
<g>
	<path style="fill:#FFD91E;" d="M234.673,341.339h0.001c11.782,0,21.333,9.551,21.333,21.333v85.334
		c0,11.782-9.551,21.333-21.333,21.333h-0.001c-11.782,0-21.333-9.551-21.333-21.333v-85.334
		C213.34,350.89,222.891,341.339,234.673,341.339z"/>
	<path style="fill:#FFD91E;" d="M320.003,341.339L320.003,341.339c11.783,0,21.334,9.551,21.334,21.333v85.334
		c0,11.782-9.551,21.333-21.333,21.333h-0.001c-11.782,0-21.333-9.551-21.333-21.333v-85.334
		C298.67,350.89,308.221,341.339,320.003,341.339z"/>
	<path style="fill:#FFD91E;" d="M149.333,341.339h0.001c11.782,0,21.333,9.551,21.333,21.333v85.334
		c0,11.782-9.551,21.333-21.333,21.333h-0.001c-11.782,0-21.333-9.551-21.333-21.333v-85.334
		C128,350.89,137.551,341.339,149.333,341.339z"/>
</g>
<g>
	<circle style="fill:#F8BC00;" cx="149.34" cy="405.339" r="21.333"/>
	<circle style="fill:#F8BC00;" cx="234.67" cy="405.339" r="21.333"/>
	<circle style="fill:#F8BC00;" cx="320" cy="405.339" r="21.333"/>
</g>
<g>
	<path style="fill:#FFD91E;" d="M234.673,0.001h0.001c11.782,0,21.333,9.551,21.333,21.333v85.334
		c0,11.782-9.551,21.333-21.333,21.333h-0.001c-11.782,0-21.333-9.551-21.333-21.333V21.334
		C213.34,9.553,222.891,0.001,234.673,0.001z"/>
	<path style="fill:#FFD91E;" d="M320.003,0.001L320.003,0.001c11.783,0,21.334,9.551,21.334,21.333v85.334
		c0,11.782-9.551,21.333-21.333,21.333h-0.001c-11.782,0-21.333-9.551-21.333-21.333V21.334
		C298.67,9.553,308.221,0.001,320.003,0.001z"/>
	<path style="fill:#FFD91E;" d="M149.333,0.001h0.001c11.782,0,21.333,9.551,21.333,21.333v85.334
		c0,11.782-9.551,21.333-21.333,21.333h-0.001c-11.782,0-21.333-9.551-21.333-21.333V21.334C128,9.553,137.551,0.001,149.333,0.001z
		"/>
</g>
<g>
	<circle style="fill:#F8BC00;" cx="149.34" cy="63.999" r="21.333"/>
	<circle style="fill:#F8BC00;" cx="234.67" cy="63.999" r="21.333"/>
	<circle style="fill:#F8BC00;" cx="320" cy="63.999" r="21.333"/>
</g>
<g>
	<path style="fill:#FFD91E;" d="M341.34,234.675L341.34,234.675c0-11.783,9.551-21.334,21.333-21.334h85.334
		c11.782,0,21.333,9.551,21.333,21.333v0.001c0,11.782-9.551,21.333-21.333,21.333h-85.334
		C350.891,256.008,341.34,246.457,341.34,234.675z"/>
	<path style="fill:#FFD91E;" d="M341.34,149.336L341.34,149.336c0-11.783,9.551-21.334,21.333-21.334h85.334
		c11.782,0,21.333,9.551,21.333,21.333v0.001c0,11.782-9.551,21.333-21.333,21.333h-85.334
		C350.891,170.669,341.34,161.117,341.34,149.336z"/>
	<path style="fill:#FFD91E;" d="M341.33,320.005L341.33,320.005c0-11.783,9.551-21.334,21.333-21.334h85.334
		c11.782,0,21.333,9.551,21.333,21.333v0.001c0,11.782-9.551,21.333-21.333,21.333h-85.334
		C350.881,341.339,341.33,331.787,341.33,320.005z"/>
	<path style="fill:#FFD91E;" d="M0,234.665L0,234.665c0-11.783,9.551-21.334,21.333-21.334h85.334
		c11.782,0,21.333,9.551,21.333,21.333v0.001c0,11.782-9.551,21.333-21.333,21.333H21.333C9.551,255.998,0,246.447,0,234.665z"/>
	<path style="fill:#FFD91E;" d="M0.01,149.335L0.01,149.335c0-11.783,9.551-21.334,21.333-21.334h85.334
		c11.782,0,21.333,9.551,21.333,21.333v0.001c0,11.782-9.551,21.333-21.333,21.333H21.343C9.561,170.669,0.01,161.117,0.01,149.335z
		"/>
	<path style="fill:#FFD91E;" d="M0,320.006v-0.001c0-11.782,9.551-21.333,21.333-21.333h85.334c11.782,0,21.333,9.551,21.333,21.333
		v0.001c0,11.782-9.551,21.333-21.333,21.333H21.333C9.551,341.339,0,331.787,0,320.006z"/>
</g>
<g>
	<circle style="fill:#F8BC00;" cx="64" cy="149.339" r="21.333"/>
	<circle style="fill:#F8BC00;" cx="64" cy="234.669" r="21.333"/>
	<circle style="fill:#F8BC00;" cx="64" cy="319.998" r="21.333"/>
	<circle style="fill:#F8BC00;" cx="405.34" cy="149.339" r="21.333"/>
	<circle style="fill:#F8BC00;" cx="405.34" cy="234.669" r="21.333"/>
	<circle style="fill:#F8BC00;" cx="405.34" cy="319.998" r="21.333"/>
</g>
<path style="fill:#009255;" d="M106.667,63.999h255.996c23.564,0,42.667,19.103,42.667,42.667v255.996
	c0,23.564-19.103,42.667-42.667,42.667H106.667C83.103,405.328,64,386.226,64,362.661V106.665
	C64,83.101,83.103,63.999,106.667,63.999z"/>
<path style="fill:#21B950;" d="M106.667,63.999h255.996c23.564,0,42.667,19.103,42.667,42.667v234.666
	c0,23.564-19.103,42.667-42.667,42.667H106.667C83.103,383.999,64,364.896,64,341.332V106.665
	C64,83.101,83.103,63.999,106.667,63.999z"/>
<path style="fill:#73D392;" d="M385.804,352.779c-2.913-0.004-5.7,1.187-7.711,3.295c-4.013,4.23-9.593,6.616-15.423,6.595h-256
	c-4.97,0.023-9.787-1.712-13.602-4.897c-4.536-3.759-11.26-3.13-15.019,1.405c-3.756,4.532-3.132,11.249,1.395,15.011l0.024,0.02
	l0.018,0.014l0.028,0.023l0.02,0.016l0.038,0.031l0.017,0.014l0.037,0.031l0.016,0.014l0.03,0.024l0.02,0.017l0.026,0.021
	l0.022,0.018l0.026,0.021l0.019,0.016l0.028,0.023l0.021,0.016l0.027,0.022l0.019,0.015l0.03,0.024l0.03,0.024l0.035,0.028
	l0.015,0.012l0.032,0.025l0.02,0.016l0.028,0.022l0.021,0.017l0.026,0.021l0.021,0.016l0.029,0.023l0.019,0.015l0.028,0.022
	l0.02,0.016l0.032,0.025l0.015,0.012l0.046,0.036l0.021,0.016l0.027,0.022l0.02,0.015l0.029,0.022l0.021,0.017l0.026,0.021
	l0.021,0.016l0.027,0.021l0.023,0.017l0.025,0.02l0.021,0.017l0.031,0.024l0.017,0.013l0.048,0.037l0.009,0.007l0.037,0.029
	l0.022,0.017l0.026,0.02l0.022,0.016l0.027,0.021l0.021,0.015l0.029,0.022l0.02,0.015l0.027,0.02l0.022,0.017l0.026,0.02
	l0.023,0.017l0.033,0.025l0.038,0.029l0.021,0.016l0.027,0.021l0.021,0.016l0.027,0.02l0.022,0.016l0.023,0.018l0.026,0.019
	l0.024,0.018l0.024,0.017l0.024,0.018l0.023,0.017l0.027,0.02l0.044,0.033l0.007,0.005l0.043,0.032l0.022,0.016l0.027,0.02
	l0.024,0.017l0.024,0.017l0.024,0.018l0.027,0.019l0.021,0.016l0.027,0.019l0.023,0.017l0.027,0.019l0.022,0.016l0.028,0.02
	l0.042,0.03l0.026,0.019l0.025,0.018l0.023,0.017l0.025,0.018l0.024,0.017l0.024,0.017l0.024,0.017l0.027,0.019l0.021,0.015
	l0.027,0.019l0.025,0.017l0.024,0.017l0.033,0.023l0.015,0.011l0.049,0.034l0.018,0.013l0.032,0.023l0.019,0.013l0.031,0.021
	l0.02,0.013l0.032,0.022l0.019,0.013l0.028,0.02l0.023,0.016l0.027,0.019l0.022,0.015l0.03,0.021l0.02,0.014l0.041,0.028l0.03,0.021
	l0.026,0.018l0.026,0.018l0.024,0.016l0.025,0.017l0.025,0.017l0.027,0.018l0.021,0.015l0.029,0.019l0.02,0.013l0.031,0.021
	l0.017,0.011l0.032,0.021l0.017,0.011l0.056,0.038l0.024,0.016l0.023,0.016l0.027,0.018l0.023,0.015l0.03,0.02l0.021,0.014
	l0.029,0.019l0.022,0.015l0.029,0.019l0.022,0.015l0.027,0.018l0.023,0.016l0.03,0.02l0.036,0.024l0.033,0.021l0.022,0.014
	l0.029,0.019l0.023,0.015l0.028,0.018l0.024,0.016l0.026,0.017l0.024,0.016l0.026,0.017l0.026,0.017l0.024,0.015l0.026,0.017
	l0.023,0.015l0.056,0.036l0.021,0.013l0.024,0.016l0.027,0.017l0.023,0.014l0.03,0.019l0.021,0.013l0.028,0.018l0.024,0.015
	l0.027,0.017l0.024,0.016l0.028,0.017l0.022,0.014l0.033,0.02l0.02,0.012l0.04,0.025l0.035,0.022l0.026,0.016l0.022,0.014
	l0.03,0.019l0.023,0.014l0.029,0.018l0.023,0.014l0.029,0.018l0.024,0.015l0.028,0.017l0.022,0.014l0.034,0.021l0.019,0.012
	l0.051,0.031l0.014,0.008l0.037,0.022l0.023,0.014l0.031,0.019l0.02,0.012l0.031,0.019l0.022,0.013l0.031,0.019l0.021,0.013
	l0.03,0.018l0.022,0.013l0.034,0.021l0.018,0.01l0.049,0.029l0.015,0.009l0.041,0.024l0.017,0.01l0.035,0.021l0.022,0.013
	l0.03,0.018l0.021,0.013l0.032,0.018l0.022,0.013l0.032,0.019l0.02,0.011l0.035,0.02l0.019,0.011l0.105,0.061l0.011,0.006
	l0.043,0.025l0.015,0.009l0.036,0.021l0.022,0.013l0.032,0.019l0.02,0.011l0.034,0.019l0.02,0.012l0.034,0.019l0.02,0.011
	l0.036,0.021l0.017,0.009l0.052,0.03l0.014,0.008l0.039,0.022l0.02,0.011l0.033,0.018l0.022,0.012l0.03,0.017l0.025,0.014
	l0.028,0.016l0.023,0.013l0.032,0.018l0.021,0.012l0.036,0.02l0.017,0.009l0.051,0.028l0.021,0.011l0.034,0.019l0.021,0.012
	l0.031,0.017l0.026,0.014l0.027,0.015l0.027,0.015l0.025,0.014l0.029,0.016l0.024,0.013l0.029,0.016l0.025,0.013l0.029,0.015
	l0.044,0.024l0.028,0.015l0.032,0.017l0.027,0.014L86.607,379l0.027,0.014l0.027,0.014l0.026,0.014l0.028,0.015l0.025,0.013
	l0.028,0.015l0.027,0.014l0.028,0.015l0.025,0.013l0.047,0.025l0.014,0.008l0.046,0.024l0.018,0.01l0.034,0.017l0.026,0.013
	l0.029,0.015l0.024,0.013l0.029,0.015l0.025,0.013l0.029,0.015l0.026,0.014l0.023,0.012l0.032,0.016l0.023,0.012l0.04,0.021
	l0.042,0.021l0.022,0.011l0.031,0.016l0.027,0.014l0.026,0.013l0.029,0.015l0.025,0.013l0.028,0.014l0.028,0.014l0.027,0.014
	l0.027,0.014l0.027,0.013l0.027,0.014l0.046,0.023l0.034,0.017l0.023,0.011l0.031,0.015l0.026,0.013l0.029,0.014l0.027,0.013
	l0.026,0.013l0.028,0.014l0.029,0.014l0.026,0.013l0.027,0.013l0.028,0.014l0.027,0.013l0.028,0.014l0,0l0.082,0.039l0.024,0.011
	l0.029,0.014l0.026,0.012l0.029,0.014l0.028,0.013l0.025,0.012l0.031,0.015l0.026,0.012l0.029,0.014l0.025,0.012l0.033,0.016
	l0.022,0.01l0.055,0.026l0.007,0.003l0.047,0.022l0.025,0.012l0.032,0.015l0.023,0.011l0.032,0.015l0.025,0.012l0.03,0.014
	l0.027,0.013l0.025,0.012l0.031,0.014l0.024,0.011l0.031,0.014l0.03,0.014l0.048,0.022l0.029,0.013l0.032,0.014l0.023,0.01
	l0.034,0.015l0.022,0.01l0.03,0.014l0.027,0.012l0.029,0.013l0.027,0.012l0.028,0.012l0.028,0.012l0.029,0.013l0.03,0.013
	l0.033,0.014l0.045,0.02l0.03,0.013l0.026,0.011l0.032,0.014l0.023,0.01l0.033,0.014l0.024,0.011l0.032,0.014l0.021,0.009
	l0.034,0.015l0.022,0.01l0.034,0.014l0.02,0.008l0.12,0.052l0.023,0.01l0.033,0.014l0.022,0.01l0.034,0.014l0.021,0.009l0.035,0.015
	l0.02,0.008l0.035,0.015l0.023,0.01l0.032,0.013l0.031,0.013l0.023,0.01l0.041,0.017l0.041,0.017l0.029,0.012l0.028,0.011
	l0.028,0.012l0.028,0.012l0.029,0.012l0.029,0.012l0.025,0.01l0.032,0.013l0.026,0.01l0.03,0.012l0.027,0.011l0.029,0.012
	l0.032,0.013l0.053,0.022l0.024,0.01l0.031,0.012l0.026,0.011l0.028,0.011l0.03,0.012l0.028,0.011l0.029,0.011l0.029,0.011
	l0.028,0.011l0.029,0.012l0.031,0.012l0.024,0.01l0.042,0.017l0.03,0.012l0.04,0.015l0.027,0.01l0.03,0.012l0.027,0.011l0.03,0.012
	l0.028,0.011l0.029,0.011l0.028,0.011l0.031,0.012l0.026,0.01l0.031,0.012l0.027,0.01l0.041,0.015l0.015,0.006l0.056,0.021
	l0.024,0.009l0.034,0.013l0.024,0.009l0.034,0.013l0.027,0.01l0.031,0.011l0.027,0.01l0.03,0.011l0.028,0.011l0.032,0.012
	l0.024,0.009l0.034,0.013l0.035,0.013l0.045,0.017l0.024,0.009l0.034,0.012l0.025,0.009l0.034,0.012l0.026,0.009l0.03,0.011
	l0.029,0.01l0.031,0.011l0.027,0.01l0.031,0.011l0.026,0.009l0.037,0.013l0.021,0.007l0.053,0.019l0.026,0.009l0.035,0.012
	l0.023,0.008l0.035,0.012l0.025,0.009l0.033,0.011l0.026,0.009l0.032,0.011l0.028,0.01l0.032,0.011l0.025,0.009l0.035,0.012
	l0.024,0.008l0.035,0.012l0.067,0.023l0.009,0.003l0.036,0.012l0.024,0.008l0.031,0.01l0.027,0.009l0.031,0.01l0.029,0.01
	l0.029,0.01l0.029,0.01l0.029,0.009l0.033,0.011l0.026,0.009l0.034,0.011l0.047,0.015l0.033,0.011l0.03,0.01l0.028,0.009
	l0.034,0.011l0.024,0.008l0.033,0.01l0.027,0.009l0.032,0.01l0.028,0.009l0.029,0.009l0.03,0.009l0.031,0.01l0.021,0.007l0.127,0.04
	l0.023,0.007l0.036,0.011l0.021,0.006l0.036,0.011l0.024,0.007l0.034,0.01l0.026,0.008l0.032,0.01l0.03,0.009l0.03,0.009
	l0.026,0.008l0.115,0.035l0.033,0.01l0.029,0.009l0.028,0.008l0.033,0.01l0.026,0.008l0.033,0.01l0.028,0.008l0.03,0.009l0.03,0.009
	l0.03,0.009l0.03,0.009l0.029,0.008l0.03,0.009l0.057,0.017l0.028,0.008l0.033,0.01l0.025,0.007l0.033,0.01l0.027,0.008l0.032,0.009
	l0.026,0.007l0.033,0.009l0.029,0.008l0.031,0.009l0.03,0.009l0.029,0.008l0.047,0.013l0.027,0.007l0.043,0.012l0.028,0.008
	l0.032,0.009l0.028,0.008l0.032,0.009l0.028,0.008l0.033,0.009l0.026,0.007l0.035,0.009l0.027,0.007l0.032,0.009l0.028,0.007
	l0.033,0.009l0.043,0.011l0.043,0.011l0.023,0.006l0.035,0.009l0.031,0.008l0.029,0.008l0.031,0.008l0.029,0.008l0.03,0.008
	l0.032,0.008l0.029,0.007l0.027,0.007l0.035,0.009l0.021,0.005l0.068,0.017l0.028,0.007l0.027,0.007l0.034,0.009l0.028,0.007
	l0.032,0.008l0.029,0.007l0.034,0.008l0.025,0.006l0.037,0.009l0.025,0.006l0.035,0.009l0.025,0.006l0.036,0.009l0.025,0.006
	l0.059,0.014l0.021,0.005l0.039,0.01l0.027,0.006l0.034,0.008l0.029,0.007l0.031,0.007l0.029,0.007l0.034,0.008l0.026,0.006
	l0.033,0.008l0.029,0.007l0.032,0.007l0.029,0.007l0.051,0.012l0.027,0.006l0.042,0.01l0.023,0.005l0.037,0.009l0.025,0.006
	l0.037,0.008l0.022,0.005l0.039,0.009l0.024,0.006l0.037,0.008l0.024,0.005l0.039,0.009l0.022,0.005l0.061,0.013l0.001,0
	l0.058,0.013l0.03,0.006l0.033,0.007l0.027,0.006l0.034,0.007l0.027,0.006l0.036,0.008l0.026,0.006l0.034,0.007l0.029,0.006
	l0.031,0.006l0.032,0.007l0.024,0.005l0.077,0.016L98,383.12l0.035,0.007l0.026,0.005l0.033,0.007l0.029,0.006l0.029,0.006
	l0.034,0.007l0.028,0.006l0.033,0.007l0.028,0.006l0.033,0.007l0.029,0.006l0.04,0.008l0.02,0.004l0.061,0.012l0.023,0.004
	l0.038,0.007l0.027,0.005l0.034,0.007l0.028,0.005l0.035,0.007l0.027,0.005l0.034,0.006l0.028,0.005l0.037,0.007l0.024,0.004
	l0.043,0.008l0.019,0.004l0.062,0.011l0.008,0.002l0.054,0.01l0.021,0.004l0.04,0.007l0.025,0.004l0.038,0.007l0.027,0.005
	l0.035,0.006l0.026,0.005l0.037,0.007l0.025,0.004l0.044,0.008l0.017,0.003l0.062,0.011l0.012,0.002l0.051,0.009l0.02,0.003
	l0.042,0.007l0.023,0.004l0.04,0.007l0.025,0.004l0.034,0.006l0.031,0.005l0.034,0.006l0.027,0.004l0.039,0.006l0.023,0.004
	l0.053,0.009l0.014,0.002l0.057,0.009l0.024,0.004l0.039,0.006l0.023,0.004l0.04,0.006l0.025,0.004l0.037,0.006l0.026,0.004
	l0.035,0.005l0.029,0.004l0.038,0.006l0.023,0.004l0.048,0.007l0.016,0.002l0.062,0.009l0.019,0.003l0.043,0.006l0.026,0.004
	l0.038,0.006l0.026,0.004l0.035,0.005l0.028,0.004l0.036,0.005l0.026,0.004l0.037,0.005l0.026,0.004l0.047,0.006l0.016,0.002
	l0.063,0.009l0.016,0.002l0.048,0.007l0.019,0.003l0.045,0.006l0.023,0.003l0.04,0.005l0.024,0.003l0.04,0.005l0.024,0.003
	l0.041,0.005l0.022,0.003l0.039,0.005l0.025,0.003l0.061,0.008l0.017,0.002l0.047,0.006l0.022,0.003l0.043,0.005l0.023,0.003
	l0.039,0.005l0.027,0.003l0.037,0.004l0.026,0.003l0.038,0.004l0.026,0.003l0.04,0.005l0.024,0.003l0.053,0.006l0.025,0.003
	l0.047,0.005l0.023,0.003l0.04,0.004l0.029,0.003l0.033,0.004l0.032,0.003l0.032,0.004l0.031,0.003l0.034,0.004l0.029,0.003
	l0.035,0.004l0.029,0.003l0.036,0.004l0.046,0.005l0.04,0.004l0.028,0.003l0.037,0.004l0.026,0.003l0.037,0.004l0.026,0.003
	l0.038,0.004l0.026,0.003l0.039,0.004l0.024,0.002l0.043,0.004l0.021,0.002l0.054,0.005l0.009,0.001l0.064,0.006l0.016,0.001
	l0.048,0.004l0.023,0.002l0.039,0.004l0.026,0.002l0.038,0.003l0.027,0.002l0.038,0.003l0.025,0.002l0.041,0.003l0.023,0.002
	l0.052,0.004l0.011,0.001l0.064,0.005l0.014,0.001l0.051,0.004l0.022,0.002l0.04,0.003l0.029,0.002l0.036,0.003l0.027,0.002
	l0.037,0.003l0.027,0.002l0.042,0.003l0.022,0.002l0.046,0.003l0.019,0.001l0.064,0.004l0.007,0l0.057,0.004l0.02,0.001l0.044,0.003
	l0.024,0.002l0.039,0.003l0.028,0.002l0.038,0.002l0.025,0.002l0.041,0.003l0.024,0.001l0.045,0.003l0.019,0.001l0.061,0.004
	l0.011,0.001l0.057,0.003l0.019,0.001l0.045,0.002l0.024,0.001l0.04,0.002l0.026,0.001l0.036,0.002l0.029,0.002l0.038,0.002
	l0.025,0.001l0.042,0.002l0.023,0.001l0.062,0.003l0.002,0l0.066,0.003l0.015,0.001l0.049,0.002l0.022,0.001l0.043,0.002
	l0.026,0.001l0.038,0.002l0.027,0.001l0.038,0.001l0.028,0.001l0.039,0.001l0.025,0.001l0.046,0.002l0.019,0.001l0.064,0.002
	l0.016,0l0.047,0.002l0.025,0.001l0.041,0.001l0.025,0.001l0.04,0.001l0.025,0.001l0.04,0.001l0.026,0.001l0.039,0.001l0.026,0.001
	l0.048,0.001l0.016,0l0.065,0.002l0.01,0l0.054,0.001l0.022,0l0.043,0.001l0.027,0l0.039,0.001l0.026,0l0.04,0.001l0.026,0
	l0.041,0.001l0.024,0l0.044,0.001l0.022,0l0.065,0.001l0.006,0l0.059,0.001l0.022,0l0.043,0l0.027,0l0.037,0l0.029,0l0.038,0
	l0.027,0l0.04,0l0.025,0l0.044,0h0.021l0.065,0H362.67l0.071,0h0.011l0.059,0l0.024,0l0.046,0l0.025,0l0.044,0l0.03,0l0.04,0
	l0.031,0l0.038,0l0.033,0l0.037,0l0.033,0l0.037,0l0.035,0l0.035,0l0.034,0l0.036-0.001l0.034-0.001l0.037-0.001l0.031-0.001
	l0.039-0.001l0.033-0.001l0.036-0.001l0.034-0.001l0.036-0.001l0.034-0.001l0.035-0.001l0.034-0.001l0.035-0.001l0.035-0.001
	l0.034-0.001l0.036-0.001l0.034-0.001l0.036-0.001l0.034-0.001l0.035-0.001l0.034-0.001l0.035-0.001l0.034-0.001l0.035-0.001
	l0.035-0.001l0.035-0.001l0.034-0.001l0.035-0.001l0.035-0.001l0.035-0.001l0.033-0.001l0.037-0.001l0.031-0.001l0.039-0.002
	l0.031-0.001l0.038-0.002l0.032-0.001l0.038-0.002l0.032-0.001l0.036-0.002l0.034-0.002l0.036-0.002l0.033-0.002l0.036-0.002
	l0.031-0.002l0.039-0.002l0.013-0.001l0.056-0.003l0.014-0.001l0.091-0.005l0.031-0.002l0.115-0.007l0.023-0.001l0.041-0.003
	l0.028-0.002l0.037-0.002l0.033-0.002l0.037-0.002l0.031-0.002l0.039-0.003l0.031-0.002l0.038-0.003l0.029-0.002l0.039-0.003
	l0.031-0.002l0.038-0.003l0.03-0.002l0.038-0.003l0.033-0.002l0.036-0.003l0.032-0.002l0.036-0.003l0.033-0.002l0.038-0.003
	l0.028-0.002l0.042-0.003l0.028-0.002l0.039-0.003l0.03-0.002l0.038-0.003l0.031-0.003l0.038-0.003l0.029-0.002l0.04-0.003
	l0.031-0.003l0.036-0.003l0.033-0.003l0.036-0.003l0.032-0.003l0.037-0.003l0.029-0.003l0.04-0.004l0.029-0.003l0.039-0.004
	l0.028-0.003l0.04-0.004l0.029-0.003l0.039-0.004l0.028-0.003l0.041-0.004l0.028-0.003l0.039-0.004l0.032-0.003l0.036-0.004
	l0.033-0.003l0.035-0.004l0.026-0.003l0.044-0.005l0.016-0.002l0.051-0.005l0.02-0.002l0.048-0.005l0.013-0.001
	c0.082-0.009,0.164-0.018,0.246-0.027l0.01-0.001l0.063-0.007l0.004,0l0.057-0.007l0.01-0.001l0.052-0.006l0.016-0.002l0.047-0.006
	l0.022-0.003l0.046-0.006l0.021-0.003l0.047-0.006l0.021-0.003l0.046-0.006l0.022-0.003l0.042-0.005l0.026-0.003l0.045-0.006
	l0.021-0.003l0.048-0.006l0.019-0.002l0.048-0.006l0.02-0.003l0.046-0.006l0.022-0.003l0.047-0.006l0.02-0.003l0.047-0.006
	l0.021-0.003l0.047-0.006l0.021-0.003l0.045-0.006l0.024-0.003l0.045-0.006l0.021-0.003l0.046-0.007l0.021-0.003l0.048-0.007
	l0.019-0.003l0.047-0.007l0.021-0.003l0.047-0.007l0.019-0.003l0.048-0.007l0.02-0.003l0.048-0.007l0.018-0.003l0.048-0.007
	l0.019-0.003l0.05-0.008l0.009-0.001l0.058-0.009l0.006-0.001c0.263-0.041,0.524-0.084,0.785-0.13l0.001,0l0.124-0.022l0.009-0.002
	l0.057-0.01l0.008-0.001l0.058-0.01l0.009-0.002l0.061-0.011l0.003,0l0.058-0.011l0.011-0.002l0.056-0.01l0.009-0.002l0.055-0.01
	l0.013-0.002l0.053-0.01l0.012-0.002l0.052-0.01l0.015-0.003l0.05-0.01l0.016-0.003l0.051-0.01l0.013-0.003l0.054-0.011l0.011-0.002
	l0.054-0.011l0.012-0.002l0.053-0.011l0.011-0.002l0.054-0.011l0.013-0.003l0.053-0.011l0.012-0.003l0.053-0.011l0.013-0.003
	l0.054-0.011l0.009-0.002l0.057-0.012l0.007-0.001l0.06-0.012l0.001,0c0.455-0.095,0.906-0.198,1.355-0.307l0,0
	c0.086-0.021,0.171-0.042,0.256-0.063l0.001,0l0.126-0.032l0.003-0.001l0.061-0.016l0.004-0.001l0.059-0.015l0.007-0.002l0.06-0.015
	l0.001,0l0.062-0.016l0.003-0.001c0.638-0.166,1.267-0.346,1.894-0.541l0.003-0.001c6.926-2.16,13.187-6.051,18.19-11.305
	c4.05-4.278,3.864-11.03-0.414-15.079C391.155,353.824,388.531,352.779,385.804,352.779L385.804,352.779z"/>
<path style="fill:#009E55;" d="M149.337,127.999h170.666c23.564,0,42.667,19.103,42.667,42.667v106.666
	c0,23.564-19.103,42.667-42.667,42.667H149.337c-23.564,0-42.667-19.103-42.667-42.667V170.666
	C106.67,147.101,125.773,127.999,149.337,127.999z"/>
<path style="fill:#0F3860;" d="M149.333,149.339h170.664c11.782,0,21.333,9.551,21.333,21.333v106.664
	c0,11.782-9.551,21.333-21.333,21.333H149.333c-11.782,0-21.333-9.551-21.333-21.333V170.671
	C128,158.89,137.551,149.339,149.333,149.339z"/>
<path style="fill:#244A6F;" d="M149.333,149.339h170.664c11.782,0,21.333,9.551,21.333,21.333v85.334
	c0,11.782-9.551,21.333-21.333,21.333H149.333c-11.782,0-21.333-9.551-21.333-21.333v-85.334
	C128,158.89,137.551,149.339,149.333,149.339z"/>
<path style="fill:#416282;" d="M149.337,218.853v-32.796c0-8.498,6.889-15.388,15.388-15.388h0h32.796
	c8.498,0,15.388,6.889,15.388,15.388c0,4.081-1.621,7.995-4.507,10.881l-32.796,32.796c-6.009,6.009-15.752,6.009-21.762,0
	C150.958,226.848,149.337,222.934,149.337,218.853L149.337,218.853z"/>
<path style="fill:#00794C;" d="M117.337,383.998h234.666c5.891,0,10.667,4.776,10.667,10.667l0,0
	c0,5.891-4.776,10.667-10.667,10.667H117.337c-5.891,0-10.667-4.776-10.667-10.667l0,0
	C106.67,388.774,111.446,383.998,117.337,383.998z"/>
<path style="fill:#082D56;" d="M160.007,277.339h149.336c5.891,0,10.667,4.776,10.667,10.667l0,0
	c0,5.891-4.776,10.667-10.667,10.667H160.007c-5.891,0-10.667-4.776-10.667-10.667l0,0
	C149.34,282.114,154.116,277.339,160.007,277.339z"/>
<path style="fill:#73D392;" d="M160.007,106.669h149.336c5.891,0,10.667,4.776,10.667,10.667l0,0
	c0,5.891-4.776,10.667-10.667,10.667H160.007c-5.891,0-10.667-4.776-10.667-10.667l0,0
	C149.34,111.444,154.116,106.669,160.007,106.669z"/>
<path style="fill:#037657;" d="M160.007,298.668h149.336c5.891,0,10.667,4.776,10.667,10.667l0,0
	c0,5.891-4.776,10.667-10.667,10.667H160.007c-5.891,0-10.667-4.776-10.667-10.667l0,0
	C149.34,303.444,154.116,298.668,160.007,298.668z"/>
<g>
</g>
<g>
</g>
<g>
</g>
<g>
</g>
<g>
</g>
<g>
</g>
<g>
</g>
<g>
</g>
<g>
</g>
<g>
</g>
<g>
</g>
<g>
</g>
<g>
</g>
<g>
</g>
<g>
</g>
</svg>
