<svg width="36" height="36" viewBox="0 0 36 36" fill="none" xmlns="http://www.w3.org/2000/svg">
<g clip-path="url(#clip0)">
<path d="M35.8258 13.971L34.5965 15.1864L33.0213 16.8261C31.4538 18.2876 31.453 18.2409 31.4014 18.479C30.3415 23.2984 30.4343 22.9639 30.3401 23.099L27.7284 26.8509C27.6276 26.9956 27.4677 27.0868 27.2917 27.1008C23.4338 27.3972 23.6002 27.3403 23.3986 27.5164C21.5494 29.1283 21.5444 29.072 21.5005 29.3555C21.1747 31.5005 21.2165 31.4706 21.0382 31.6516C19.9286 32.7763 20.6109 32.085 17.7143 35.0192C17.4872 35.2502 17.1161 35.2529 16.8854 35.0258L14.5308 32.7085C14.2772 32.4594 14.3014 32.0446 14.5818 31.8268L16.9752 29.9652C17.1719 29.8125 17.2507 29.5527 17.1719 29.3167L16.9535 28.5117C16.0422 25.9552 16.2589 26.5792 15.8848 25.4553C15.8068 25.2224 15.592 25.0623 15.3465 25.0543L14.6711 25.0323C14.3767 25.023 14.135 24.7964 14.1059 24.5028L13.6922 20.2835C13.6623 19.9828 13.4096 19.7534 13.108 19.7534C12.9526 19.7534 12.4711 19.8111 12.3274 19.3379L11.8204 17.6726C11.7649 17.4894 11.6232 17.3455 11.4414 17.2856L8.95904 16.4734C8.86044 16.4405 8.05706 15.9445 8.00652 15.9123C8.00735 15.9123 8.0079 15.9123 8.00872 15.9131C8.0079 15.9123 8.00652 15.9118 8.0057 15.9118C7.65029 15.6931 7.72994 15.3471 7.75384 14.9367C7.78021 14.4978 7.33251 14.1875 6.93069 14.3654C4.60021 15.3968 4.71639 15.3721 4.51974 15.3597L3.59524 15.2996C3.29421 15.2801 3.05691 15.0362 3.04592 14.7343L3.04098 14.5767C3.02697 14.1787 2.62817 13.909 2.25353 14.0457C2.02859 14.1276 1.77453 14.0647 1.61303 13.8829L0.147179 12.2234C0.00545523 12.0635 -0.0376661 11.8386 0.0340197 11.6378L0.579491 10.1113C0.64898 9.91626 0.816246 9.77234 1.01839 9.73279C3.27966 9.28894 3.16732 9.31531 3.23296 9.29114C3.4461 9.21725 3.60101 9.02582 3.62435 8.79648C3.95971 5.49454 3.9501 5.70795 3.92153 5.57858L3.61117 4.16684C3.53893 3.83533 3.76086 3.51178 4.09621 3.46069L5.5313 3.24234C5.72988 3.2124 5.93011 3.28546 6.06222 3.43735L6.92931 4.43188C7.11196 4.64227 7.41711 4.69501 7.65963 4.55768L8.83682 3.89383C9.08016 3.7565 9.1925 3.46728 9.10653 3.20142L8.74426 2.08823C8.63329 1.7471 8.85165 1.38647 9.20568 1.32715L12.0621 0.851715C12.3469 0.804199 12.6238 0.970917 12.7153 1.24475L13.5222 3.66586C13.6186 3.9537 13.918 4.12097 14.213 4.05231L15.7491 3.69223C16.1507 3.59857 16.2078 3.18521 16.2018 3.18521C16.2713 2.8559 16.6042 2.6521 16.9299 2.74136L18.5586 3.18823C18.7962 3.25388 19.0489 3.16406 19.192 2.96411L19.6081 2.38129C19.88 1.99979 20.4672 2.07504 20.6337 2.51257C21.5656 4.94824 21.5137 4.96362 21.7891 5.10178C23.7546 6.08423 22.9254 5.67554 25.4256 6.89337C27.4836 7.95081 27.4054 7.94284 27.6196 7.93268C30.6606 7.78519 30.6051 7.73465 30.8411 7.93542C34.2279 10.816 34.0386 10.7254 34.3366 10.7254H35.1472C35.4446 10.7254 35.6951 10.9481 35.73 11.2434L35.9958 13.4846C36.017 13.6645 35.9544 13.8441 35.8258 13.971V13.971Z" fill="#1AB975"/>
<path d="M35.8258 13.971L34.5965 15.1864L33.0213 16.8261C31.4538 18.2876 31.453 18.2409 31.4014 18.479C30.3415 23.2984 30.4343 22.9639 30.3401 23.099L27.7284 26.8509C27.6276 26.9956 27.4677 27.0868 27.2917 27.1008C23.4338 27.3972 23.6003 27.3403 23.3987 27.5164C21.5494 29.1283 21.5444 29.072 21.5005 29.3555C21.1747 31.5006 21.2165 31.4706 21.0382 31.6516L20.1808 32.5206L18.1461 30.5173C17.8926 30.2684 17.9167 29.8534 18.1972 29.6359L20.5905 27.7743C21.1028 27.3763 20.6988 26.8591 19.4993 23.2641C19.4219 23.0312 19.2074 22.8713 18.9618 22.8634L18.2862 22.8414C17.9912 22.8318 17.7495 22.6055 17.7209 22.3119L17.307 18.0926C17.2776 17.7915 17.0249 17.563 16.7234 17.563C16.5671 17.563 16.0864 17.6201 15.942 17.1466L15.4358 15.4817C15.3795 15.299 15.2386 15.1543 15.0567 15.0944L12.5735 14.2822C12.4755 14.2501 11.6721 13.7535 11.6219 13.7214C11.6224 13.7214 11.6232 13.7214 11.6241 13.7222C11.6232 13.7214 11.6219 13.7206 11.621 13.7206C11.2656 13.5019 11.345 13.1589 11.3692 12.7455C11.3953 12.3066 10.9476 11.9962 10.546 12.1745C8.21555 13.2058 8.33145 13.1808 8.13507 13.1685L7.20975 13.1086C6.90872 13.0897 6.67142 12.8449 6.66125 12.5434L6.65604 12.3854C6.6423 11.9875 6.2435 11.718 5.86887 11.8545C5.64392 11.9364 5.38904 11.8735 5.22836 11.6917L3.23297 9.29114C3.44611 9.21725 3.60101 9.02582 3.62436 8.79648C3.95972 5.49454 3.9501 5.70795 3.92154 5.57858L3.61118 4.16684C3.53894 3.83533 3.76086 3.51178 4.09622 3.46069L5.53131 3.24234C5.72989 3.2124 5.93011 3.28546 6.06223 3.43735L6.92932 4.43188C7.11197 4.64227 7.41711 4.69501 7.65964 4.55768L8.83682 3.89383C9.08017 3.7565 9.1925 3.46729 9.10654 3.20142L8.74426 2.08823C8.6333 1.7471 8.85165 1.38647 9.20569 1.32715L12.0621 0.851715C12.347 0.804199 12.6238 0.970917 12.7153 1.24475L13.5222 3.66586C13.6186 3.9537 13.918 4.12097 14.213 4.05231L15.7491 3.69223C16.1507 3.59857 16.2078 3.18521 16.2018 3.18521C16.2713 2.8559 16.6042 2.6521 16.9299 2.74136L18.5586 3.18823C18.7962 3.25388 19.0489 3.16406 19.192 2.96411L19.6081 2.38129C19.88 1.99979 20.4672 2.07504 20.6337 2.51257C21.5656 4.94824 21.5137 4.96362 21.7892 5.10178C23.7546 6.08423 22.9254 5.67554 25.4256 6.89337C27.4836 7.95081 27.4054 7.94284 27.6196 7.93268C30.6606 7.78519 30.6051 7.73465 30.8411 7.93542C34.2279 10.816 34.0386 10.7254 34.3366 10.7254H35.1472C35.4446 10.7254 35.6951 10.9482 35.73 11.2434L35.9958 13.4846C36.017 13.6645 35.9544 13.8441 35.8258 13.971V13.971Z" fill="#1ED688"/>
<path d="M19.9062 21.4766C19.9062 20.8594 19.7539 20.375 19.4492 20.0234C19.1445 19.6719 18.6094 19.3398 17.8438 19.0273C17.0781 18.7148 16.3711 18.3984 15.7227 18.0781C15.0742 17.7578 14.5156 17.3867 14.0469 16.9648C13.5781 16.543 13.2188 16.0547 12.9688 15.5C12.7188 14.9453 12.5938 14.2734 12.5938 13.4844C12.5938 12.1641 13.0391 11.0781 13.9297 10.2266C14.8203 9.36719 16.0078 8.86719 17.4922 8.72656V6.25391H19.3555V8.77344C20.7852 8.98438 21.9062 9.57422 22.7188 10.543C23.5391 11.5039 23.9492 12.7266 23.9492 14.2109H19.9883C19.9883 13.3984 19.832 12.7734 19.5195 12.3359C19.207 11.8984 18.7617 11.6797 18.1836 11.6797C17.668 11.6797 17.2656 11.8438 16.9766 12.1719C16.6953 12.4922 16.5547 12.9375 16.5547 13.5078C16.5547 14.0859 16.7188 14.5469 17.0469 14.8906C17.375 15.2266 17.9023 15.5508 18.6289 15.8633C19.3555 16.168 20.0391 16.4883 20.6797 16.8242C21.3281 17.1523 21.8867 17.5273 22.3555 17.9492C22.8242 18.3711 23.1914 18.8633 23.457 19.4258C23.7227 19.9883 23.8555 20.6641 23.8555 21.4531C23.8555 22.7891 23.4297 23.8789 22.5781 24.7227C21.7344 25.5664 20.582 26.0586 19.1211 26.1992V28.5547H17.2578V26.1875C15.5547 26.0078 14.2461 25.4258 13.332 24.4414C12.4258 23.4492 11.9727 22.1445 11.9727 20.5273H15.9219C15.9219 21.418 16.1172 22.0977 16.5078 22.5664C16.9062 23.0273 17.4688 23.2578 18.1953 23.2578C18.7266 23.2578 19.1445 23.1016 19.4492 22.7891C19.7539 22.4688 19.9062 22.0312 19.9062 21.4766Z" fill="#165339"/>
</g>
<defs>
<clipPath id="clip0">
<rect width="36" height="36" fill="white"/>
</clipPath>
</defs>
</svg>
