<svg width="14" height="14" viewBox="0 0 14 14" fill="none" xmlns="http://www.w3.org/2000/svg">
<path d="M11.1289 13.9995H2.87109C1.28814 13.9995 0 12.7114 0 11.1284C0 10.9017 0.183449 10.7183 0.410156 10.7183H13.5898C13.8166 10.7183 14 10.9017 14 11.1284C14 12.7114 12.7119 13.9995 11.1289 13.9995Z" fill="white"/>
<path d="M7 0C3.1552 0 0 2.39203 0 5.33203C0 5.55874 0.183449 5.74219 0.410156 5.74219H13.5898C13.8166 5.74219 14 5.55874 14 5.33203C14 2.39203 10.8448 0 7 0ZM3.98139 3.16107L3.16107 3.98139C3.00087 4.14159 2.74132 4.14162 2.58109 3.98139C2.42088 3.82118 2.42088 3.56161 2.58109 3.4014L3.4014 2.58109C3.56161 2.42088 3.82118 2.42088 3.98139 2.58109C4.14159 2.74129 4.14162 3.00087 3.98139 3.16107ZM6.46967 3.16107L5.64936 3.98139C5.48915 4.14159 5.2296 4.14162 5.06937 3.98139C4.90916 3.82118 4.90916 3.56161 5.06937 3.4014L5.88968 2.58109C6.04989 2.42088 6.30946 2.42088 6.46967 2.58109C6.62987 2.74129 6.6299 3.00087 6.46967 3.16107ZM8.93061 3.16107L8.11029 3.98139C7.95009 4.14159 7.69054 4.14162 7.5303 3.98139C7.3701 3.82118 7.3701 3.56161 7.5303 3.4014L8.35062 2.58109C8.51082 2.42088 8.7704 2.42088 8.93061 2.58109C9.09081 2.74129 9.09084 3.00087 8.93061 3.16107ZM11.191 3.16107L10.3707 3.98139C10.2105 4.14159 9.95094 4.14162 9.7907 3.98139C9.6305 3.82118 9.6305 3.56161 9.7907 3.4014L10.611 2.58109C10.7712 2.42088 11.0308 2.42088 11.191 2.58109C11.3512 2.74129 11.3512 3.00087 11.191 3.16107Z" fill="white"/>
<path d="M0.410156 7.40991C0.607031 7.40991 0.779297 7.43449 0.926953 7.47551C0.869066 7.66199 0.852852 7.71775 0.820312 8.29582C0.713672 8.25481 0.582449 8.23023 0.410156 8.23023C0.180441 8.23023 0 8.04973 0 7.82007C0 7.59035 0.180441 7.40991 0.410156 7.40991Z" fill="white"/>
<path d="M13.9992 7.82007C13.9992 8.04973 13.8188 8.23023 13.5891 8.23023C13.4168 8.23023 13.2855 8.25481 13.1789 8.29582C13.17 8.13838 13.1868 7.84443 13.0723 7.47551C13.2199 7.43449 13.3922 7.40991 13.5891 7.40991C13.8188 7.40991 13.9992 7.59035 13.9992 7.82007Z" fill="white"/>
<path d="M0.927734 7.4748C1.29688 7.56506 1.54297 7.74553 1.74805 7.90139C2.00235 8.09004 2.19099 8.22952 2.60115 8.22952C3.0113 8.22952 3.1918 8.09004 3.4461 7.90136C3.74141 7.67985 4.12969 7.40921 4.81055 7.40921C5.49959 7.40921 5.86053 7.67988 6.15584 7.90136C6.41019 8.09004 6.59063 8.22952 7.00079 8.22952C7.41095 8.22952 7.59139 8.09004 7.84574 7.90136C8.14105 7.67985 8.50199 7.40921 9.19103 7.40921C9.87192 7.40921 10.2602 7.67988 10.5555 7.90136C10.8098 8.09001 10.9903 8.22952 11.4004 8.22952C11.8106 8.22952 11.9992 8.09004 12.2535 7.90136C12.4586 7.74551 12.7047 7.56507 13.0738 7.47478C12.9873 7.15245 12.8432 6.85519 12.6578 6.58887H1.3438C1.15841 6.85519 1.01425 7.15245 0.927734 7.4748Z" fill="white"/>
<path d="M12.6627 9.87012C12.9774 9.42111 13.1674 8.87926 13.1797 8.29509C13.0157 8.35251 12.8927 8.45095 12.7449 8.55759C12.4496 8.7791 12.0887 9.0498 11.3997 9.0498C10.7188 9.0498 10.3579 8.77907 10.0625 8.55759C9.80825 8.36892 9.60041 8.22949 9.19025 8.22949C8.78009 8.22949 8.59145 8.36892 8.33715 8.55759C8.05007 8.7791 7.6809 9.0498 7.00004 9.0498C6.31918 9.0498 5.95001 8.77907 5.66293 8.55759C5.40863 8.36892 5.21998 8.22949 4.80983 8.22949C4.39967 8.22949 4.19183 8.36892 3.93753 8.55759C3.64222 8.77907 3.28128 9.0498 2.60039 9.0498C1.91136 9.0498 1.55042 8.77907 1.25511 8.55759C1.1074 8.45095 0.984375 8.35251 0.820312 8.29509C0.832672 8.87929 1.02268 9.42111 1.3373 9.87012H12.6627Z" fill="white"/>
</svg>
