<svg width="32" height="32" viewBox="0 0 32 32" fill="none" xmlns="http://www.w3.org/2000/svg">
<g clip-path="url(#clip0)">
<path d="M30.244 12.5253L27.7373 12.2067C27.5307 11.5707 27.276 10.9573 26.9787 10.3747L28.5267 8.38133C29.1533 7.57467 29.08 6.436 28.364 5.74267L26.264 3.64267C25.564 2.92 24.4253 2.848 23.6173 3.47333L21.6267 5.02133C21.044 4.724 20.4307 4.46933 19.7933 4.26267L19.4747 1.76C19.3547 0.756 18.5027 0 17.4933 0H14.5067C13.4973 0 12.6453 0.756 12.5253 1.756L12.2067 4.26267C11.5693 4.46933 10.956 4.72267 10.3733 5.02133L8.38133 3.47333C7.576 2.848 6.43733 2.92 5.74267 3.636L3.64267 5.73467C2.92 6.436 2.84667 7.57467 3.47333 8.38267L5.02133 10.3747C4.72267 10.9573 4.46933 11.5707 4.26267 12.2067L1.76 12.5253C0.756 12.6453 0 13.4973 0 14.5067V17.4933C0 18.5027 0.756 19.3547 1.756 19.4747L4.26267 19.7933C4.46933 20.4293 4.724 21.0427 5.02133 21.6253L3.47333 23.6187C2.84667 24.4253 2.92 25.564 3.636 26.2573L5.736 28.3573C6.43733 29.0787 7.57467 29.1507 8.38267 28.5253L10.3747 26.9773C10.9573 27.276 11.5707 27.5307 12.2067 27.736L12.5253 30.2373C12.6453 31.244 13.4973 32 14.5067 32H17.4933C18.5027 32 19.3547 31.244 19.4747 30.244L19.7933 27.7373C20.4293 27.5307 21.0427 27.276 21.6253 26.9787L23.6187 28.5267C24.4253 29.1533 25.564 29.08 26.2573 28.364L28.3573 26.264C29.08 25.5627 29.1533 24.4253 28.5267 23.6173L26.9787 21.6253C27.2773 21.0427 27.532 20.4293 27.7373 19.7933L30.2387 19.4747C31.2427 19.3547 31.9987 18.5027 31.9987 17.4933V14.5067C32 13.4973 31.244 12.6453 30.244 12.5253ZM16 22.6667C12.324 22.6667 9.33333 19.676 9.33333 16C9.33333 12.324 12.324 9.33333 16 9.33333C19.676 9.33333 22.6667 12.324 22.6667 16C22.6667 19.676 19.676 22.6667 16 22.6667Z" fill="#FFDC5D"/>
</g>
<defs>
<clipPath id="clip0">
<rect width="32" height="32" fill="white"/>
</clipPath>
</defs>
</svg>
