<svg width="128" height="128" viewBox="0 0 128 128" fill="none" xmlns="http://www.w3.org/2000/svg">
<path d="M93.6494 75.0468L93.6507 75.0484C96.7815 78.9535 96.3014 84.8643 92.1372 88.0355C87.4125 91.6599 83.314 94.1274 76.9727 97.4556M93.6494 75.0468L75.1138 93.9137M93.6494 75.0468C92.154 73.1836 90.0765 71.9378 87.6932 71.699C85.3225 71.4615 83.0572 72.2602 81.23 73.7188L81.2267 73.7215M93.6494 75.0468L81.2267 73.7215M76.9727 97.4556L75.1138 93.9137M76.9727 97.4556C76.9731 97.4553 76.9735 97.4551 76.974 97.4549L75.1138 93.9137M76.9727 97.4556C74.487 98.7608 71.3696 99.0549 68.5415 98.0648C65.5631 97.0222 63.0705 94.6079 62.0265 90.9395L62.0243 90.9316C61.6108 89.4671 61.2869 87.6474 60.9781 85.9023L60.9332 85.6483C60.8622 85.2471 60.7907 84.8426 60.7176 84.4355M75.1138 93.9137C72.0595 95.5182 67.2463 94.6676 65.8738 89.8447C65.508 88.5493 65.2063 86.8426 64.8677 84.9269C64.562 83.1978 64.2263 81.2984 63.7861 79.3772C63.4575 77.9371 62.2107 76.9029 60.7415 76.8546M60.7176 84.4355C60.8359 83.0841 61.0504 81.6952 61.3689 80.2681C61.2857 80.6297 60.9649 80.8635 60.6174 80.8527L60.6406 80.1055L60.6408 80.1L60.6408 80.0979L60.6409 80.0949L60.7415 76.8546M60.7176 84.4355C60.4721 83.069 60.2084 81.673 59.8871 80.2706C59.9605 80.5847 60.2481 80.8405 60.61 80.8524L60.6346 80.1041L60.6348 80.0992L60.6348 80.0987L60.6349 80.0963L60.7415 76.8546M60.7176 84.4355C60.1411 91.0217 61.8487 96.7166 64.9189 101.593L64.9208 101.596C67.6334 105.912 66.3338 111.586 62.0351 114.298L62.0309 114.3C60.5146 115.255 58.8061 115.717 57.1267 115.717C54.0788 115.717 51.0853 114.199 49.3283 111.418L49.3237 111.411C41.0232 98.2124 41.0742 83.4628 46.3224 69.5597V50.7194C38.7459 43.8816 33.9144 34.1744 32.4028 23.0592C31.7966 18.6539 34.4176 13.7117 39.7474 13.0744L40.2222 17.046L39.7432 13.0749C42.2133 12.777 44.5952 13.3673 46.432 15.0069C48.1821 16.5692 48.9968 18.6905 49.2688 20.6663L49.269 20.6676C50.0776 26.5559 52.1268 30.642 55.3559 34.3304L70.0529 37.4902L74.8382 36.8464C74.8159 36.7795 74.7935 36.7122 74.771 36.6446C73.9038 34.0368 72.8823 30.9316 72.3155 29.0874C71.7159 27.1465 71.6089 24.9049 72.4533 22.8231C73.3487 20.6155 75.1774 18.9583 77.6394 18.2688L57.465 79.3966C57.8033 77.8695 59.1854 76.8063 60.7415 76.8546M81.2267 73.7215C79.9341 74.7555 78.3391 75.9376 76.6946 77.0655M81.2267 73.7215L76.6946 77.0655M76.6946 77.0655C76.6875 77.0236 76.6804 76.9815 76.6733 76.9394C76.6102 76.5649 76.5467 76.1803 76.482 75.789C76.2283 74.2538 75.9577 72.6167 75.6356 71.0967L75.691 53.3946C76.5545 53.2795 77.5235 53.1499 78.5308 53.0145C81.8117 52.5732 85.5548 52.0621 87.3417 51.7897C90.415 51.4616 92.7301 49.7808 93.8373 47.2787C94.8302 45.035 94.6446 42.6138 94.0155 40.7862C93.9615 40.6278 93.7128 39.9125 93.3463 38.8583C91.9751 34.914 88.9543 26.2249 88.31 24.2023C87.6662 22.175 86.3906 20.2828 84.4226 19.092C82.3976 17.8667 80.0012 17.6072 77.6409 18.2684L76.6946 77.0655Z" fill="url(#paint0_linear_3497_243)" stroke="black" stroke-width="8"/>
<path d="M63.0713 41.3818C69.6949 41.3818 75.0644 36.0123 75.0644 29.3887C75.0644 22.765 69.6949 17.3955 63.0713 17.3955C56.4476 17.3955 51.0781 22.765 51.0781 29.3887C51.0781 36.0123 56.4476 41.3818 63.0713 41.3818Z" fill="#CD9250" stroke="black" stroke-width="8"/>
<defs>
<linearGradient id="paint0_linear_3497_243" x1="63.9975" y1="17" x2="63.9975" y2="111.717" gradientUnits="userSpaceOnUse">
<stop stop-color="#1F1D83"/>
<stop offset="1" stop-color="#6866B9"/>
</linearGradient>
</defs>
</svg>
