<svg width="128" height="128" viewBox="0 0 128 128" fill="none" xmlns="http://www.w3.org/2000/svg">
<path d="M88.0612 76.3581L100.172 91.2938L115.838 102.444L96.8479 105.464L79.3588 113.456L86.2381 95.5002L88.0612 76.3581Z" fill="#2B3B47"/>
<mask id="mask0_3441_2" style="mask-type:alpha" maskUnits="userSpaceOnUse" x="79" y="76" width="37" height="38">
<path d="M88.0612 76.3581L100.172 91.2938L115.838 102.444L96.8479 105.464L79.3588 113.456L86.2381 95.5002L88.0612 76.3581Z" fill="#2B3B47"/>
</mask>
<g mask="url(#mask0_3441_2)">
<path d="M94.7083 98.3766L79.4091 113.441L115.788 102.459L94.7083 98.3766Z" fill="#1A2832"/>
<path d="M90.0118 96.6607L79.4089 113.441L75.2274 77.0987L93.1727 69.0698L115.787 102.459L97.6704 94.3486L90.373 84.0167L90.0118 96.6607Z" fill="#627685"/>
</g>
<path d="M95.2797 36.762L78.4343 68.9145L70.8079 104.402L51.3857 73.7376L24.4655 49.389L60.7331 47.9013L95.2797 36.762Z" fill="#2B3B47"/>
<mask id="mask1_3441_2" style="mask-type:alpha" maskUnits="userSpaceOnUse" x="24" y="36" width="72" height="69">
<path d="M95.2797 36.762L78.4343 68.9145L70.8079 104.402L51.3857 73.7376L24.4655 49.389L60.7331 47.9013L95.2797 36.762Z" fill="#2B3B47"/>
</mask>
<g mask="url(#mask1_3441_2)">
<path d="M62.0746 64.734L24.53 49.4649L70.7446 104.327L62.0746 64.734Z" fill="#1A2832"/>
<path d="M61.5406 55.3105L24.5295 49.4648L84.4088 15.0669L111.734 40.1791L70.7441 104.326L71.2699 66.8603L83.73 46.4914L61.5406 55.3105Z" fill="#627685"/>
</g>
<path d="M35.2623 83.8395L28.4872 89.9931L23.606 97.7353L21.6644 88.7912L17.4 80.6928L26.1167 83.4834L35.2623 83.8395Z" fill="#2B3B47"/>
<mask id="mask2_3441_2" style="mask-type:alpha" maskUnits="userSpaceOnUse" x="17" y="80" width="19" height="18">
<path d="M35.2623 83.8395L28.4872 89.9931L23.606 97.7353L21.6644 88.7912L17.4 80.6928L26.1167 83.4834L35.2623 83.8395Z" fill="#2B3B47"/>
</mask>
<g mask="url(#mask2_3441_2)">
<path d="M24.9758 87.5855L17.4088 80.7164L23.5978 97.7119L24.9758 87.5855Z" fill="#1A2832"/>
<path d="M25.666 85.3077L17.4088 80.7162L34.5684 77.7602L38.8625 86.0744L23.5977 97.7117L26.969 88.8857L31.6845 85.1423L25.666 85.3077Z" fill="#627685"/>
</g>
<path d="M40.944 25.7724L34.203 27.0806L28.058 30.145L30.2956 23.6531L30.7142 16.7991L35.2176 21.9829L40.944 25.7724Z" fill="#2B3B47"/>
<mask id="mask3_3441_2" style="mask-type:alpha" maskUnits="userSpaceOnUse" x="28" y="16" width="13" height="15">
<path d="M40.944 25.7724L34.203 27.0806L28.058 30.145L30.2956 23.6531L30.7142 16.7991L35.2176 21.9829L40.944 25.7724Z" fill="#2B3B47"/>
</mask>
<g mask="url(#mask3_3441_2)">
<path d="M32.8884 24.169L30.7105 16.8174L28.0616 30.1265L32.8884 24.169Z" fill="#1A2832"/>
<path d="M34.2186 22.9775L30.7111 16.8177L42.8666 21.6037L42.3829 28.6076L28.0622 30.1267L33.6609 25.7794L38.1426 25.2149L34.2186 22.9775Z" fill="#627685"/>
</g>
<path d="M97.3013 5.4578L99.924 19.8577L106.305 33.0306L92.5227 28.102L77.9243 27.0415L89.0836 17.5701L97.3013 5.4578Z" fill="#2B3B47"/>
<mask id="mask4_3441_2" style="mask-type:alpha" maskUnits="userSpaceOnUse" x="77" y="5" width="30" height="29">
<path d="M97.3013 5.4578L99.924 19.8577L106.305 33.0306L92.5227 28.102L77.9243 27.0415L89.0836 17.5701L97.3013 5.4578Z" fill="#2B3B47"/>
</mask>
<g mask="url(#mask4_3441_2)">
<path d="M93.6865 22.5878L77.9637 27.0494L106.266 33.022L93.6865 22.5878Z" fill="#1A2832"/>
<path d="M91.1787 19.7246L77.9635 27.0493L88.4629 1.2583L103.379 2.46119L106.266 33.0219L97.137 20.9819L96.0439 11.4157L91.1787 19.7246Z" fill="#627685"/>
</g>
</svg>
