<svg width="36" height="36" viewBox="0 0 36 36" fill="none" xmlns="http://www.w3.org/2000/svg">
<path d="M30.734 5.26601C23.7129 -1.75515 12.288 -1.75585 5.26613 5.26601C-1.75572 12.2879 -1.75503 23.7121 5.26613 30.7339C12.2873 37.7558 23.7122 37.7558 30.734 30.7339C37.7552 23.7121 37.7552 12.2872 30.734 5.26601ZM25.1016 25.1015C24.5607 25.6424 23.6838 25.6424 23.1428 25.1015L18.0001 19.9587L12.6128 25.346C12.0719 25.8869 11.195 25.8869 10.6541 25.346C10.1131 24.805 10.1131 23.9282 10.6541 23.3872L16.0413 18L10.8986 12.8572C10.3576 12.3163 10.3576 11.4387 10.8986 10.8985C11.4395 10.3575 12.3164 10.3575 12.8573 10.8985L18.0001 16.0412L22.8977 11.1436C23.4386 10.6027 24.3155 10.6027 24.8564 11.1436C25.3973 11.6846 25.3973 12.5615 24.8564 13.1024L19.9588 18L25.1016 23.1427C25.6425 23.6837 25.6425 24.5605 25.1016 25.1015Z" fill="#FF3737"/>
</svg>
