<svg width="36" height="36" viewBox="0 0 36 36" fill="none" xmlns="http://www.w3.org/2000/svg">
<path d="M18 0C8.05891 0 0 8.05891 0 18C0 27.9411 8.05891 36 18 36C27.9411 36 36 27.9412 36 18C36 8.05884 27.9411 0 18 0ZM21 29.5325C21 30.2115 20.4495 30.762 19.7705 30.762H16.3974C15.7184 30.762 15.1679 30.2115 15.1679 29.5325V15.846C15.1679 15.167 15.7183 14.6165 16.3974 14.6165H19.7705C20.4495 14.6165 21 15.167 21 15.846V29.5325ZM18 12.287C16.3143 12.287 14.9478 10.9204 14.9478 9.23478C14.9478 7.54912 16.3143 6.18261 18 6.18261C19.6857 6.18261 21.0522 7.54912 21.0522 9.23478C21.0522 10.9204 19.6857 12.287 18 12.287Z" fill="#25B7D3"/>
</svg>
