<svg id="Capa_1" enable-background="new 0 0 512 512" height="512" viewBox="0 0 512 512" width="512" xmlns="http://www.w3.org/2000/svg"><g><g><g><g><path d="m120.94 220.74h30v79.391h-30z" fill="#ebf4fe"/></g><g><path d="m102.974 0h30v60.097h-30z" fill="#00c3ef"/></g><g><path d="m53.546 148.598h36.527v30h-36.527z" fill="#949da3"/></g><g><path d="m53.546 204.517h36.527v30h-36.527z" fill="#949da3"/></g></g><g><path d="m447.488 103.318c-24.847 0-45.062-20.214-45.062-45.061v-12.805c0-8.305-6.757-15.062-15.062-15.062h-3.148c-8.305 0-15.061 6.757-15.061 15.062v57.866h-78.984v-30h48.984v-27.866c0-24.847 20.214-45.062 45.061-45.062h3.148c24.847 0 45.062 20.214 45.062 45.062v12.805c0 8.305 6.757 15.061 15.062 15.061s15.061-6.756 15.061-15.061v-58.257h49.451v30h-19.451v28.257c0 24.847-20.214 45.061-45.061 45.061z" fill="#d2e5fc"/></g></g><g><path d="m397.887 237.424h-75.275c-29.224 0-57.467 10.546-79.54 29.7l-29.368 25.485h-213.704v72.856l160.749 24.172 239.689-13.806h47.796l-23.776-74.415z" fill="#fed8cd"/><path d="m272.187 482.497-36.871-117.031h201.074l.321 64.049-35.716 52.982z" fill="#fdbba7"/><path d="m494.157 333.441c0-17.687-14.338-32.025-32.025-32.025h-13.554c16.822-.963 30.167-14.904 30.167-31.967 0-17.687-14.338-32.025-32.025-32.025h-51.486c-17.687 0-32.025 14.338-32.025 32.025 0 17.687 14.338 32.025 32.025 32.025h13.554c-16.822.963-30.167 14.904-30.167 31.967 0 17.687 14.338 32.025 32.025 32.025h23.065l10.849 10.366 17.571-10.366c17.688 0 32.026-14.338 32.026-32.025z" fill="#fec7b7"/><path d="m489.759 461.54c0-17.687-14.338-32.025-32.025-32.025h22.241c17.687 0 32.025-14.338 32.025-32.025 0-17.687-14.338-32.025-32.025-32.025h-51.485c-17.687 0-32.025 14.338-32.025 32.025 0 17.687 14.338 32.025 32.025 32.025h-22.241c-17.687 0-32.025 14.338-32.025 32.025 0 17.687 14.338 32.025 32.025 32.025h51.486c17.686 0 32.024-14.338 32.024-32.025z" fill="#fdaa98"/><path d="m390.681 482.208v-59.165c0-18.449-14.956-33.405-33.405-33.405-18.449 0-33.405 14.956-33.405 33.405v12.982c0-38.968-31.59-70.559-70.559-70.559h-253.312v72.856h208.732l41.901 56.642c7.926 10.715 20.465 17.036 33.793 17.036h76.463c16.454 0 29.792-13.338 29.792-29.792z" fill="#fec7b7"/></g><g><path d="m180.909 350.466h-30.969v-24.205h-30v24.205h-60.902v15l75.613 10.365 46.258-10.365z" fill="#707c84"/><path d="m119.94 380.466v24.204h30v-24.204h30.969v-15h-121.871v15z" fill="#55636d"/></g><g><path d="m305.172 45.048h-154.232l-8.837 42.364 75.267 15.906 87.802-15.906z" fill="#55636d"/><path d="m142.103 87.412-.355 1.701 9.192 40.988h154.232v-42.689z" fill="#3b4b51"/></g><g><path d="m151.309 45.048h-67.258v42.364l33.629 15.906 33.629-15.906z" fill="#707c84"/><path d="m84.051 87.412h67.258v147.105h-67.258z" fill="#55636d"/></g></g></svg>