<?xml version="1.0" standalone="no"?>
<!DOCTYPE svg PUBLIC "-//W3C//DTD SVG 1.1//EN" "http://www.w3.org/Graphics/SVG/1.1/DTD/svg11.dtd" >
<svg xmlns="http://www.w3.org/2000/svg">
<metadata>Generated by IcoMoon</metadata>
<defs>
<font id="icomoon" horiz-adv-x="1024">
<font-face units-per-em="1024" ascent="960" descent="-64" />
<missing-glyph horiz-adv-x="1024" />
<glyph unicode="&#x20;" horiz-adv-x="512" d="" />
<glyph unicode="&#xe900;" glyph-name="left-chevron" d="M829.44 839.252l-392.573-391.252 392.573-391.252-121.151-120.748-513.729 512 513.729 512 121.151-120.748z" />
<glyph unicode="&#xe901;" glyph-name="Monster-1" d="M75.85 134.341c14.291 10.275 32.095 21.664 51.209 30.767-34.295-28.303-59.105-67.493-67.054-117.898-10.414-66.114 90.591-94.502 101.090-27.867 10.081 63.964 56.94 89.927 112.062 95.044 25.299-65.309 88.564-111.677 162.8-111.677h170.348c72.856 0 135.246 44.621 161.453 108.008 3.966-2.533 7.495-5.713 11.409-9.941 2.637-2.848 7.739-16.073 10.693-27.954 4.054-16.25 4.105-33.249 4.246-50.458 0.575-67.561 105.405-67.632 104.828 0-0.351 40.533-5.364 79.304-21.804 114.386 24.093-20.511 34.996-58.895 43.33-86.832 19.305-64.609 120.499-37.058 101.090 27.866-18.556 62.060-45.514 118.178-99.972 155.812-40.517 28.006-91.971 30.663-140.557 25.281v407.838c45.653 6.745 131.491 33.492 93.909 139.684-45.234 127.84-32.060 9.522-95.988-31.239-12.386 84.353-84.858 149.172-172.634 149.172h-170.348c-96.495 0-174.715-78.22-174.715-174.715v-9.976c-32.531 13.191-71.721 44.465-74.253 119.173-4.211 124.030-190.281-312.162 74.253-253.512v-333.46c-77.224 31.554-169.456 2.517-238.294-46.964-54.356-39.082-2.117-130.075 52.901-90.537zM679.454 392.673h-48.675l-50.701-62.373-55.944 62.373h-49.234l-39.242-88.58c0 0-12.755 58.268-21.071 88.58h-46.369v31.1h311.202v-31.1h0.034zM530.23 830.422c101.509 0 183.818-82.292 183.818-183.817 0-101.527-82.292-183.818-183.818-183.818-96.931 0-176.163 75.093-183.136 170.242-0.331 4.49-0.681 8.998-0.681 13.576 0 27.692 6.306 53.863 17.279 77.416 29.229 62.774 92.703 106.401 166.538 106.401zM499.669 622.319c2.132-71.459 13.347-126.040 26.906-126.040s24.756 54.564 26.906 126.040c66.131 2.218 116.151 12.404 116.151 24.652s-50.020 22.45-116.151 24.651c-2.132 71.459-13.347 126.040-26.906 126.040s-24.756-54.564-26.906-126.040c-38.647-1.294-71.756-5.311-92.635-10.884-13.225-3.53-21.42-7.688-23.045-12.143-0.191-0.542-0.471-1.082-0.471-1.624 0.017-12.248 50.020-22.451 116.151-24.652z" />
<glyph unicode="&#xe902;" glyph-name="Monster-2" d="M525.34 871.47c-178.947 0-323.998-137.492-323.998-307.1 0-105.038 55.72-197.687 140.592-253.056 0.317-17.971 1.206-60.332 1.994-97.479 0.771-36.461 17.903-41.655 38.253-11.6l46.652 68.896c5.23-1.543 10.662-2.615 15.993-3.923 2.951-10.829 6.857-25.178 11.181-41.086 9.12-33.543 33.611-38.22 54.681-10.444l32.186 42.411c2.464 0.117 4.945 0.183 7.392 0.352 5.331-28.28 24.423-128.573 26.42-126.814 1.778 1.576 42.276 99.791 60.834 144.935 6.102 2.145 12.186 4.275 18.104 6.74 5.632-9.806 13.46-23.402 22.145-38.472 17.183-29.838 30.861-24.458 30.577 12.002l-0.435 53.877c85.359 55.301 141.432 148.236 141.432 253.642-0.004 169.627-145.073 307.119-324.003 307.119zM572.478 447.027c5.080 0 12.757-12.456 12.757-31.246 0-18.775-7.677-31.231-12.757-31.231s-12.757 12.456-12.757 31.231c0 18.79 7.678 31.246 12.757 31.246zM661.876 463.79c-47.356 0-85.895 39.209-85.895 87.385s38.539 87.37 85.895 87.37c47.355 0 85.894-39.194 85.894-87.37s-38.539-87.385-85.894-87.385zM520.462 384.55c-2.229 0.402-9.488 10.829-9.488 31.231 0 20.451 7.309 30.894 9.472 31.246 2.213-0.352 9.521-10.779 9.521-31.246-0.018-20.435-7.276-30.846-9.505-31.231zM414.803 463.79c-47.355 0-85.894 39.209-85.894 87.385s38.539 87.37 85.894 87.37c47.356 0 85.895-39.194 85.895-87.37s-38.539-87.385-85.895-87.385zM1000.175 288.061c-4.207 0-7.678-1.089-10.779-2.615l-58.587 36.847c17.517 50.96 27.106 106.042 27.106 163.54 0 261.052-197.185 472.67-440.418 472.67s-440.418-211.599-440.418-472.654c0-86.113 21.557-166.759 59.040-236.292l-98.534-49.25c-3.621 2.549-8.146 4.19-13.745 4.19-31.231 0-31.75-48.143-1.693-49.97-11.567-14.215-5.55-41.958 18.154-41.958 8.498 0 14.65 3.621 18.591 8.85l0.654-1.324c-13.78-13.477-8.381-43.752 16.395-43.752 15.388 0 23.266 11.718 23.769 23.838l105.29 52.62c28.381-30.66 60.682-57.095 95.969-78.518l-25.9-57.481c-3.452-4.124-5.683-9.204-6.488-14.398l-2.549-5.667 2.363-1.056c0.889-8.717 6.303-16.496 17.634-18.706 30.074-5.868 55-22.53 81.872-36.478 28.279-14.684 53.274 28.581 24.91 43.3-1.056 0.552-2.095 1.123-3.152 1.676l19.043 42.276c34.801-9.488 71.226-14.567 108.775-14.567 55.083 0 107.771 10.947 156.366 30.777l88.56-95.567 2.984 2.765c3.621-0.787 7.377-0.721 10.963 0.756 37.097 15.254 61.488 40.801 87.689 70.522 21.154 24.005-13.629 59.594-34.902 35.455-1.324-1.51-2.648-3.034-3.972-4.56l-47.473 51.245c39.292 30.927 73.572 68.695 101.433 111.642l45.277-28.479c-1.241-13.378 6.588-27.793 23.651-27.793 25.43 0 30.493 31.951 15.272 44.826l1.843 2.951c3.956-5.18 10.074-8.766 18.523-8.766 22.328 0 28.933 24.625 19.949 39.343 28.233 3.584 27.127 49.766-3.467 49.766zM517.497 63.47c-215.122 0-390.129 189.474-390.129 422.382s175.007 422.38 390.129 422.38 390.129-189.473 390.129-422.382c0-232.908-175.023-422.38-390.129-422.38z" />
<glyph unicode="&#xe903;" glyph-name="Monster-3" d="M987.64 696.893c0 116.216-94.204 210.42-210.42 210.42h-528.217c-116.216 0-210.42-94.204-210.42-210.42v-475.251c-23.71-22.374-38.583-54.016-38.583-89.182 0-67.784 54.954-122.739 122.739-122.739 49.063 0 91.276 28.859 110.92 70.458 21.268-17.709 48.611-28.372 78.447-28.372 29.834 0 57.177 10.663 78.447 28.372 19.643-41.599 61.857-70.458 110.92-70.458 44.725 0 83.76 23.999 105.211 59.761 21.451-35.744 60.484-59.761 105.211-59.761 33.594 0 64.027 13.517 86.181 35.402 21.847-33.919 59.852-56.437 103.185-56.437 67.785 0 122.739 54.954 122.739 122.738 0 34.12-13.933 64.966-36.413 87.213v498.256h0.055zM901.297 413.684l-20.655 13.517c-17.638 11.529-33.179 3.848-34.715-17.186l-8.493-116.758c-1.536-21.018-9.016-22.156-16.733-2.548l-56.22 142.906c-7.716 19.607-22.624 20.782-33.287 2.604l-87.608-149.214c-10.679-18.179-27.974-18.179-38.636 0l-87.608 149.214c-10.68 18.178-27.649 17.98-37.896-0.416l-82.079-147.262c-4.281-7.698-9.686-11.962-15.233-13.21-7.248-1.628-14.728 2.205-20.511 11.511-0.398 0.634-0.85 1.121-1.23 1.807l-40.37 73.404c-10.155 18.468-27.016 18.686-37.642 0.487l-36.178-61.911c-0.397 2.206-0.687 4.446-0.687 6.777v341.019c0 10.067 3.975 19.172 10.356 25.987l81.862-170.881c9.108-19.011 26.113-20.294 37.967-2.872l126.589 185.915h60.429l57.069-181.071c6.343-20.096 20.042-21.614 30.614-3.379l106.98 184.45h50.617l38.291-150.658c5.187-20.421 14.89-20.801 21.648-0.85l33.341 98.361v-219.743h0.017v-0.002zM806.604 851.727c25.173 0 45.593-20.42 45.593-45.593s-20.42-45.592-45.593-45.592-45.593 20.42-45.593 45.592c0 25.173 20.42 45.593 45.593 45.593zM291.089 851.727c25.173 0 45.593-20.42 45.593-45.593s-20.42-45.592-45.593-45.592-45.593 20.42-45.593 45.592c0 25.173 20.42 45.593 45.593 45.593z" />
<glyph unicode="&#xe904;" glyph-name="Monster-4" d="M116.657 287.703c25.314 0 50.937-3.67 76.107-10.468 17.195-63.015 18.443-129.955-0.596-188.577-41.696-128.346 13-168.090 122.18-88.764 35.494 25.784 78.204 43.036 123.373 52.058 41.389-123.611 107.208-123.611 148.599 0 45.168-9.022 87.879-26.274 123.373-52.058 109.178-79.325 163.876-39.58 122.18 88.764-19.039 58.622-17.794 125.562-0.596 188.577 25.17 6.798 50.791 10.468 76.107 10.468 134.948 0 155.848 64.299 46.67 143.624-7.125 5.172-13.995 10.778-20.65 16.673 6.653 5.895 13.507 11.501 20.65 16.673 109.178 79.325 88.278 143.624-46.67 143.624-24.303 0-48.857-0.343-73.050-0.18-20.071 66.072-22.585 137.296-2.459 199.227 41.698 128.347-13 168.089-122.18 88.764-109.181-79.325-286.183-79.325-395.361 0s-163.881 39.58-122.183-88.766c20.126-61.95 17.612-133.156-2.458-199.227-24.194-0.163-48.75 0.18-73.050 0.18-134.947 0-155.848-64.299-46.67-143.624 7.125-5.172 13.997-10.778 20.65-16.673-6.653-5.895-13.507-11.501-20.65-16.673-109.145-79.323-88.261-143.622 46.685-143.622zM350.889 460.495c-74.316 0-134.566-66.396-134.566 7.92s60.248 134.566 134.566 134.566c74.319 0 134.567-60.248 134.567-134.566s-60.248-7.92-134.567-7.92zM530.933 468.414c0 74.316 60.248 134.566 134.567 134.566s134.566-60.248 134.566-134.566c0-74.319-60.248-7.92-134.566-7.92s-134.567-66.396-134.567 7.92z" />
<glyph unicode="&#xe905;" glyph-name="Plus" d="M575.887 511.887v448.113h-127.775v-448.113h-448.113v-127.775h448.113v-448.113h127.775v448.113h448.113v127.775h-448.113z" />
<glyph unicode="&#xe906;" glyph-name="Refresh" d="M1023.675 512.001v447.999l-150.399-150.399c-92.481 92.799-220.161 150.399-361.602 150.399-282.879 0-511.36-229.119-511.36-512.002s228.481-511.998 511.36-511.998c238.402 0 438.082 163.197 494.721 383.997h-133.119c-52.799-149.121-194.242-255.999-361.599-255.999-212.161 0-384.001 171.841-384.001 384 0 212.161 171.841 384.001 384.001 384.001 105.921 0 200.961-44.16 270.399-113.602l-206.401-206.399 447.999 0.003z" />
<glyph unicode="&#xe907;" glyph-name="Right-chevron" d="M194.56 839.252l392.573-391.252-392.573-391.252 121.151-120.748 513.729 512-513.729 512-121.151-120.748z" />
<glyph unicode="&#xe908;" glyph-name="Settings" d="M1000.319 313.344l-108.031 84.737c2.047 16.385 3.583 33.024 3.583 49.92s-1.536 33.535-3.583 49.92l108.288 84.737c9.727 7.68 12.545 21.504 6.144 32.767l-102.401 177.408c-6.401 11.009-19.711 15.617-31.231 11.009l-127.488-51.456c-26.369 20.224-55.296 37.375-86.527 50.431l-19.2 135.679c-2.306 12.031-12.801 21.504-25.601 21.504h-204.799c-12.799 0-23.297-9.473-25.344-21.504l-19.2-135.679c-31.231-13.056-60.16-29.952-86.527-50.431l-127.488 51.456c-11.52 4.351-24.833 0-31.231-11.009l-102.403-177.408c-6.401-11.009-3.583-24.833 6.144-32.767l108.031-84.737c-2.047-16.385-3.583-33.024-3.583-49.92s1.536-33.535 3.583-49.92l-108.031-84.737c-9.727-7.68-12.545-21.503-6.144-32.767l102.401-177.408c6.4-11.008 19.711-15.616 31.231-11.008l127.488 51.456c26.369-20.225 55.296-37.376 86.527-50.432l19.2-135.679c2.047-12.031 12.545-21.504 25.344-21.504h204.799c12.799 0 23.297 9.473 25.344 21.504l19.2 135.679c31.231 13.056 60.161 29.952 86.527 50.432l127.488-51.456c11.52-4.352 24.833 0 31.231 11.008l102.401 177.408c6.403 11.007 3.585 24.831-6.142 32.767zM511.872 268.801c-99.072 0-179.201 80.128-179.201 179.2s80.129 179.198 179.201 179.198c99.072 0 179.2-80.128 179.2-179.2s-80.128-179.198-179.2-179.198z" />
<glyph unicode="&#xe909;" glyph-name="Shield" d="M933.773 800.002c-174.732 0-308.593 49.922-421.791 159.998-113.184-110.076-247.038-159.998-421.756-159.998 0-286.633-59.312-697.259 421.756-864.002 481.101 166.746 421.791 577.369 421.791 864.002z" />
<glyph unicode="&#xe90a;" glyph-name="Store" d="M341.333 799.372c0 55.356 45.037 100.392 100.393 100.392 4.911 0 9.736-0.371 14.462-1.056-21.6-27.357-34.541-61.854-34.541-99.336v-140.549h60.235v140.549c0 28.016 11.548 53.375 30.118 71.604 18.57-18.229 30.118-43.588 30.118-71.604v-140.549h-60.236v-120.471h-60.235v120.471h-80.314v-722.823h563.596l-32.856 722.823h-119.132v-120.471h-60.235v120.471h-90.354v140.549c0 37.482-12.94 71.98-34.541 99.336 0 0 6.802 1.998 23.825 1.998 55.356 0 101.069-45.978 101.069-101.334v-140.549h60.235v140.549c0 88.57-72.057 160.628-160.627 160.628h-10.039c-25.188 0-49.034-5.843-70.275-16.221-21.241 10.379-45.086 16.221-70.274 16.221-88.57 0-160.628-72.057-160.628-160.628v-140.549h60.235v140.549zM281.098 658.823h-129.17l-32.856-722.823h162.026v722.823z" />
<glyph unicode="&#xe90b;" glyph-name="Up-chevron" d="M120.748 130.56l391.252 392.573 391.252-392.573 120.748 121.151-512 513.729-512-513.729 120.748-121.151z" />
<glyph unicode="&#xe90c;" glyph-name="Down-chevron" d="M903.252 765.44l-391.252-392.573-391.252 392.573-120.748-121.151 512-513.729 512 513.729-120.748 121.151z" />
<glyph unicode="&#xe90d;" glyph-name="Arrow-down" horiz-adv-x="546" d="M233.066 919.984v-847.116l-139.648 140.329c-15.584 15.657-40.91 15.718-56.568 0.133-15.66-15.585-15.718-40.912-0.136-56.569l208-209.009c0.012-0.014 0.026-0.024 0.038-0.038 15.584-15.616 40.992-15.667 56.628-0.003 0.012 0.014 0.026 0.024 0.038 0.038l208.001 209.009c15.578 15.654 15.524 40.984-0.137 56.569s-40.984 15.524-56.569-0.133l-139.648-140.326v847.116c0 22.092-17.908 40-40 40s-40-17.908-40-40z" />
<glyph unicode="&#xe90e;" glyph-name="Arrow-up" horiz-adv-x="546" d="M313.067-23.985v847.117l139.647-140.328c15.585-15.658 40.912-15.718 56.569-0.134 15.66 15.584 15.718 40.912 0.137 56.57l-208 209.008c-0.012 0.014-0.026 0.024-0.038 0.036-15.584 15.618-40.992 15.668-56.628 0.004-0.012-0.014-0.026-0.024-0.038-0.036l-208-209.008c-15.58-15.656-15.526-40.984 0.136-56.57 15.658-15.584 40.984-15.524 56.568 0.134l139.648 140.324v-847.117c0-22.091 17.908-39.997 40-39.997s40 17.906 40 39.997z" />
<glyph unicode="&#xe90f;" glyph-name="Az-coin" d="M0 448c0-282.212 229.605-512 512-512 282.305 0 512 229.695 512 512s-229.695 512-512 512c-282.439 0-512-229.83-512-512zM394.019 202.24h-127.779l185.589 491.52h114.834l191.097-491.52h-130.571l-38.84 104.667h-157.612l-36.718-104.667zM468.465 413.346h80.607l-40.698 113.554-39.909-113.554z" />
<glyph unicode="&#xe910;" glyph-name="Mouse" horiz-adv-x="658" d="M426.898 612.224h231.398v20.38c0 169.962-129.452 310.231-294.975 327.378v-281.905c30.194-10.702 53.922-35.181 63.577-65.853zM431.623 483.573c0-56.496-45.974-102.469-102.469-102.469-56.517 0-102.469 45.974-102.469 102.469v66.033h-226.685v-251.505c0-181.508 147.647-329.154 329.132-329.154 181.508 0 329.154 147.646 329.154 329.154v245.815h-226.662v-60.343zM329.156 615.643c-18.854 0-34.156-15.325-34.156-34.157v-97.913c0-18.834 15.302-34.158 34.156-34.158 18.832 0 34.157 15.323 34.157 34.158v97.913c0 18.832-15.325 34.157-34.157 34.157zM294.998 678.073v281.927c-3.165-0.319-6.331-0.706-9.473-1.116-160.945-21.405-285.525-159.556-285.525-326.285v-14.687h233.379c10.703 27.985 33.314 50.119 61.618 60.161z" />
<glyph unicode="&#xe911;" glyph-name="armor" d="M801.412-64v360.039c0 16.538 6.736 31.547 17.598 42.41 10.854 10.859 25.863 17.595 42.408 17.595h128.015v105.988h-0.095c-0.007 10.165-5.2 20.070-14.555 25.667-55.062 32.971-82.359 101.774-82.359 168.35 0 57.084 21.877 105.528 54.638 143.702 28.745 33.494 12.588 85.535-30.025 96.924l-233.24 62.311c-13.209 3.542-27.576-2.368-34.215-14.977-41.778-79.324-142.060-107.245-218.512-61.295-23.706 14.247-43.301 34.625-56.648 58.943-5.908 13.175-20.661 20.5-35.062 16.651l-230.609-61.633c-42.611-11.387-58.766-63.43-30.022-96.924 75.206-87.638 76.393-247.703-26.87-311.956-9.787-4.94-16.499-15.085-16.499-26.798v-104.955h128.010c16.543 0 31.549-6.736 42.407-17.595 10.861-10.863 17.597-25.872 17.597-42.41v-360.037h578.039zM313.449 356.036h397.961c16.569 0 30.002-13.433 30.002-30.002s-13.433-30.002-30.002-30.002h-397.961c-16.569 0-30.002 13.433-30.002 30.002 0 16.571 13.433 30.002 30.002 30.002zM313.449 236.026h397.961c16.569 0 30.002-13.43 30.002-30.005 0-16.567-13.433-30.003-30.002-30.003h-397.961c-16.569 0-30.002 13.436-30.002 30.003 0 16.574 13.433 30.005 30.002 30.005zM313.449 116.019h397.961c16.569 0 30.002-13.436 30.002-30.003 0-16.574-13.433-30.003-30.002-30.003h-397.961c-16.569 0-30.002 13.429-30.002 30.003 0 16.567 13.433 30.003 30.002 30.003zM162.94 296.009c0.006 0.001 0.010 0.004 0 0.004l-0.018-0.016c0.004-0.004 0.008 0.004 0.008 0.010l0.004 0.004c0.004 0.010 0.001 0.008 0 0.002h-128.005v-330.039c0-16.567 13.433-30.003 30.003-30.003h98.009v360.038zM861.008 295.996l0.007-0.012c0-0.004-0.007 0.001-0.007 0.012l-0.007 0.002c0 0 0-0.002 0-0.002v-360.040h98.011c16.574 0 30.003 13.429 30.003 30.003v330.041l-128.007-0.004z" />
<glyph unicode="&#xe912;" glyph-name="burger" d="M814-63.963h-604c-115.781 0-210 94.215-210 210 0 16.581 13.418 29.996 30 29.996h963.997c16.589 0 30.003-13.414 30.003-29.996 0-115.785-94.215-210-210-210zM512 960c-281.22 0-512-174.96-512-390 0-16.582 13.418-30 30-30h963.997c16.589 0 30.003 13.418 30.003 30 0 215.040-230.78 390-512 390zM291.21 728.79l-60.001-60.001c-11.717-11.717-30.702-11.72-42.421 0-11.718 11.718-11.718 30.704 0 42.422l60 60c11.718 11.718 30.704 11.718 42.422 0s11.72-30.704 0-42.421zM473.21 728.79l-60-60.001c-11.718-11.717-30.702-11.72-42.422 0-11.718 11.718-11.718 30.704 0 42.422l60 60c11.718 11.718 30.704 11.718 42.422 0s11.72-30.704 0-42.421zM653.21 728.79l-60.001-60.001c-11.717-11.717-30.702-11.72-42.422 0-11.717 11.718-11.717 30.704 0 42.422l60.001 60c11.717 11.718 30.704 11.718 42.422 0s11.72-30.704 0-42.421zM818.542 728.79l-59.999-60.001c-11.717-11.717-30.702-11.72-42.423 0-11.717 11.718-11.717 30.704 0 42.422l59.999 60c11.717 11.718 30.705 11.718 42.423 0s11.717-30.704 0-42.421zM30 418.018c14.4 0 27-1.798 37.8-4.798-4.234-13.64-5.42-17.718-7.8-60-7.8 3-17.398 4.797-30 4.797-16.802 0-30 13.202-30 30 0 16.802 13.198 30 30 30zM1024.015 388.018c0-16.798-13.195-30-30.003-30-12.603 0-22.199-1.798-29.996-4.797-0.651 11.516 0.578 33.016-7.804 60 10.803 3 23.406 4.798 37.8 4.798 16.808 0 30.003-13.198 30.003-30zM67.786 413.272c27-6.602 45-19.802 60-31.202 18.6-13.798 32.398-24 62.398-24s43.202 10.202 61.802 24.003c21.6 16.202 50 35.997 99.801 35.997 50.398 0 76.798-19.798 98.398-35.997 18.605-13.801 31.803-24.003 61.802-24.003s43.198 10.202 61.802 24.003c21.601 16.202 48.001 35.997 98.398 35.997 49.802 0 78.201-19.798 99.8-35.997 18.6-13.798 31.803-24.003 61.806-24.003 29.996 0 43.798 10.202 62.398 24.003 14.994 11.399 32.995 24.597 59.999 31.201-6.327 23.576-16.874 45.319-30.435 64.798h-827.537c-13.56-19.479-24.104-41.222-30.432-64.799zM926.186 238.071c23.018 32.842 36.915 72.474 37.815 115.202-11.995-4.2-20.992-11.4-31.803-19.2-21.599-16.202-47.996-36.002-98.392-36.002-49.803 0-76.2 19.802-97.807 36.002-18.597 13.8-33.799 23.998-63.799 23.998s-43.798-10.198-62.398-23.998c-20.998-16.202-48-36.002-97.8-36.002s-76.802 19.802-97.8 36.002c-18.6 13.8-32.399 23.998-62.398 23.998s-45.202-10.198-63.803-23.998c-21.6-16.2-48-36.002-97.802-36.002-50.398 0-76.798 19.802-98.398 36.002-10.804 7.8-19.802 15-31.802 19.2 0.904-42.73 14.802-82.36 37.814-115.202h828.372z" />
<glyph unicode="&#xe913;" glyph-name="car" horiz-adv-x="1969" d="M475.509 376.769c-110.845 0-200.587-89.803-200.587-200.649 0-110.844 89.804-200.649 200.587-200.649 110.72 0 200.587 89.805 200.587 200.649 0 110.846-89.866 200.649-200.587 200.649zM475.509 115.499c-33.316 0-60.62 27.175-60.62 60.558 0 33.379 27.304 60.559 60.62 60.559 33.254 0 60.496-27.179 60.496-60.559 0-33.382-27.179-60.558-60.496-60.558zM1936.037 340.509l-32.815 266.906c-6.451 51.227-51.224 88.801-102.888 85.984l-71.893-4.009-223.193 201.088c-21.543 19.351-49.286 29.997-78.218 29.997l-453.467 0.063c-101.77 0-200.463-34.757-279.809-98.508l-253.004-203.28-340.239-85.044c-43.712-10.897-74.398-50.225-74.398-95.252v-98.070c-14.404 0.063-26.114-11.585-26.114-25.989v-129.695c0-18.473 14.967-33.439 33.442-33.439h192.070c-0.814 8.326-2.506 16.282-2.506 24.797 0 139.465 112.975 252.314 252.377 252.314s252.314-112.85 252.314-252.314c0-8.578-1.753-16.534-2.567-24.797h531.869c-0.748 8.326-2.442 16.282-2.442 24.797 0 139.465 112.979 252.314 252.314 252.314 139.469 0 252.251-112.85 252.251-252.314 0-8.578-1.623-16.534-2.505-24.797h179.168c18.479 0 33.382 14.966 33.382 33.439v122.306c0.315 18.412-14.651 33.504-33.13 33.504zM1263.009 668.474l-632.63-32.001 121.116 97.381c65.822 52.918 147.608 81.725 232.088 81.725h279.426v-147.105zM1368.096 673.798v141.719h41.149c14.273 0 27.987-5.26 38.573-14.842l129.134-116.231-208.857-10.646zM1507.044 376.769c-110.844 0-200.586-89.803-200.586-200.649 0-110.844 89.805-200.649 200.586-200.649 110.789 0 200.594 89.805 200.594 200.649 0 110.846-89.805 200.649-200.594 200.649zM1507.044 115.499c-33.375 0-60.558 27.175-60.558 60.558 0 33.379 27.183 60.559 60.558 60.559 33.256 0 60.558-27.179 60.558-60.559 0-33.382-27.238-60.558-60.558-60.558z" />
<glyph unicode="&#xe914;" glyph-name="car-door" horiz-adv-x="1078" d="M904.984 335.721h-168.421v-112.284h168.421v112.284zM1073.405-57.263h-1066.668v561.404l449.123 449.123h561.404c14.891 0 29.168-5.915 39.699-16.443 10.526-10.528 16.443-24.808 16.443-39.697v-954.386zM502.456 840.983l-336.842-336.842h795.507v336.842h-458.665z" />
<glyph unicode="&#xe915;" glyph-name="car-light" horiz-adv-x="1347" d="M892.766 819.468c8.084 21.558 32.067 32.741 53.625 24.657l360.152-132.851c21.558-7.949 32.606-31.933 24.792-53.491-6.333-16.842-22.232-27.352-39.208-27.352-4.716 0-9.701 0.808-14.417 2.695l-360.152 132.716c-21.558 7.949-32.606 32.067-24.792 53.625zM496.64 918.499c-279.175-57.398-483.166-236.867-483.166-449.617 0-212.748 203.992-392.217 483.166-449.615v899.232zM1306.543 375.107l-360.152 132.849c-21.423 7.949-45.541-3.099-53.625-24.657-7.949-21.558 3.099-45.541 24.792-53.491l360.286-132.849c4.716-1.752 9.566-2.695 14.282-2.695 16.977 0 32.876 10.375 39.074 27.352 7.949 21.558-3.099 45.541-24.657 53.491zM687.966 818.659v119.242c-51.604 0-101.457-4.446-149.693-11.992v-914.053c48.236-7.68 98.088-11.992 149.693-11.992v119.242c69.524 11.183 124.766 163.301 124.766 349.775 0 186.476-55.107 338.594-124.766 349.777zM1306.543 38.939l-360.152 132.985c-21.423 7.949-45.541-3.099-53.625-24.792-7.949-21.558 3.099-45.541 24.792-53.491l360.286-132.985c4.716-1.752 9.566-2.56 14.282-2.56 16.977 0 32.876 10.375 39.074 27.217 7.949 21.693-3.099 45.676-24.657 53.625z" />
<glyph unicode="&#xe916;" glyph-name="engine" horiz-adv-x="1219" d="M1047.864 499.877v-67.437h-51.878v233.435h-82.998v41.5h-217.873v51.874h72.626v171.185h-326.81v-171.185h67.435v-51.874h-217.871v-41.5h-82.999v-274.936h-103.749v108.938h-103.749v-321.623h103.749v108.939h103.749v-280.123h266.816l16.914-41.501h504.759v280.123h51.878v-72.621h171.184v326.807h-171.184z" />
<glyph unicode="&#xe917;" glyph-name="fuel" horiz-adv-x="922" d="M737.377 960l-45.711-52.572 86.856-80c2.647-2.649 6.262-6.195 9.144-9.143l-18.289-20.571c-29.271-29.273-8.269-67.159 2.289-77.714l54.856-54.857v-436.571c0-73.144-28.682-73.144-36.572-73.144s-36.572 0-36.572 73.144v292.571c0 93.689-73.139 146.286-146.284 146.286v146.286c0 40.324-31.068 73.143-73.144 73.143h-438.857c-43.83 0-73.143-31.066-73.143-73.143v-877.714h585.144v658.286c0 0 73.144 0 73.144-73.143v-292.571c0-146.289 90.675-146.289 109.711-146.289 20.163 0 109.716 0 109.716 146.289v511.999c0 73.143-20.92 88.445-45.716 112l-116.572 107.428zM95.093 740.572h438.857v-219.429h-438.857v219.429z" />
<glyph unicode="&#xe918;" glyph-name="heart" d="M511.709 825.024c-223.201 195.221-506.998 23.694-511.651-208.838-1.186-59.262 15.921-116.987 49.972-170.205h220.711l39.257 65.431c11.399 18.997 38.985 19.609 51.030 0.67l82.828-130.156 120.737 254.883c10.529 22.24 41.909 22.946 53.522 1.379l103.496-192.207h251.775c186.514 291.498-182.096 623.574-461.676 379.043zM677.298 401.839l-83.866 155.75-118.593-250.361c-10.089-21.301-39.766-23.15-52.419-3.264l-85.933 135.036-23.024-38.373c-5.422-9.035-15.185-14.563-25.722-14.563h-190.242c5.963-6.241-25.82 25.478 393.066-391.243 11.699-11.637 30.612-11.637 42.313 0 412.441 410.309 387.111 385.013 393.065 391.243h-222.234c-11.037-0.002-21.181 6.058-26.412 15.775z" />
<glyph unicode="&#xe919;" glyph-name="man" horiz-adv-x="683" d="M328.849 547.080c114.025 0 206.46 92.435 206.46 206.46s-92.435 206.46-206.46 206.46c-114.025 0-206.46-92.435-206.46-206.46s92.435-206.46 206.46-206.46zM339.943 437.155c-60.319 2.435-120.508-7.357-176.944-28.789s-107.954-54.057-151.452-95.916l-11.547-12.937v-292.369c0.18-9.523 2.235-18.916 6.047-27.648 3.812-8.727 9.306-16.623 16.169-23.228s14.959-11.793 23.828-15.269c8.868-3.476 18.334-5.166 27.858-4.983h530.697c9.523-0.182 18.99 1.508 27.858 4.983s16.964 8.664 23.831 15.269c6.861 6.605 12.356 14.501 16.168 23.228 3.812 8.732 5.865 18.125 6.047 27.648v291.447l-11.088 13.858c-43.218 41.984-94.555 74.706-150.864 96.149-56.311 21.444-116.408 31.161-176.608 28.555z" />
<glyph unicode="&#xe91a;" glyph-name="mic" horiz-adv-x="751" d="M375.446 301.38c102.786 0 186.112 83.326 186.112 186.112v286.395c0 102.788-83.326 186.113-186.112 186.113s-186.113-83.325-186.113-186.113v-286.395c0-102.786 83.327-186.112 186.113-186.112zM626.927 663.373v-65.36h32.679v-110.52c0-156.682-127.471-284.153-284.157-284.153-156.682 0-284.155 127.468-284.155 284.153v110.52h32.681v65.36h-98.043v-175.881c0-181.702 139.382-331.438 316.837-347.972v-138.158h-197.053v-65.362h459.47v65.362h-197.055v138.158c177.456 16.534 316.836 166.274 316.836 347.976v175.879l-98.041-0.002z" />
<glyph unicode="&#xe91b;" glyph-name="voltage" horiz-adv-x="532" d="M7.52 362.107h154.134l-56.265-426.107 419.62 622.593h-142.814l61.492 401.407-436.167-597.893z" />
<glyph unicode="&#xe91c;" glyph-name="wave" horiz-adv-x="1347" d="M606.316 569.263c-409.6 86.232-628.772-8.982-687.158-67.368l134.737-687.158 1158.737 40.426c166.176 413.192 471.579 1204.546 363.789 1064.42-134.737-175.158-458.105-458.11-970.105-350.32z" />
<glyph unicode="&#xe91d;" glyph-name="close" d="M1024 899.667l-60.333 60.333-451.667-451.667-451.667 451.667-60.333-60.333 451.667-451.667-451.667-451.667 60.333-60.333 451.667 451.667 451.667-451.667 60.333 60.333-451.667 451.667z" />
<glyph unicode="&#xe91e;" glyph-name="fire" horiz-adv-x="751" d="M697.569 490.801c-19.416 43.694-47.638 82.913-82.902 115.2l-29.1 26.7c-0.989 0.882-2.178 1.508-3.464 1.823s-2.63 0.309-3.914-0.017c-1.283-0.326-2.467-0.962-3.447-1.852s-1.727-2.007-2.175-3.254l-13-37.3c-8.101-23.4-23-47.3-44.1-70.8-1.4-1.5-3-1.9-4.1-2s-2.8 0.1-4.3 1.5c-1.399 1.2-2.1 3-2 4.801 3.7 60.2-14.3 128.1-53.7 202-32.6 61.4-77.9 109.3-134.5 142.7l-41.3 24.3c-5.4 3.2-12.3-1-12-7.3l2.2-48c1.5-32.8-2.3-61.8-11.3-85.9-11-29.5-26.8-56.9-47-81.5-14.057-17.096-29.991-32.56-47.5-46.1-42.169-32.416-76.459-73.953-100.3-121.5-23.783-47.961-36.171-100.766-36.2-154.3 0-47.2 9.3-92.902 27.7-135.999 17.767-41.499 43.406-79.155 75.5-110.899 32.4-32.003 70-57.201 111.9-74.704 43.4-18.2 89.4-27.395 136.9-27.395s93.5 9.196 136.9 27.3c41.797 17.394 79.804 42.769 111.9 74.697 32.4 32.003 57.8 69.4 75.501 110.899 18.371 42.981 27.798 89.257 27.696 136.002 0 48.8-9.994 96.2-29.894 140.9z" />
<glyph unicode="&#xe91f;" glyph-name="arrow-right" horiz-adv-x="1728" d="M64 512c-35.346 0-64-28.654-64-64s28.654-64 64-64v128zM1709.254 402.745c24.992 24.994 24.992 65.516 0 90.51l-407.296 407.293c-24.992 24.994-65.51 24.994-90.509 0-24.992-24.994-24.992-65.516 0-90.51l362.042-362.038-362.042-362.042c-24.992-24.992-24.992-65.51 0-90.509 24.998-24.992 65.517-24.992 90.509 0l407.296 407.295zM64 384h1600v128h-1600v-128z" />
<glyph unicode="&#xe920;" glyph-name="network" d="M477.521 602.963c-4.798 4.42-8.647 9.751-11.315 15.675-2.671 5.924-4.105 12.318-4.222 18.801-0.115 6.485 1.092 12.926 3.548 18.938 2.456 6.014 6.112 11.475 10.75 16.062 4.638 4.584 10.161 8.2 16.243 10.628 6.080 2.43 12.593 3.623 19.151 3.508 6.558-0.113 13.024-1.532 19.014-4.172s11.383-6.445 15.855-11.19c8.625-9.154 13.323-21.261 13.099-33.773-0.225-12.51-5.349-24.446-14.296-33.295-8.949-8.847-21.020-13.915-33.673-14.135s-24.896 4.422-34.154 12.954zM293.276 853.333l46.070-45.554c-45.788-45.28-71.512-106.691-71.512-170.723s25.724-125.443 71.512-170.725l-46.070-45.553c-28.727 28.401-51.513 62.119-67.061 99.228-15.546 37.109-23.548 76.883-23.548 117.050s8.002 79.94 23.548 117.050c15.548 37.109 38.334 70.827 67.061 99.227zM730.726 853.333c28.727-28.4 51.514-62.118 67.058-99.227s23.545-76.884 23.545-117.050c0-40.167-8.001-79.941-23.545-117.050s-38.332-70.827-67.058-99.228l-46.073 45.553c45.786 45.282 71.516 106.693 71.516 170.725s-25.73 125.443-71.516 170.723l46.073 45.554zM385.382 762.289l46.037-45.522c-10.583-10.464-18.978-22.886-24.706-36.557s-8.674-28.325-8.674-43.123 2.946-29.45 8.674-43.123c5.728-13.67 14.122-26.093 24.706-36.557l-46.037-45.522c-33.581 33.206-52.446 78.242-52.446 125.201s18.865 91.996 52.446 125.202zM638.618 762.289c33.581-33.206 52.446-78.242 52.446-125.202s-18.865-91.995-52.446-125.201l-46.037 45.522c10.583 10.464 18.978 22.886 24.706 36.557s8.674 28.324 8.674 43.123-2.946 29.451-8.674 43.123c-5.728 13.67-14.122 26.093-24.706 36.557l46.037 45.522zM256 384h512c35.348 0 64-28.653 64-64v-213.333c0-35.348-28.652-64-64-64h-512c-35.347 0-64 28.652-64 64v213.333c0 35.347 28.653 64 64 64zM652.33 111.479c14.39 5.25 25.521 12.588 33.395 22.023v84.726h-83.562v-32.229h39.814v-36.605c-7.001-6.997-18.716-10.499-35.147-10.499-16.332 0-28.729 5.687-37.188 17.060-8.458 11.38-12.687 28.201-12.687 50.463v13.558c0.098 22.071 4.034 38.7 11.812 49.876 7.778 11.183 19.104 16.772 33.98 16.772 11.667 0 20.804-2.818 27.416-8.456 6.709-5.64 11.035-14.535 12.979-26.687h42.583c-2.621 22.944-11.033 40.393-25.228 52.353-14.193 12.055-33.881 18.082-59.062 18.082-18.084 0-33.883-4.13-47.396-12.394-13.416-8.166-23.723-20.027-30.916-35.581-7.098-15.462-10.648-33.785-10.648-54.982v-14.438c0.196-20.61 4.036-38.55 11.522-53.808 7.582-15.264 18.276-26.931 32.083-35.007 13.903-7.967 30.041-11.953 48.416-11.953 17.499 0 33.444 2.574 47.833 7.728zM490.456 186.586h-24.062v132.413h-42.583l-88.521-139.854 1.894-26.542h87.063v-45.937h42.146v45.937h24.062v33.983zM424.247 186.586v74.957l-2.771-4.813-44.188-70.144h46.959zM717.728 121.897l-7.441-8.909c-12.274-14.698-28.598-24.863-46.989-31.567l-0.179-0.068c-8.109-2.901-16.482-5.12-25.088-6.69h129.969c17.674 0 32.003 14.329 32.003 32.003v213.333c0 17.673-14.329 32-32.003 32h-141.060c20.23-3.211 38.79-10.646 54.225-23.736 21.845-18.428 33.041-44.188 36.352-73.145l4.076-35.642h-3.864v-97.58zM676.602 283.479c-4.105 7.983-9.474 14.767-16.105 20.354-14.193 12.055-33.881 18.082-59.062 18.082-18.084 0-33.883-4.13-47.396-12.394-13.416-8.166-23.723-20.027-30.916-35.581-7.098-15.462-10.648-33.785-10.648-54.982v-14.438c0.059-6.226 0.45-12.199 1.174-17.934 1.502-11.913 4.437-22.774 8.806-32.584 0.495-1.113 1.009-2.212 1.542-3.29 7.582-15.264 18.276-26.931 32.083-35.007 13.903-7.967 30.041-11.953 48.416-11.953 17.499 0 33.444 2.574 47.833 7.728 14.39 5.25 25.521 12.588 33.395 22.023v84.726h-83.562v-32.229h39.814v-36.605c-7.001-6.997-18.716-10.499-35.147-10.499-15.368 0-27.249 5.031-35.645 15.107-0.345 0.41-0.687 0.84-1.022 1.27-0.175 0.225-0.347 0.457-0.521 0.683-8.458 11.38-12.687 28.201-12.687 50.463v13.558c0.098 22.071 4.034 38.7 11.812 49.876 7.778 11.183 19.104 16.772 33.98 16.772 11.667 0 20.804-2.818 27.416-8.456 6.709-5.64 11.035-14.535 12.979-26.687h42.583c-1.399 12.227-4.439 22.89-9.123 31.999zM537.401 336.856c12.632 7.714 26.356 12.661 40.843 15.144h-121.997v-1.001h42.146v-55.136c9.414 16.919 22.381 30.872 39.008 40.992zM466.394 186.586v132.413h-42.583l-88.521-139.854 1.894-26.542h87.063v-45.937h42.146v45.937h24.062v33.983h-24.062zM424.247 186.586h-46.959l44.188 70.144 2.771 4.813v-74.957zM498.394 120.607v-45.943h76.958c-12.367 2.594-24.16 6.963-35.189 13.285l-0.23 0.13c-14.208 8.308-25.946 19.292-35.202 32.529h-6.336zM392.247 120.607h-84.858l-4.77 66.758 103.573 163.635h32.636l0.575 1.001h-183.405c-17.673 0-32-14.327-32-32v-213.333c0-17.674 14.327-32.003 32-32.003h136.247v45.943zM594.206 250.231h16.544c-0.548 2.028-1.086 3.092-1.356 3.536-0.111 0.041-0.265 0.102-0.476 0.164-0.928 0.287-2.859 0.689-6.17 0.689-3.394 0-4.947-0.614-5.489-0.887-0.436-0.212-1.174-0.649-2.221-2.15-0.267-0.382-0.547-0.833-0.832-1.352zM609.608 253.665l-0.023 0.014c0.015-0.014 0.023-0.014 0.023-0.014zM192 320c0 35.347 28.653 64 64 64h512c35.348 0 64-28.653 64-64v-213.333c0-35.348-28.652-64-64-64h-512c-35.347 0-64 28.652-64 64v213.333z" />
<glyph unicode="&#xe921;" glyph-name="arrow-left" horiz-adv-x="1728" d="M1664 512c35.346 0 64-28.654 64-64s-28.654-64-64-64v128zM18.746 402.745c-24.992 24.994-24.992 65.516 0 90.51l407.296 407.293c24.992 24.994 65.51 24.994 90.509 0 24.992-24.994 24.992-65.516 0-90.51l-362.042-362.038 362.042-362.042c24.992-24.992 24.992-65.51 0-90.509-24.998-24.992-65.517-24.992-90.509 0l-407.296 407.295zM1664 384h-1600v128h1600v-128z" />
<glyph unicode="&#xe922;" glyph-name="fist" horiz-adv-x="778" d="M517.080 640v288c0 17.68-14.32 32-32 32h-64c-17.68 0-32-14.32-32-32v-293.86c10.040 3.56 20.68 5.86 31.94 5.86h96.060zM773.080 448.020c-0.020 70.68-57.32 127.98-127.981 127.98h-224.28c-17.56 0-31.8-14.14-31.8-31.7v-1.12c0-52.539 42.6-95.18 95.14-95.18h70.521c19.36 0 26.4-7.16 26.4-16v-32.4c0-8.58-7.18-15.56-15.76-16-89.040-4.56-128.319-49.419-192.099-145.1l-12.621-18.94c-1.163-1.749-2.661-3.25-4.406-4.421-1.745-1.169-3.704-1.983-5.763-2.396-2.060-0.412-4.181-0.415-6.241-0.006s-4.021 1.218-5.769 2.383l-26.62 17.76c-1.748 1.164-3.25 2.661-4.42 4.406s-1.985 3.704-2.396 5.763c-0.413 2.060-0.415 4.181-0.007 6.242s1.218 4.020 2.383 5.768l12.62 18.94c31.46 47.2 60.401 86.52 94.621 116.161-34.541 11.019-62.8 36.239-77.74 68.9-13.18-6.82-27.92-11.040-43.74-11.040h-64c-24.68 0-46.98 9.619-64 24.96-17.040-15.36-39.34-24.98-64-24.98h-64c-11.28 0-21.94 2.3-32 5.9v-155.86c0-67.9 26.96-133 74.98-181.021l52.999-53.020v-128h511.96v127.92l71.82 71.84c36.016 36.024 56.246 84.88 56.24 135.82l-0.040 176.44zM709.060 628.2v235.8c0 17.68-14.32 32-32 32h-64c-17.679 0-32-14.32-32-32v-224h64c22.561 0 43.88-4.62 64-11.8zM37.12 512h64c17.68 0 32 14.32 32 32v256c0 17.68-14.32 32-32 32h-64c-17.68 0-32-14.32-32-32v-256c0-17.68 14.32-32 32-32zM229.1 512h64c17.68 0 32 14.32 32 32v320c0 17.68-14.32 32-32 32h-64c-17.679 0-32-14.32-32-32v-320c0-17.68 14.321-32 32-32z" />
<glyph unicode="&#xe923;" glyph-name="star1" horiz-adv-x="1109" d="M514.088 920.446c12.773 39.309 68.384 39.309 81.157 0l93.531-287.86c5.712-17.58 22.094-29.482 40.579-29.482h302.675c41.327 0 58.513-52.89 25.079-77.185l-244.87-177.907c-14.955-10.865-21.212-30.124-15.5-47.703l93.535-287.859c12.766-39.313-32.222-71.996-65.661-47.701l-244.868 177.905c-14.954 10.865-35.203 10.865-50.157 0l-244.868-177.905c-33.439-24.294-78.43 8.388-65.657 47.701l93.531 287.859c5.712 17.58-0.545 36.838-15.5 47.703l-244.868 177.907c-33.438 24.294-16.253 77.185 25.079 77.185h302.673c18.485 0 34.866 11.902 40.579 29.482l93.531 287.86z" />
<glyph unicode="&#xe924;" glyph-name="glock" d="M631.816 797.56h-204.616v-102.308h204.616v102.308zM1006.948 797.568h-34.103v34.101c0 10.231-6.82 17.050-17.052 17.050h-102.306c-10.232 0-17.052-6.82-17.052-17.050v-34.103h-170.512v-119.359c0-10.231-6.82-17.050-17.052-17.050h-238.719c-10.232 0-17.052 6.82-17.052 17.050v119.361h-153.462v34.101c0 10.231-6.82 17.050-17.051 17.050h-102.308c-10.231 0-17.050-8.526-17.050-17.050v-34.103h-85.257c-10.231 0-17.051-8.526-17.051-17.051v-51.154c0-3.411 1.704-6.82 3.411-10.231l18.757-25.577c13.642-18.757 13.642-46.038 0-64.795l-18.757-25.577c-1.704-3.411-3.411-6.82-3.411-10.231v-51.152c0-10.232 6.82-17.052 17.051-17.052h64.796c17.050 0 32.397-8.528 40.923-22.168s10.231-32.395 1.704-46.039l-114.243-230.191c-20.462-44.335-11.935-95.49 18.757-134.705 25.577-27.283 61.385-44.335 102.308-44.335h192.68c30.693 0 57.974 17.052 71.616 46.039s8.526 61.387-11.935 83.55l-22.166 23.871c-3.411 5.116-3.411 8.528-3.411 13.644l44.334 139.821h90.372c76.73 0 138.117 61.383 138.117 138.113v32.399h102.306c10.232 0 17.052 6.82 17.052 17.052h204.616c10.232 0 17.052 6.82 17.052 17.049v51.154h34.103c10.232 0 17.052 6.82 17.052 17.051v153.462c-0.004 8.528-6.824 17.055-17.056 17.055zM137.331 814.619h68.205v-17.050h-68.205v17.050zM120.28 695.26h204.616c10.231 0 17.050-6.82 17.050-17.051s-6.82-17.051-17.050-17.051h-204.616c-10.231 0-17.050 6.82-17.050 17.051-0.002 8.524 6.82 17.051 17.050 17.051zM120.28 592.952c-10.231 0-17.050 6.82-17.050 17.051s6.82 17.051 17.050 17.051h204.616c10.231 0 17.050-6.82 17.050-17.051s-6.82-17.051-17.050-17.051h-204.616zM290.793 405.385c0-18.756-15.346-34.103-34.103-34.103s-34.103 15.348-34.103 34.103c0 18.76 15.346 34.103 34.103 34.103s34.103-15.344 34.103-34.103zM387.985 417.321l-13.642-42.627-47.743-153.461c0-1.704 0-1.704 0-3.412-1.705-13.64 1.704-27.279 10.231-37.511 0 0 0-1.704 1.705-1.704l22.166-25.58c11.935-13.64 15.346-30.691 6.82-47.743-6.82-17.048-22.166-25.575-40.923-25.575h-194.385c-30.692 0-57.974 11.936-75.026 34.103-23.872 27.283-28.988 66.499-13.642 98.898l112.539 226.779c13.642 25.58 11.935 56.271-3.411 80.142-1.704 1.704-1.704 3.412-3.411 5.116h64.795l-139.82-327.385c-8.526-20.46-5.115-44.335 10.231-61.383 10.231-13.644 27.281-20.464 47.743-20.464h81.846c22.166 0 42.628 13.644 49.45 35.807l124.474 373.424h32.395l-32.391-107.426zM222.588 234.873c0-18.756-15.346-34.103-34.103-34.103s-34.103 15.348-34.103 34.103c0 18.76 15.346 34.103 34.103 34.103s34.103-15.348 34.103-34.103zM597.717 492.347c0-57.971-46.039-104.010-104.014-104.010h-80.142l30.695 97.19c13.64-27.279 35.807-42.627 80.142-56.267 1.704 0 3.408-1.704 5.112-1.704 6.82 0 13.644 5.112 15.348 11.932 3.412 8.528-1.704 18.76-10.232 22.168-49.447 17.052-59.679 30.691-68.202 59.679 0 1.708-1.704 1.708-1.704 3.412h132.997v-32.399zM938.742 575.9h-187.564c0 18.757 15.348 34.103 34.103 34.103h153.461v-34.103zM938.742 797.568h-68.202v17.050h68.202v-17.050z" />
<glyph unicode="&#xe925;" glyph-name="rock" d="M512 960c-282.839 0-512-229.161-512-512 0-282.837 229.161-512 512-512 282.837 0 512 229.163 512 512 0 282.839-229.163 512-512 512zM836.956 93.934h-185.807l-231.227 271.073c-36.954 42.115-8.053 115.818 54.915 115.818h155.46l-174.658 205.007-174.039-204.179h-185.806l303.69 356.128c29.728 37.987 85.266 35.716 112.516 0l325.575-382.142c39.227-47.071 4.129-118.092-56.979-115.818-1.241 0-153.19-0.414-153.19-0.414l209.551-245.473z" />
<glyph unicode="&#xe926;" glyph-name="heart-like" horiz-adv-x="1113" d="M795.394 926.696c-97.373 0-184.525-47.341-238.859-119.968-27.75 37.184-63.786 67.387-105.249 88.211s-87.21 31.698-133.609 31.756c-165.157 0-299.112-134.493-299.112-300.726 0-64.019 10.221-123.195 27.975-178.068 84.999-268.987 346.991-429.84 476.644-473.952 18.29-6.456 48.417-6.456 66.707 0 129.652 44.112 391.644 204.965 476.641 473.952 17.755 54.873 27.977 114.049 27.977 178.068 0 166.233-133.957 300.726-299.115 300.726z" />
<glyph unicode="&#xe927;" glyph-name="drop" horiz-adv-x="819" d="M615.322 725.276c-92.483 124.749-186.292 225.676-187.235 226.68-4.783 5.13-11.478 8.044-18.488 8.044-7.013 0-13.71-2.912-18.49-8.044-0.938-1.004-94.748-101.931-187.231-226.68-126.332-170.401-190.386-302.681-190.386-393.151 0-218.419 177.693-396.124 396.108-396.124s396.11 177.7 396.11 396.124c0 90.47-64.056 222.748-190.387 393.151zM449.158 64.189c-20.763-4.91-42.168-7.398-63.612-7.398-152.429 0-276.44 124.017-276.44 276.449 0 21.012 6.469 59.085 37.289 121.129 3.097 6.237 10.229 9.332 16.905 7.352 6.672-1.985 10.947-8.487 10.13-15.4-0.708-5.965-1.064-11.587-1.064-16.701 0-163.389 116.207-305.321 276.316-337.459 6.591-1.331 11.377-7.066 11.49-13.793 0.119-6.733-4.467-12.631-11.015-14.177z" />
<glyph unicode="&#xe928;" glyph-name="punk" d="M707.645 346.259c-11.178 8.176-25.469 10.338-38.441 5.968l-298.666-129.753c-19.84-6.746-31.958-27.030-28.63-47.964 3.37-20.98 21.206-36.332 42.112-36.332h298.668c23.593 0 42.664 19.374 42.664 43.25v129.753c0.004 13.885-6.57 26.948-17.707 35.078zM1019.97 460.792c-8.192 35.119-27.734 64.528-53.547 80.663-18.944 11.852-40.407 15.615-60.76 10.814-0.623-0.152-1.409-0.373-2.261-0.623-36.807 98.469-97.092 170.091-174.825 217.247-45.056 27.331-93.049 44.619-141.324 53.921-30.851 5.945-56.721 7.793-75.153 7.416-7.59-0.231-16.847-0.965-27.566-2.374l-15.778 95.971c-4.723 28.704-35.492 44.589-61.169 31.575l-170.667-86.503c-23.628-11.976-30.952-42.62-15.35-64.23l47.482-65.765c-80.203-61.118-138.885-149.989-168.207-270.284-10.584 1.679-13.72 1.679-15.512 1.679-50.26 0.004-85.332-47.657-85.332-115.868 0-68.162 35.072-115.827 85.334-115.827 3.234 0 8.256 0.504 14.226 1.307 12.168-45.625 32.066-88.723 59.52-127.107 70.926-99.070 180.647-147.616 352.92-147.616 164.823 0 276.439 59.335 352.911 166.158 40.636 56.807 64.745 123.933 71.668 194.302 2.9-0.098 5.374-0.147 7.483-0.147 8.491 0 11.477 0.692 14.549 1.425 49.156 11.94 76.12 70.717 61.358 133.865zM394.079 851.841l27.989-170.243-4.309-2.188-53.638 74.312c-0.072 0.102-0.156 0.189-0.23 0.288l-43.622 60.419 73.81 37.412zM795.841 182.137c-60.621-84.673-146.723-130.445-283.841-130.445-146.589 0-230.221 37.003-283.847 111.907-49.834 69.669-68.078 160.592-51.586 250.929 21.492 117.764 71.612 199.907 142.88 254.574l50.73-70.264c0.508-0.704 1.060-1.359 1.602-2.023 0.276-0.339 0.532-0.704 0.818-1.032 0.542-0.627 1.126-1.201 1.698-1.788 0.318-0.326 0.618-0.681 0.946-0.995 0.458-0.442 0.948-0.836 1.424-1.253 0.474-0.418 0.932-0.858 1.42-1.251 0.352-0.284 0.73-0.529 1.090-0.801 0.64-0.483 1.272-0.977 1.934-1.419 0.448-0.3 0.92-0.555 1.378-0.835 0.598-0.369 1.188-0.757 1.802-1.093 0.512-0.28 1.044-0.513 1.564-0.77 0.584-0.29 1.158-0.602 1.754-0.866 0.586-0.257 1.19-0.464 1.786-0.696 0.55-0.213 1.090-0.45 1.646-0.641 0.862-0.292 1.74-0.529 2.62-0.764 0.304-0.083 0.602-0.19 0.91-0.265 0.668-0.164 1.35-0.274 2.026-0.406 0.526-0.102 1.048-0.233 1.578-0.316 0.51-0.079 1.028-0.11 1.542-0.17 0.704-0.083 1.406-0.186 2.114-0.233 0.78-0.053 1.566-0.045 2.35-0.055 0.446-0.004 0.89-0.041 1.338-0.030 0.542 0.012 1.086 0.073 1.628 0.105 1.924 0.116 3.847 0.322 5.76 0.708 0.34 0.069 0.676 0.174 1.016 0.251 0.881 0.201 1.765 0.398 2.642 0.657 2.425 0.718 4.813 1.665 7.139 2.845l64.729 32.827c2.085 1.058 4.051 2.273 5.898 3.623 0.008 0.006 0.016 0.010 0.020 0.014 1.593 1.166 3.072 2.453 4.469 3.812 0.229 0.223 0.475 0.428 0.7 0.655 0.266 0.27 0.504 0.562 0.762 0.838 0.516 0.551 1.040 1.095 1.524 1.67 2.159 2.567 4.002 5.375 5.505 8.357 0.016 0.030 0.037 0.059 0.049 0.087 0.467 0.931 0.893 1.881 1.294 2.842 0.029 0.079 0.070 0.152 0.102 0.231 0.291 0.716 0.541 1.45 0.795 2.182 0.115 0.334 0.254 0.661 0.365 0.999 0.131 0.419 0.233 0.854 0.356 1.277 0.188 0.663 0.393 1.322 0.553 1.995 0.406 1.713 0.68 3.465 0.877 5.231 0.057 0.509 0.139 1.012 0.176 1.525 0.016 0.207 0.012 0.418 0.025 0.625 0.127 2.088 0.127 4.196-0.049 6.319-0.020 0.235-0.061 0.47-0.086 0.707-0.094 0.933-0.193 1.865-0.348 2.798l-12.829 78.071c8.020 0.947 12.718 1.281 14.705 1.342 45.47 0.933 109.318-11.372 171.459-49.065 81.646-49.527 139.227-133.089 162.681-261.58 16.495-90.337-1.749-181.26-51.593-250.946zM615.494 399.028c0 23.876-19.116 43.254-42.668 43.254s-42.664-19.378-42.664-43.254c0-23.876 19.112-43.25 42.664-43.25s42.668 19.374 42.668 43.25zM587.719 602.61c-52.351-23.788-81.24-78.846-74.838-133.688 2.347-19.894 22.528-32.223 40.575-24.048l173.142 78.631c18.047 8.176 22.401 31.702 9.302 46.668-36.094 41.389-95.83 56.181-148.181 32.436zM460.505 440.959c-23.552 0-42.664-19.374-42.664-43.25s19.112-43.25 42.664-43.25c23.552 0 42.668 19.374 42.668 43.25s-19.116 43.25-42.668 43.25zM501.723 480.24c-16.47 52.679-65.196 90.739-122.583 90.479s-105.77-38.755-121.77-91.564c-5.846-19.116 7.722-38.707 27.478-38.621l189.74 0.819c19.755 0.090 33.108 19.812 27.136 38.887z" />
<glyph unicode="&#xe929;" glyph-name="ukulele" horiz-adv-x="975" d="M259.406 360.828c-16.109 16.101-42.22 16.106-58.326 0s-16.106-42.223-0.003-58.324l116.648-116.653c8.058-8.055 18.609-12.083 29.164-12.083 10.552 0 21.11 4.028 29.162 12.083 16.106 16.101 16.106 42.218 0.003 58.324l-116.648 116.653zM963.155 753.5l-38.849 38.853c-0.010 0.010-0.020 0.020-0.024 0.029l-116.653 116.655c-0.010 0.010-0.024 0.022-0.044 0.036l-38.844 38.849c-16.106 16.103-42.218 16.106-58.324 0.003-16.106-16.106-16.106-42.223 0-58.326l9.723-9.724-58.329-58.326-9.723 9.724c-16.106 16.106-42.223 16.106-58.329 0s-16.106-42.22 0-58.326l9.723-9.724-110.811-110.813c-9.655 1.375-19.412 2.064-29.19 2.064-55.069 0-106.831-21.437-145.755-60.36-9.853-9.853-18.626-20.596-26.244-32.124-78.316 0.773-151.855-29.32-207.063-84.527-112.559-112.567-112.559-295.727 0-408.284 54.525-54.521 127.019-84.553 204.139-84.558 0.010 0 0.016 0 0.026 0 77.1 0 149.591 30.032 204.121 84.558 55.369 55.374 85.402 129.629 84.543 207.067 11.522 7.617 22.265 16.389 32.11 26.239 46.017 46.017 67.291 111.25 58.285 174.939l110.816 110.819 9.723-9.721c8.055-8.054 18.608-12.078 29.16-12.078 10.557 0 21.109 4.024 29.164 12.078 16.106 16.106 16.106 42.22 0 58.326l-9.718 9.72 58.324 58.323 9.723-9.72c8.051-8.055 18.603-12.082 29.164-12.082 10.547 0 21.109 4.027 29.16 12.079 16.106 16.112 16.106 42.226-0.005 58.332zM551.024 360.809c-9.977-9.977-21.47-18.105-34.163-24.166-15.765-7.524-25.078-24.166-23.245-41.54 6.568-62.293-15.023-123.377-59.239-167.59-38.95-38.956-90.722-60.406-145.794-60.401-0.003 0-0.013 0-0.020 0-55.091 0.005-106.876 21.455-145.819 60.401-80.403 80.404-80.403 211.227 0 291.63 38.94 38.941 90.722 60.38 145.806 60.38 7.249 0 14.579-0.385 21.786-1.145 17.377-1.837 34.017 7.482 41.544 23.248 6.059 12.693 14.194 24.186 24.17 34.165 23.345 23.342 54.396 36.2 87.429 36.2 7.459 0 14.886-0.718 22.203-2.045l99.503-99.507c7.158-39.682-5.442-80.906-34.163-109.631zM622.924 549.358l-58.329 58.329 97.212 97.208 58.324-58.326-97.207-97.211zM778.459 704.895l-58.324 58.326 58.324 58.326 58.329-58.326-58.329-58.326zM424.658 354.402c30.37 0 54.991 24.62 54.991 54.989s-24.62 54.989-54.991 54.989c-30.371 0-54.991-24.62-54.991-54.989s24.62-54.989 54.991-54.989z" />
<glyph unicode="&#xe92a;" glyph-name="colud-melody" d="M822.96 678.504c-11.702 101.773-98.636 181.185-203.756 181.185-20.48 0-40.751-3.135-60.391-8.986-47.231 67.5-125.6 109.296-209.19 109.296-140.644-0.209-255.164-114.521-255.164-254.955 0-19.435 2.299-38.661 6.479-57.26-61.649-37.825-100.937-105.744-100.937-179.513 0-116.191 94.668-210.653 210.86-210.653h77.113v-212.947c-22.779-13.169-71.68-32.395-136.881-8.151-22.152 8.151-46.603-3.138-54.962-25.080-8.15-22.151 3.135-46.6 25.077-54.96 33.019-12.329 63.53-16.929 90.906-16.929 87.98 0 143.569 48.484 146.704 51.2 8.986 8.151 14.211 19.644 14.211 31.764v394.973l285.047 63.529v-356.52c-21.107-15.88-67.498-44.093-126.849-40.96-23.405 1.044-43.467-16.925-44.72-40.542-1.049-23.613 16.925-43.467 40.538-44.72 121.209-5.853 200.413 72.724 203.756 76.28 7.942 7.938 12.542 18.805 12.542 30.089v152.973h69.796c116.404 0 210.862 94.462 210.862 210.653 0 112.64-89.235 205.009-201.040 210.233zM813.138 342.884h-69.796v191.422c0 12.96-10.867 46.604-52.036 41.589l-370.105-82.549c-19.435-4.387-33.437-21.733-33.437-41.587v-108.876h-77.113c-69.172 0-125.597 56.214-125.597 125.178 0 52.036 33.019 99.265 82.129 117.237 10.867 3.971 36.78 23.197 24.869 56.007-7.524 20.689-12.539 41.587-12.539 63.321 0 93.414 76.278 169.482 169.9 169.482 65.622 0 122.671-37.616 152.973-96.131 14.209-27.794 42.84-27.794 58.933-18.808 17.764 9.822 37.196 14.837 57.676 14.837 66.040 0 119.747-55.171 119.747-119.327 0-27.168-1.671-29.675 4.391-40.124 17.551-30.72 69.796-21.316 69.796-21.316 69.173 0 125.6-56.214 125.6-125.179 0.209-68.964-56.218-125.178-125.391-125.178z" />
<glyph unicode="&#xe92b;" glyph-name="disk" horiz-adv-x="883" d="M383.283 707.896c-30.343 0-60.798-3.657-90.541-10.871-205.224-49.8-331.678-257.267-281.908-462.491 41.827-172.378 194.767-292.779 371.919-292.779 30.342 0 60.829 3.658 90.571 10.872 205.224 49.798 331.677 257.268 281.893 462.491-41.829 172.378-194.768 292.777-371.934 292.777zM456.482 22.055c-24.244-5.886-49.043-8.87-73.728-8.87-144.081 0-268.466 97.94-302.493 238.179-40.498 166.954 62.385 335.734 229.324 376.234 24.228 5.885 49.028 8.856 73.713 8.856 144.094 0 268.493-97.939 302.521-238.195 40.483-166.923-62.383-335.703-229.337-376.203zM480.002 348.372c-10.9 44.897-50.769 76.267-96.941 76.267-7.899 0-15.826-0.957-23.556-2.828l-44.599 183.812c-155.069-37.598-250.296-193.84-212.653-348.909l183.796 44.6c10.9-44.901 50.77-76.27 96.954-76.27 7.899 0 15.816 0.943 23.556 2.828l44.6-183.808c155.083 37.613 250.294 193.84 212.667 348.905l-183.826-44.597zM355.462 318.143c-3.686 15.198 5.685 30.568 20.868 34.255 2.228 0.54 4.488 0.812 6.73 0.812 13.097 0 24.428-8.926 27.528-21.684 3.683-15.201-5.685-30.572-20.858-34.258-15.229-3.665-30.642 5.918-34.269 20.875zM801.961 610.316l-9.428 4.071-1.956 10.014c-1.045 5.342-5.028 9.628-10.286 11.057-5.229 1.442-10.858-0.258-14.456-4.342l-6.773-7.7-10.215 1.228c-5.526 0.614-10.699-1.829-13.669-6.386-2.973-4.542-3.086-10.4-0.328-15.070l5.215-8.813-4.329-9.287c-2.302-4.929-1.585-10.745 1.826-14.986 3.415-4.244 8.916-6.2 14.258-4.986l10.042 2.256 7.514-6.956c2.684-2.486 6.172-3.799 9.714-3.799 1.716 0 3.443 0.3 5.088 0.943 5.071 1.928 8.612 6.585 9.128 11.988l0.971 10.198 8.944 4.986c4.756 2.641 7.585 7.758 7.313 13.185-0.244 5.427-3.573 10.241-8.573 12.399zM259.546 897.564l0.772-20.758c0.1-2.714 1.728-5.143 4.214-6.257 0.928-0.414 1.928-0.629 2.928-0.629 1.629 0 3.243 0.557 4.542 1.629l15.999 13.214 19.97-5.685c2.614-0.742 5.429 0.056 7.257 2.086 1.814 2 2.343 4.885 1.343 7.4l-7.628 19.313 11.557 17.213c1.514 2.258 1.614 5.171 0.271 7.529-1.358 2.358-3.957 3.757-6.628 3.572l-20.699-1.286-12.871 16.372c-1.672 2.128-4.442 3.128-7.086 2.571-2.657-0.557-4.772-2.571-5.457-5.199l-5.171-20.085-19.428-7.158c-2.542-0.943-4.342-3.243-4.628-5.943-0.3-2.7 0.971-5.329 3.271-6.785l17.473-11.114zM515.312 867.869l0.756-20.771c0.102-2.714 1.73-5.143 4.216-6.257 0.943-0.415 1.942-0.629 2.927-0.629 1.628 0 3.245 0.557 4.544 1.629l16.013 13.214 19.968-5.685c2.602-0.729 5.417 0.071 7.242 2.086 1.829 2.015 2.359 4.885 1.345 7.429l-7.631 19.285 11.557 17.229c1.515 2.258 1.614 5.171 0.272 7.529s-3.884 3.672-6.628 3.572l-20.717-1.258-12.842 16.342c-1.67 2.128-4.414 3.143-7.083 2.571-2.659-0.557-4.774-2.585-5.445-5.214l-5.169-20.113-19.414-7.143c-2.542-0.943-4.343-3.243-4.629-5.943-0.3-2.7 0.985-5.342 3.27-6.8l17.447-11.071zM859.983 839.137c-18.241 10.671-41.783 4.529-52.471-13.685-8.969-15.257-3.828-34.971 11.458-43.956 12.871-7.513 29.512-3.214 37.097 9.644 2.002 3.399 0.872 7.771-2.528 9.784-3.429 2.015-7.8 0.885-9.784-2.529-3.573-6.1-11.458-8.157-17.556-4.572-8.485 4.986-11.342 15.927-6.374 24.399 6.716 11.429 21.486 15.285 32.916 8.6 15.155-8.914 20.254-28.486 11.384-43.613-11.645-19.799-37.185-26.471-56.941-14.858-3.4 2-7.786 0.872-9.784-2.542-2.002-3.399-0.858-7.771 2.542-9.771 8.842-5.199 18.556-7.672 28.142-7.672 19.184 0 37.913 9.886 48.358 27.614 12.871 21.914 5.487 50.241-16.458 63.155zM304.982 800.817c-12.756-21.985-5.271-50.299 16.686-63.099 6.043-3.529 12.671-5.199 19.213-5.199 13.215 0 26.099 6.828 33.214 19.042 8.926 15.272 3.729 34.984-11.585 43.942-12.871 7.457-29.514 3.086-37.056-9.8-2-3.399-0.857-7.772 2.542-9.771 3.414-2 7.785-0.857 9.771 2.542 3.585 6.114 11.485 8.214 17.556 4.672 8.513-4.971 11.402-15.914 6.441-24.399-6.684-11.472-21.442-15.385-32.883-8.715-15.17 8.856-20.328 28.399-11.528 43.571 11.572 19.827 37.099 26.542 56.929 15.029 3.415-1.972 7.782-0.844 9.77 2.585 1.984 3.414 0.83 7.785-2.585 9.771-26.613 15.47-60.915 6.455-76.486-20.172zM653.199 791.692c-12.772-22-5.286-50.299 16.684-63.112 6.031-3.501 12.645-5.158 19.188-5.158 13.213 0 26.112 6.815 33.255 19.029 4.315 7.414 5.484 16.057 3.312 24.343-2.186 8.301-7.472 15.229-14.897 19.556-12.899 7.5-29.512 3.114-37.101-9.743-1.999-3.399-0.872-7.771 2.532-9.785 3.411-1.985 7.782-0.872 9.784 2.529 3.598 6.128 11.497 8.199 17.599 4.657 4.114-2.386 7.059-6.258 8.256-10.843 1.215-4.601 0.558-9.401-1.826-13.5-6.688-11.472-21.458-15.372-32.916-8.715-15.169 8.843-20.325 28.386-11.525 43.571 11.571 19.842 37.125 26.557 56.896 15.014 3.415-1.985 7.772-0.844 9.774 2.572 1.984 3.414 0.826 7.785-2.574 9.771-26.585 15.485-60.886 6.455-76.44-20.187zM550.905 703.741c5.572-3.171 11.628-4.672 17.616-4.672 12.426 0 24.498 6.5 31.084 18.070l107.682 189.496c9.756 17.157 3.743 38.956-13.4 48.699-17.171 9.743-38.954 3.729-48.7-13.4l-107.682-189.496c-9.756-17.154-3.757-38.939 13.4-48.697zM784.395 729.101l-158.18-24.699c-19.484-3.043-32.814-21.313-29.784-40.799 2.754-17.615 17.941-30.214 35.24-30.214 1.829 0 3.686 0.143 5.558 0.429l158.183 24.699c19.484 3.043 32.81 21.313 29.784 40.799-3.044 19.499-21.214 32.757-40.801 29.785zM446.69 742.288c5.6-13.942 19-22.428 33.156-22.428 4.428 0 8.926 0.829 13.284 2.572 18.301 7.342 27.2 28.128 19.859 46.441l-59.597 148.625c-7.345 18.3-28.114 27.2-46.444 19.857-18.298-7.342-27.2-28.128-19.855-46.441l59.597-148.627z" />
<glyph unicode="&#xe92c;" glyph-name="fm" d="M877.998 728.609l-524.798 206.6c-21 8.2-44.6-2-53-23-8.2-21 2-44.6 23-53l331.799-130.6h-507.8c-69 0-125.2-56.2-125.2-125.2v-520.002c0-68.997 56.2-125.198 125.2-125.198h729.598c69.001 0 125.202 56.201 125.202 125.198v520.002c0 68.6-55.599 124.4-124.002 125.2zM920.4 83.21c0-24.003-19.599-43.602-43.602-43.602h-729.598c-24 0-43.6 19.599-43.6 43.602v519.999c0 24 19.6 43.6 43.6 43.6h729.598c24.003 0 43.602-19.6 43.602-43.6v-519.999zM404.8 513.2h-167c-22.6 0-40.8-18.199-40.8-40.8s18.2-40.8 40.8-40.8h167c22.601 0 40.8 18.199 40.8 40.8s-18.199 40.8-40.8 40.8zM687.8 564.2c-90.8 0-164.602-73.798-164.602-164.598s73.802-164.602 164.602-164.602c90.8 0 164.598 73.802 164.598 164.602s-73.798 164.598-164.598 164.598zM687.8 316.6c-45.801 0-83.001 37.2-83.001 83.001 0 45.797 37.2 82.997 83.001 82.997s83.001-37.2 83.001-82.997c0-45.601-37.2-83.001-83.001-83.001z" />
<glyph unicode="&#xe92d;" glyph-name="lock" horiz-adv-x="1152" d="M188.355-63.985h775.291c28.113 0 51.198 22.627 51.198 50.514v484.326c0 27.885-22.856 50.284-51.198 50.284h-49.37v70.626c0 94.854-37.027 200.223-97.369 263.764-60.112 63.541-146.281 104.454-240.678 104.454-0.229 0-0.229 0-0.229 0h-0.229c-94.397 0-180.563-40.913-240.679-104.225-60.338-63.541-97.365-168.909-97.365-263.764v-70.855h-49.373c-28.344 0-51.198-22.628-51.198-50.284v-484.326c0-27.887 22.855-50.514 51.198-50.514zM358.865 591.767c0 62.398 22.627 139.653 64.223 183.537v0.686c40.228 42.513 95.769 67.427 152.682 67.427h0.457c56.913 0 112.454-24.914 152.681-67.427v-0.457l-0.229-0.229c41.827-43.884 64.227-121.139 64.227-183.537v-70.626h-434.042v70.626z" />
<glyph unicode="&#xe92e;" glyph-name="call" d="M969.83 218.257l-102.475 82.639c-34.709 28.098-84.293 29.766-120.655 3.307l-97.515-71.071c-13.222-9.918-31.387-8.264-42.973 3.304l-160.321 145.448-147.099 161.972c-11.569 11.571-13.222 29.751-3.304 42.973l71.068 97.515c26.447 36.363 24.793 85.947-3.304 120.655l-82.639 102.473c-36.362 46.278-105.78 49.584-147.1 8.264l-89.251-89.251c-19.834-19.834-29.75-47.931-29.75-74.376 11.57-209.905 107.432-409.894 247.919-550.382s338.824-236.349 550.383-247.92c28.098-1.651 54.542 9.935 74.375 29.768l89.253 89.235c44.624 39.666 39.666 109.083-6.611 145.445z" />
<glyph unicode="&#xe92f;" glyph-name="phonk" horiz-adv-x="1600" d="M1460.166 613.304h-37.325c-20.602 25.052-46.426 45.826-75.853 60.754l23.475 22.916c20.998 20.511 20.998 53.782 0 74.292-21.005 20.506-55.059 20.506-76.064 0l-32.973-32.213-5.318 24.883c-23.494 109.942-131.974 196.064-246.957 196.064h-418.301c-114.989 0-223.46-86.122-246.954-196.058l-5.322-24.884-32.97 32.208c-21.010 20.506-55.052 20.506-76.062 0-20.999-20.511-20.999-53.782 0-74.292l23.472-22.916c-29.425-14.928-55.251-35.702-75.852-60.754h-37.322c-77.112 0-139.841-61.264-139.841-136.578v-348.451c0-75.309 62.728-136.576 139.83-136.576h94.131c57.708 0 107.34 34.323 128.673 83.168h874.762c21.318-48.838 70.938-83.168 128.646-83.168h94.131c77.107 0 139.827 61.267 139.827 136.576v348.451c-0.006 75.314-62.733 136.578-139.834 136.578zM1238.31 179.93h-876.625c-71.171 0-129.077 56.557-129.077 126.074v162.84c0 67.478 54.567 122.739 122.855 125.923 4.504-7.624 9.572-14.939 15.294-21.816 34.225-41.117 87.434-64.711 145.998-64.711h566.496c58.56 0 111.77 23.589 145.997 64.716 5.715 6.877 10.784 14.18 15.29 21.811 68.294-3.178 122.861-58.439 122.861-125.923v-162.84c-0.013-69.517-57.92-126.074-129.088-126.074zM441.017 704.298l8.166 38.175c13.027 60.964 77.899 112.468 141.662 112.468h418.3c63.757 0 128.634-51.503 141.664-112.468l8.16-38.17c5.402-25.258 0.717-48.368-13.19-65.085-13.907-16.712-36.115-25.915-62.528-25.915h-566.502c-26.413 0-48.619 9.203-62.529 25.915-13.91 16.717-18.602 39.827-13.204 65.079zM139.83 96.762c-17.487 0-32.269 14.438-32.269 31.514v348.451c0 13.071 8.674 24.579 20.585 29.261-2.015-12.097-3.098-24.494-3.098-37.144v-162.84c0-88.435 51.13-165.395 126.022-204.243-5-3.136-10.877-4.992-17.11-4.992l-94.131-0.006zM1492.435 128.275c0-17.075-14.784-31.514-32.269-31.514h-94.131c-6.227 0-12.083 1.875-17.075 5.018 74.874 38.854 125.984 115.802 125.984 204.224v162.84c0 12.644-1.082 25.046-3.091 37.144 11.91-4.683 20.582-16.186 20.582-29.261v-348.451zM932.723 329.625h-265.318c-29.704 0-53.78-23.519-53.78-52.531 0-29.005 24.081-52.525 53.78-52.525h265.318c29.709 0 53.779 23.52 53.779 52.525 0 29.011-24.070 52.531-53.779 52.531zM459.186 327.807l-88.743 23.636c-28.66 7.645-58.219-8.866-66.036-36.858-7.811-27.987 9.083-56.864 37.737-64.499l88.749-23.642c4.735-1.261 9.498-1.862 14.179-1.862 23.649 0 45.327 15.36 51.852 38.72 7.817 28-9.078 56.87-37.738 64.505zM1229.517 351.45l-88.749-23.636c-28.653-7.635-45.549-36.504-37.734-64.498 6.522-23.366 28.198-38.726 51.853-38.726 4.678 0 9.44 0.602 14.176 1.869l88.749 23.635c28.659 7.635 45.549 36.512 37.741 64.499-7.814 27.991-37.37 44.487-66.035 36.858z" />
<glyph unicode="&#xe930;" glyph-name="harp" d="M198.343 959.97c-32.391-0.297-71.899-11.573-101.071-34.025-23.132-17.808-40.405-41.466-45.588-74.104 0.452 0.271 0.891 0.542 1.345 0.809-1.814-6.060-2.825-12.451-2.825-19.1 0-36.768 29.803-66.571 66.573-66.571 30.756 0 56.644 20.883 64.285 49.223 0.061 0.247 0.144 0.495 0.202 0.74 1.033 4.48 1.653 8.697 1.948 12.573 0.054 0.704 0.036 1.399 0.064 2.083 0.011 0.271 0.065 0.538 0.069 0.809 0.015 0.392-0.004 0.76 0 1.141 0 3.284-0.211 6.533-0.671 9.683-2.941 17.254-14.585 26.158-27.1 29.523-18.348 4.934-41.003-1.371-51.106-39.068l-1.007 0.269c-5.427 41.971 16.463 63.995 41.698 70.676 5.328 1.407 10.873 2.163 16.475 2.083 19.521-0.28 39.69-10.501 52.853-36.852 0.187-0.372 0.355-0.764 0.538-1.14 11.207-32.779 4.54-93.217-7.196-124.001-15.682-40.353-48.149-87.158-102.614-140.945-125.638-124.070-132.072-278.079-54.671-405.015 77.393-126.927 241.348-225.395 461.493-225.395s384.037 98.468 461.431 225.403c77.214 126.628 70.971 280.22-53.797 404.137l-0.872 0.874h-0.070c-54.465 53.787-86.864 100.591-102.547 140.944-11.256 35.404-19.562 92.502-5.714 123.999 0.127 0.276 0.274 0.538 0.406 0.809 0.053 0.107 0.078 0.228 0.131 0.335 13.165 26.351 33.333 36.572 52.859 36.852 5.595 0.079 11.145-0.676 16.474-2.087 25.227-6.675 47.059-28.699 41.624-70.672l-0.942-0.269c-10.101 37.7-32.756 44.005-51.106 39.068-9.49-2.55-18.514-8.285-23.605-18.424-0.029-0.086-0.037-0.183-0.066-0.269-2.097-6.47-3.228-13.348-3.228-20.511 0-36.77 29.802-66.573 66.572-66.573s66.572 29.803 66.572 66.573c0 9.371-1.954 18.269-5.444 26.36-6.582 28.499-22.807 49.733-43.983 66.033-31.113 23.95-74.002 35.21-107.454 33.956-28.787-1.076-53.473-8.84-71.483-22.659-7.344-5.631-13.734-12.27-19.030-20.173-149.455-76.407-298.869-83.383-448.32 16.677-1.382 1.199-2.776 2.378-4.235 3.497-18.011 13.819-42.698 21.583-71.483 22.659-2.087 0.080-4.226 0.090-6.386 0.069l0.004-0.004zM311.917 845.657c13.638-5.698 27.255-10.731 40.885-15.131v-673.649c-66.13 17.768-124.56 47.35-166.495 88.891-36.796 36.45-60.417 83.116-62.201 136.843-1.782 53.731 17.804 113.406 62.338 177.796 88.92 128.575 123.005 222.928 125.473 285.252v-0.002zM712.225 842.629c3.445-62.338 37.859-155.727 125.346-282.224 44.528-64.387 64.115-124.066 62.333-177.793-1.782-53.731-25.407-100.393-62.202-136.843-40.935-40.554-97.636-69.718-161.853-87.618v673.182c12.128 3.456 24.252 7.209 36.377 11.297zM635.634 821.111v-672.508c-17.666-3.506-35.734-6.193-54.067-8.139v670.964c18.026 2.415 36.045 5.659 54.067 9.683zM393.014 819.433c18.183-4.239 36.353-7.406 54.535-9.554v-669.951c-18.485 1.806-36.704 4.411-54.537 7.799v671.702l0.002 0.004zM541.356 807.46v-670.023c-9.769-0.426-19.554-0.672-29.389-0.672-8.090 0-16.151 0.115-24.207 0.406v669.553c17.846-0.675 35.75-0.387 53.596 0.738v-0.002z" />
<glyph unicode="&#xe931;" glyph-name="microphone" horiz-adv-x="819" d="M807.735 260.821c14.926 14.922 14.926 38.433 2.048 55.402l-351.228 439.747c-13.083 114.69-110.601 204.030-228.562 204.030-126.752 0-229.994-103.242-229.994-229.994 0-119.801 92.202-218.543 209.345-228.971l436.27-348.57c23.101-17.17 46.817-4.293 57.45 4.297l14.922 14.922c5.317-11.858 8.385-24.736 8.385-38.433 0-23.511-10.633-49.066-27.804-66.036-36.188-36.184-98.132-36.184-134.316 0l-251.462 251.462c-21.262 21.262-49.065 31.891-78.913 31.891s-57.447-10.629-78.914-31.891c-42.727-42.729-42.727-115.102 0-157.622l172.546-172.548c16.968-16.97 42.728-16.97 59.696 0s16.968 42.729 0 59.695l-172.546 172.548c-10.631 12.878-10.631 29.848 0 40.477 10.631 10.633 29.848 10.633 40.479 0l249.414-251.458c34.144-34.14 80.957-51.11 125.731-51.11 46.817 0 91.591 16.97 127.98 49.066 34.14 34.14 53.359 78.914 53.359 125.731 0 35.979-11.244 70.529-31.891 100.172l28.004 27.193zM83.82 729.802c0 80.549 65.625 146.174 146.174 146.174 74.824 0 136.565-56.425 145.151-129.001l-162.324-162.324c-72.576 8.586-129.001 70.327-129.001 145.152zM666.878 241.807l-379.437 302.567 127.98 127.98 302.567-379.437-51.11-51.11z" />
<glyph unicode="&#xe932;" glyph-name="race-flag" horiz-adv-x="1347" d="M764.626 945.263c-216.511-32.905-411.421-129.224-672.103-32.047 3.406-9.845 6.705-19.719 10.040-29.564h-62.084l-5.002 14.782h-35.477l318.864-938.656h35.477l-142.262 418.832h62.084c3.867-11.528 7.841-22.997 11.708-34.53 260.648-97.118 455.591-0.798 672 32.105-64.356 189.685-128.819 379.396-193.245 569.078zM347.529 841.524c73.436 1.36 143.042 13.984 211.833 29.061 18.481-54.191 36.859-108.411 55.307-162.601-68.754-15.078-138.395-27.701-211.903-29.061-18.413 54.22-36.86 108.411-55.237 162.601zM204.559 400.783l-156.523 460.697h62.084c52.222-153.555 104.337-307.14 156.523-460.697h-62.084zM254.474 541.154c-18.022 52.979-36.080 105.927-53.996 158.906 72.585-22.202 140.168-29.712 204.807-28.5 17.986-52.979 36.009-105.927 53.96-158.906-64.568-1.212-132.187 6.297-204.771 28.5zM732.629 360.61c-68.754-15.107-138.359-27.702-211.867-29.033-18.413 54.218-36.825 108.41-55.273 162.601 73.401 1.36 143.041 13.984 211.903 29.061 18.41-54.25 36.859-108.411 55.237-162.629zM852.825 581.243c-61.343-11.086-121.118-26.282-181.679-39.527-18.022 52.979-36.045 105.927-53.959 158.906 60.524 13.274 120.444 28.441 181.641 39.527 17.952-52.979 35.975-105.927 53.997-158.906zM824.018 852.906c3.406-9.845 6.705-19.72 10.041-29.564 27.917 3.489 56.191 5.765 85.073 6.297 18.448-54.191 36.789-108.411 55.237-162.601-28.844-0.532-57.155-2.808-85.003-6.297 20.965-61.582 41.898-123.193 62.83-184.774 27.847 3.489 56.191 5.765 84.997 6.297 18.486-54.191 36.864-108.411 55.345-162.603-73.437-1.331-143.074-13.98-211.936-29.001-4.295 12.773-8.623 25.422-12.913 38.168-71.594-15.64-142.19-34.002-215.272-45.088 7.696-22.647 15.398-45.202 23.024-67.789 216.441 32.903 411.422 129.223 671.927 32.105-64.356 189.684-128.889 379.395-193.315 569.107-121.328 45.144-228.325 48.485-330.035 35.743zM1235.758 472.241c-72.585 22.202-140.132 29.712-204.768 28.5-18.022 52.979-36.045 105.927-53.965 158.906 64.571 1.212 132.225-6.297 204.735-28.5 17.952-52.979 36.012-105.927 53.997-158.906z" />
<glyph unicode="&#xe933;" glyph-name="radio-forward" horiz-adv-x="1396" d="M790.116-55.65c46.758 0.047 92.278 15.025 129.92 42.766l386.383 283.345c27.853 20.452 50.502 47.174 66.113 78.002 15.602 30.828 23.738 64.898 23.738 99.453s-8.136 68.625-23.738 99.453c-15.611 30.828-38.26 57.55-66.113 78.002l-386.383 283.346c-31.691 23.287-69.041 37.659-108.168 41.619s-78.599-2.634-114.313-19.098c-35.714-16.464-66.365-42.196-88.764-74.52s-35.729-70.059-38.603-109.28l-220.044 161.396c-32.807 23.997-71.617 38.444-112.13 41.739s-81.147-4.69-117.402-23.070c-36.254-18.38-66.712-46.438-87.999-81.064s-32.573-74.471-32.607-115.117v-566.691c0.010-40.676 11.289-80.554 32.585-115.21s51.777-62.731 88.061-81.117c36.283-18.385 76.951-26.363 117.491-23.040s79.368 17.808 112.175 41.854l219.869 161.396c4.125-55.474 29.062-107.338 69.815-145.199s94.31-58.927 149.938-58.964h0.174zM627.963 321.080c-12.39 0.001-24.458-3.954-34.444-11.287l-312.030-228.829c-15.465-11.325-33.765-18.146-52.87-19.707s-38.269 2.198-55.368 10.862c-17.099 8.664-31.465 21.894-41.505 38.223s-15.363 35.119-15.378 54.288v566.691c0.028 19.169 5.361 37.957 15.408 54.283s24.418 29.552 41.519 38.213c17.101 8.662 36.266 12.422 55.372 10.864s37.409-8.375 52.879-19.694l311.912-228.83c8.669-6.367 18.933-10.207 29.653-11.094s21.474 1.218 31.071 6.076c9.596 4.858 17.657 12.282 23.289 21.446s8.613 19.71 8.612 30.466v98.27c0.007 19.178 5.327 37.979 15.37 54.319s24.416 29.575 41.525 38.241c17.109 8.666 36.284 12.422 55.398 10.853s37.419-8.405 52.885-19.746l386.323-283.345c13.144-9.635 23.831-22.231 31.204-36.766 7.363-14.536 11.208-30.604 11.208-46.899s-3.845-32.364-11.208-46.899c-7.373-14.536-18.060-27.131-31.204-36.766l-386.323-283.345c-15.466-11.325-33.765-18.146-52.87-19.707s-38.27 2.198-55.369 10.862c-17.099 8.664-31.465 21.894-41.505 38.223s-15.363 35.119-15.377 54.288v98.269c0 15.431-6.13 30.229-17.041 41.141s-25.71 17.041-41.141 17.041z" />
<glyph unicode="&#xe934;" glyph-name="radio-play" horiz-adv-x="870" d="M772.009 620.021l-407.038 298.666c-31.791 23.28-69.409 37.299-108.682 40.505s-78.666-4.528-113.812-22.344c-35.146-17.816-64.671-45.018-85.301-78.589s-31.56-72.2-31.576-111.604v-597.331c0.007-39.424 10.937-78.070 31.577-111.657s50.182-60.8 85.348-78.612c35.166-17.818 74.581-25.539 113.87-22.313s76.915 17.275 108.704 40.591l407.038 298.665c27.023 19.814 48.993 45.716 64.138 75.602 15.145 29.891 23.040 62.925 23.040 96.431s-7.895 66.541-23.040 96.429c-15.145 29.888-37.115 55.789-64.138 75.603l-0.128-0.042zM721.495 344.822l-407.042-298.665c-19.071-13.937-41.627-22.323-65.17-24.238-23.543-1.91-47.156 2.734-68.224 13.414s-38.771 26.982-51.147 47.099c-12.377 20.122-18.946 43.269-18.978 66.893v597.331c-0.237 23.665 6.207 46.917 18.593 67.084s30.209 36.43 51.423 46.922c18.043 9.178 37.997 13.972 58.24 13.994 27.131-0.103 53.513-8.912 75.264-25.13l407.042-298.667c16.189-11.891 29.358-27.426 38.431-45.349s13.804-37.73 13.804-57.817c0-20.091-4.731-39.9-13.804-57.82-9.073-17.925-22.241-33.459-38.431-45.348v0.297z" />
<glyph unicode="&#xe935;" glyph-name="radio-prev" horiz-adv-x="1396" d="M606.248-55.65c-46.758 0.047-92.278 15.025-129.92 42.766l-386.385 283.345c-27.852 20.452-50.499 47.174-66.108 78.002s-23.743 64.898-23.743 99.453c0 34.555 8.134 68.625 23.743 99.453s38.256 57.55 66.108 78.002l386.385 283.346c31.691 23.287 69.041 37.659 108.168 41.619s78.599-2.634 114.313-19.098c35.714-16.464 66.365-42.196 88.764-74.52s35.729-70.059 38.603-109.28l220.045 161.396c32.805 23.997 71.615 38.444 112.128 41.739s81.147-4.69 117.397-23.070c36.259-18.38 66.718-46.438 88.008-81.064 21.281-34.627 32.573-74.471 32.6-115.117v-566.691c-0.009-40.676-11.283-80.554-32.582-115.21s-51.777-62.731-88.064-81.117c-36.278-18.385-76.949-26.363-117.49-23.040s-79.369 17.808-112.175 41.854l-219.869 161.396c-4.125-55.474-29.062-107.338-69.815-145.199s-94.31-58.927-149.938-58.964h-0.174zM768.4 321.080c12.39 0.001 24.458-3.954 34.444-11.287l312.031-228.829c15.462-11.325 33.764-18.146 52.866-19.707s38.27 2.198 55.37 10.862c17.101 8.664 31.465 21.894 41.5 38.223 10.045 16.329 15.369 35.119 15.379 54.288v566.691c-0.028 19.169-5.362 37.957-15.407 54.283s-24.418 29.552-41.519 38.213c-17.101 8.662-36.268 12.422-55.37 10.864-19.112-1.559-37.413-8.375-52.876-19.694l-311.917-228.83c-8.669-6.367-18.933-10.207-29.653-11.094s-21.474 1.218-31.071 6.076c-9.596 4.858-17.657 12.282-23.289 21.446s-8.613 19.71-8.612 30.466v98.27c-0.007 19.178-5.327 37.979-15.37 54.319s-24.416 29.575-41.525 38.241c-17.109 8.666-36.284 12.422-55.398 10.853s-37.419-8.405-52.885-19.746l-386.327-283.345c-13.143-9.635-23.831-22.231-31.198-36.766s-11.206-30.604-11.206-46.899c0-16.296 3.839-32.364 11.206-46.899s18.056-27.131 31.198-36.766l386.327-283.345c15.466-11.325 33.765-18.146 52.87-19.707s38.27 2.198 55.369 10.862c17.099 8.664 31.465 21.894 41.505 38.223s15.363 35.119 15.377 54.288v98.269c0 15.431 6.13 30.229 17.041 41.141s25.71 17.041 41.141 17.041z" />
<glyph unicode="&#xe936;" glyph-name="rip" horiz-adv-x="1707" d="M1317.096 960h-556.517c-214.817 0-389.566-172.401-389.566-384.302v-494.099h-315.36c-30.723 0-55.653-24.576-55.653-54.9s24.93-54.9 55.653-54.9h1595.362c30.72 0 55.651 24.576 55.651 54.9v548.999c0 211.9-174.749 384.302-389.571 384.302zM1038.841 356.1c0-30.271-24.972-54.901-55.658-54.901h-500.864v219.601h500.871c30.686 0 55.651-24.629 55.651-54.901v-109.799zM1595.358 81.599h-222.604v494.099c0 107.491-45.090 204.686-117.446 274.5h61.795c153.436 0 278.255-123.133 278.255-274.5v-494.099z" />
<glyph unicode="&#xe937;" glyph-name="trumpet" horiz-adv-x="800" d="M603.93 732.029l-65.76-32.436 26.608-52.504c-74.592-51.636-119.69-135.604-119.69-226.609v-201.987c0-31.069-25.622-56.339-57.114-56.339s-57.11 25.274-57.11 56.339v26.669h36.765v72.528h-36.765v48.355h36.765v72.531h-36.765v48.355h36.765v72.531h-36.765v291.74c0 59.99-49.475 108.797-110.289 108.797s-110.288-48.807-110.288-108.797c0-6.553-5.613-12.088-12.253-12.088h-49.017l-49.017-72.533h98.034c47.298 0 85.78 37.96 85.78 84.621 0 19.997 16.492 36.266 36.763 36.266s36.763-16.269 36.763-36.266v-291.74h-36.763v-72.531h36.763v-48.352h-36.763v-72.531h36.763v-48.355h-36.763v-72.531h36.763v-89.405c0-116.454 96.039-211.197 214.084-211.197 118.051 0 214.093 94.742 214.093 211.197v131.885c0 27.114 14.24 49.203 28.685 64.643l20.035-39.523 65.763 32.435-196.070 386.832zM611.994 287.635v-131.885c0-76.458-63.059-138.666-140.566-138.666-56.275 0-104.928 32.794-127.366 80.026 13.731-4.848 28.512-7.494 43.914-7.494 72.035 0 130.637 57.811 130.637 128.874v201.99c0 63.434 29.747 122.282 79.533 160.774 0.003 0 72.314-143.488 81.286-161.542-28.25-23.898-67.437-68.502-67.437-132.077z" />
<glyph unicode="&#xe938;" glyph-name="tsunami" d="M2.295 171.905c3.159 7.873 9.315 14.172 17.116 17.506 7.801 3.338 16.608 3.441 24.484 0.287l112.448-44.995c22.884-9.15 48.412-9.15 71.296 0l64.896 25.985c38.146 15.258 80.701 15.258 118.847 0l64.963-25.985c22.884-9.15 48.411-9.15 71.295 0l64.897 25.985c38.146 15.258 80.699 15.258 118.845 0l64.963-25.985c22.884-9.15 48.411-9.15 71.295 0l112.447 44.995c3.92 1.663 8.131 2.531 12.39 2.548 4.256 0.020 8.475-0.815 12.407-2.445 3.932-1.634 7.5-4.039 10.494-7.066 2.99-3.031 5.349-6.627 6.935-10.58 1.581-3.953 2.363-8.184 2.29-12.44-0.070-4.26-0.987-8.458-2.703-12.358-1.716-3.895-4.19-7.414-7.283-10.342s-6.738-5.21-10.719-6.713l-112.513-44.99c-38.146-15.258-80.703-15.258-118.85 0l-64.897 25.985c-22.884 9.15-48.411 9.15-71.295 0l-64.958-25.985c-38.146-15.258-80.703-15.258-118.85 0l-64.895 25.985c-22.884 9.15-48.412 9.15-71.296 0l-64.96-25.985c-38.146-15.258-80.701-15.258-118.848 0l-112.448 44.99c-7.875 3.162-14.173 9.318-17.509 17.117-3.336 7.803-3.438 16.609-0.283 24.486zM2.295 43.905c3.159 7.873 9.315 14.172 17.116 17.506 7.801 3.338 16.608 3.441 24.484 0.287l112.448-44.995c22.884-9.15 48.412-9.15 71.296 0l64.896 25.985c38.146 15.258 80.701 15.258 118.847 0l64.963-25.985c22.884-9.15 48.411-9.15 71.295 0l64.897 25.985c38.146 15.258 80.699 15.258 118.845 0l64.963-25.985c22.884-9.15 48.411-9.15 71.295 0l112.447 44.995c3.92 1.663 8.131 2.531 12.39 2.548 4.256 0.020 8.475-0.815 12.407-2.445 3.932-1.634 7.5-4.039 10.494-7.066 2.99-3.031 5.349-6.627 6.935-10.58 1.581-3.953 2.363-8.184 2.29-12.44-0.070-4.26-0.987-8.458-2.703-12.358-1.716-3.895-4.19-7.414-7.283-10.342s-6.738-5.21-10.719-6.713l-112.513-44.99c-38.146-15.258-80.703-15.258-118.85 0l-64.897 25.985c-22.884 9.15-48.411 9.15-71.295 0l-64.958-25.985c-38.146-15.258-80.703-15.258-118.85 0l-64.895 25.985c-22.884 9.15-48.412 9.15-71.296 0l-64.96-25.985c-38.146-15.258-80.701-15.258-118.848 0l-112.448 44.99c-7.875 3.162-14.173 9.318-17.509 17.117-3.336 7.803-3.438 16.609-0.283 24.486zM170.359 442.88c-29.184-68.030-63.616-134.271-117.888-179.458-6.544-5.19-14.859-7.619-23.169-6.762s-15.956 4.927-21.304 11.346c-5.348 6.418-7.974 14.672-7.318 22.999 0.656 8.331 4.544 16.073 10.831 21.57 41.728 34.816 71.296 88.576 100.096 155.521 8.96 20.992 17.984 43.52 27.328 66.818 19.328 48.255 39.936 99.775 64.64 147.711 37.248 72.576 86.208 142.656 161.216 194.24 75.328 51.776 173.952 83.136 307.199 83.136 93.635 0 160.707-25.6 203.457-67.712 42.881-42.24 57.151-97.152 52.417-147.328-4.735-49.344-28.226-97.024-65.278-125.76-16.871-13.595-37.102-22.379-58.548-25.421-21.451-3.042-43.327-0.229-63.308 8.14-41.603-41.088-58.049-107.455-45.441-167.297 13.566-64.381 58.88-114.622 136.704-114.622h159.998c8.487 0 16.626-3.371 22.63-9.372 6.001-6.001 9.372-14.139 9.372-22.626 0-8.491-3.371-16.63-9.372-22.63-6.005-6.001-14.143-9.372-22.63-9.372h-159.998c-114.176 0-180.863 77.758-199.295 165.442-14.848 70.398 0.319 151.87 48.509 210.174l-9.216 4.544-49.725-24.832c-4.444-2.22-9.339-3.375-14.303-3.375-4.968 0-9.863 1.155-14.307 3.375l-64 32c-7.32 3.947-12.812 10.588-15.319 18.517-2.511 7.929-1.831 16.522 1.888 23.96s10.187 13.135 18.035 15.887c7.848 2.751 16.458 2.34 24.007-1.147l49.725-24.832 49.664 24.832c4.444 2.219 9.339 3.375 14.307 3.375 4.964 0 9.859-1.155 14.303-3.375l64-32c0.737-0.356 1.466-0.74 2.175-1.152 28.16-16.896 51.839-12.48 70.91 2.304 20.992 16.32 37.507 46.656 40.772 81.28 3.199 33.856-6.402 68.864-33.604 95.68-27.263 26.88-76.157 49.28-158.527 49.28-122.749 0-208.126-28.672-270.847-71.872-63.040-43.264-106.112-103.296-140.672-170.624-23.36-45.44-41.92-91.712-60.48-138.241-9.6-24.064-19.264-48.189-29.632-72.319z" />
<glyph unicode="&#xe939;" glyph-name="rating-star-filled" d="M434.090 884.056c24.523 75.474 131.297 75.474 155.82 0l64.631-198.907c10.965-33.753 42.418-56.605 77.91-56.605h209.142c79.36 0 112.353-101.548 48.153-148.193l-169.202-122.933c-28.713-20.861-40.727-57.836-29.757-91.591l64.627-198.906c24.523-75.473-61.858-138.236-126.063-91.591l-169.198 122.933c-28.713 20.861-67.592 20.861-96.305 0l-169.2-122.933c-64.202-46.645-150.585 16.118-126.062 91.591l64.629 198.906c10.967 33.755-1.047 70.73-29.759 91.591l-169.201 122.933c-64.202 46.645-31.206 148.193 48.152 148.193h209.143c35.49 0 66.943 22.852 77.91 56.605l64.63 198.907z" />
<glyph unicode="&#xe93a;" glyph-name="geo-position" horiz-adv-x="788" d="M393.842 960c-217.164 0-393.842-176.532-393.842-393.52 0-134.226 63.726-278.335 189.413-428.319 92.312-110.159 183.369-181.012 187.202-183.973 5.073-3.923 11.15-5.884 17.231-5.884 6.077 0 12.158 1.961 17.231 5.884 3.829 2.962 94.89 73.815 187.202 183.973 125.687 149.984 189.413 294.089 189.413 428.319-0.008 216.988-176.686 393.52-393.85 393.52zM539.698 566.484c0-80.485-65.304-145.736-145.855-145.736s-145.855 65.247-145.855 145.736c0 80.488 65.303 145.735 145.855 145.735s145.855-65.251 145.855-145.735z" />
<glyph unicode="&#xe93b;" glyph-name="stop" d="M292.571 960h438.857c161.583 0 292.571-130.989 292.571-292.571v-438.857c0-161.583-130.989-292.571-292.571-292.571h-438.857c-161.583 0-292.571 130.989-292.571 292.571v438.857c0 161.583 130.989 292.571 292.571 292.571zM351.086 667.429h351.086c16.158 0 29.257-13.099 29.257-29.257s-13.099-29.257-29.257-29.257h-351.086c-16.158 0-29.257 13.099-29.257 29.257s13.099 29.257 29.257 29.257zM351.086 491.886h351.086c16.158 0 29.257-13.099 29.257-29.257s-13.099-29.257-29.257-29.257h-351.086c-16.158 0-29.257 13.099-29.257 29.257s13.099 29.257 29.257 29.257zM351.086 316.343h351.086c16.158 0 29.257-13.099 29.257-29.257s-13.099-29.257-29.257-29.257h-351.086c-16.158 0-29.257 13.099-29.257 29.257s13.099 29.257 29.257 29.257z" />
<glyph unicode="&#xe93c;" glyph-name="accepte" d="M398.779 287.391l-244.701 238.638c-25.876 25.235-67.727 25.235-93.603 0-26.020-25.375-26.020-66.626 0-92.001l291.7-284.472c25.976-25.334 67.952-25.324 93.924 0.005l517.351 504.535c26.117 25.47 26.117 66.876 0 92.347-25.974 25.33-67.983 25.33-93.957 0l-470.714-459.052z" />
<glyph unicode="&#xe93d;" glyph-name="volume" horiz-adv-x="1365" d="M666.67 905.831v-888.89c0-48.89-34.315-68.312-76.225-43.156l-292 175.201c-41.911 25.156-116.222 45.733-165.111 45.733h-44.444c-48.889 0-88.889 39.999-88.889 88.889v355.557c0 48.889 40 88.889 88.889 88.889h44.444c48.889 0 123.2 20.578 165.111 45.733l292 175.2c41.91 25.156 76.225 5.733 76.225-43.156zM1138.045 932.765c-34.714 34.711-90.977 34.711-125.69 0-34.708-34.711-34.708-90.978 0-125.689 92.314-92.356 143.201-215.111 143.201-345.689s-50.887-253.333-143.201-345.686c-34.708-34.714-34.708-90.982 0-125.69 17.38-17.38 40.090-26.044 62.845-26.044s45.466 8.664 62.845 26.044c125.912 125.912 195.288 293.285 195.288 471.377 0 178.089-69.376 345.466-195.288 471.378zM949.464 744.231c-34.708 34.711-90.977 34.711-125.685 0-34.714-34.711-34.714-90.977 0-125.689 41.956-42 65.109-97.778 65.109-157.156s-23.114-115.156-65.070-157.111c-34.708-34.714-34.708-90.977 0-125.69 17.38-17.374 40.090-26.044 62.845-26.044s45.471 8.67 62.845 26.044c75.56 75.514 117.157 175.957 117.157 282.801s-41.643 207.289-117.202 282.844z" />
<glyph unicode="&#xe93e;" glyph-name="auth-geo-position" d="M768.954 278.506v0.248c-11.835-20.415-24.387-40.249-37.737-59.333 67.956-21.499 110.646-52.666 110.646-87.331 0-64.835-149.181-117.42-333.38-117.42s-333.462 52.585-333.462 117.42c0 36.999 49.328 70.166 126.238 91.664-9.167 12.557-18.042 25.336-26.623 38.335-4.077 6.166-8.075 12.498-12.072 18.831-109.768-34.417-181.721-90.996-181.721-154.996 0-104.917 192.994-189.92 431.158-189.92 238.166 0 431.158 85.003 431.158 189.92 0 62.496-68.516 117.916-174.204 152.581zM653.668 255.925v0.663c70.193 79.802 118.854 177.564 141.026 283.335 19.99 100.833 10.154 200.333-35.258 278.416-13.576 23.24-30.267 44.341-49.567 62.667-50.122 49.713-116.376 77.919-185.557 79-67.716 0.5-135.911-25.667-195.632-75-25.133-20.74-46.752-45.725-63.958-73.917-42.132-69.25-54.924-154.417-41.253-242.75 13.511-87.5 52.845-178.168 115.365-259.916 48.323-62.755 106.332-116.687 171.648-159.582 2.974-2.016 6.468-3.034 10.014-2.916 3.545 0.124 6.97 1.369 9.813 3.579 45.771 29.173 87.31 65.008 123.36 106.421zM511.36 802.59c28.857 0 57.066-8.92 81.060-25.631s42.696-40.464 53.74-68.253c11.043-27.79 13.932-58.369 8.3-87.87-5.627-29.501-19.526-56.6-39.93-77.869s-46.403-35.754-74.706-41.622-57.639-2.856-84.299 8.654c-26.661 11.511-49.448 31.003-65.48 56.014s-24.589 54.414-24.589 84.493c-0.011 19.975 3.756 39.756 11.085 58.213s18.075 35.226 31.626 49.351c13.551 14.124 29.639 25.326 47.346 32.965s36.684 11.565 55.847 11.554z" />
<glyph unicode="&#xe93f;" glyph-name="invasion" d="M434.535 321.769c-21.5-21.493-21.5-56.354 0-77.852 10.75-10.752 24.837-16.128 38.93-16.128 14.086 0 28.18 5.376 38.926 16.128l165.15 165.147c1.274 1.274 2.486 2.613 3.63 4.004 0.25 0.308 0.466 0.646 0.717 0.961 0.865 1.097 1.718 2.202 2.497 3.366 0.199 0.305 0.37 0.628 0.563 0.932 0.774 1.208 1.536 2.43 2.213 3.696 0.119 0.22 0.21 0.451 0.324 0.675 0.711 1.373 1.388 2.764 1.985 4.202 0.063 0.147 0.102 0.297 0.165 0.444 0.609 1.509 1.172 3.043 1.65 4.618 0.051 0.168 0.080 0.345 0.131 0.514 0.449 1.538 0.865 3.098 1.178 4.69 0.091 0.444 0.131 0.899 0.205 1.347 0.233 1.322 0.461 2.643 0.597 3.994 0.182 1.82 0.279 3.652 0.279 5.494 0 1.846-0.097 3.677-0.279 5.494-0.137 1.361-0.37 2.694-0.603 4.026-0.080 0.437-0.114 0.881-0.199 1.314-0.324 1.604-0.734 3.171-1.189 4.72-0.046 0.162-0.074 0.323-0.125 0.485-0.478 1.585-1.047 3.127-1.667 4.65-0.051 0.132-0.091 0.275-0.148 0.407-0.603 1.446-1.28 2.848-1.997 4.228-0.108 0.213-0.199 0.437-0.313 0.646-0.688 1.277-1.445 2.503-2.224 3.718-0.193 0.301-0.353 0.617-0.552 0.914-0.785 1.163-1.633 2.276-2.503 3.373-0.245 0.315-0.461 0.65-0.711 0.957-1.149 1.392-2.355 2.731-3.63 4.004l-165.151 165.152c-21.497 21.5-56.356 21.5-77.856 0s-21.5-56.356 0-77.856l71.177-71.18h-450.645c-30.404 0-55.053-24.649-55.053-55.053s24.649-55.053 55.053-55.053h450.653l-71.177-71.179zM573.679 898.34c-150.279 0-290.095-74.549-374.007-199.414-16.96-25.236-10.251-59.443 14.986-76.399 25.236-16.96 59.443-10.251 76.399 14.986 63.425 94.376 169.079 150.721 282.623 150.721 187.602 0 340.23-152.629 340.23-340.232 0-187.605-152.627-340.232-340.23-340.232-113.206 0-218.692 56.092-282.164 150.044-17.022 25.19-51.243 31.824-76.439 14.797-25.192-17.021-31.821-51.24-14.798-76.436 83.982-124.302 223.57-198.514 373.402-198.514 248.314 0 450.338 202.024 450.338 450.34s-202.024 450.338-450.338 450.338z" />
<glyph unicode="&#xe940;" glyph-name="lifeline" d="M404.009 745.077c69.757 25.331 146.198 25.331 215.955 0l146.87 146.901c-77.528 44.568-165.393 68.023-254.818 68.023-89.426 0-177.29-23.455-254.821-68.023l146.814-146.901zM235.832 601.751c4.042 7.155 8.226 14.149 12.43 20.374 0 0 0.405 0.707 0.85 1.353 3.84 5.761 8.326 11.965 13.621 18.736l1.376 1.779 0.666 0.808c4.85 6.064 9.903 12.128 15.098 17.625l1.133 1.173v0.101l0.646 0.707c5.78 6.064 11.237 11.522 16.694 16.514s11.48 10.106 18.19 15.502l2.85 2.223c6.366 4.932 12.47 9.258 18.635 13.321l1.818 1.131 0.101 0.101 0.829 0.506c6.184 4.043 11.904 7.458 17.381 10.531l-42.766 42.97-13.299 13.3-13.259 13.178-72.153 72.178-2.021-1.455c-1.839-1.273-3.678-2.528-5.477-3.862-2.426-1.778-4.609-3.496-6.791-5.173l-3.073-2.406c-13.743-10.652-27.002-22.031-39.431-33.814-4.75-4.487-9.357-9.015-13.925-13.684-3.214-3.315-6.468-6.67-9.601-10.106-4.042-4.366-8.084-8.833-11.843-13.299-6.064-7.014-11.884-14.148-17.381-21.283l-3.153-4.043c-1.496-2.021-3.032-3.881-4.507-5.882s-2.768-3.9-4.041-5.881l-1.193-1.739 141.598-141.486zM665.64 724.217c4.585-2.547 9.438-5.456 14.956-8.933l3.396-2.183c11.566-7.569 22.647-15.852 33.183-24.8 1.115-0.91 2.185-1.86 3.294-2.871 5.097-4.446 10.109-9.216 14.979-14.027s9.785-10.106 14.148-15.099l2.606-3.032c9.028-10.561 17.368-21.695 24.963-33.329l2.122-3.376c3.436-5.498 6.406-10.308 8.971-14.916l141.659 141.666-0.95 1.355c-1.496 2.163-2.97 4.345-4.506 6.447-1.234 1.657-2.469 3.234-3.721 4.79l-2.668 3.437c-6.872 8.954-14.023 17.705-21.259 25.932-3.277 3.719-6.571 7.398-9.944 10.995-2.549 2.708-4.995 5.397-7.578 8.085-3.533 3.639-7.105 7.228-10.712 10.772-10.109 9.681-20.213 18.879-30.316 27.307l-1.661 1.355-1.007 0.849c-5.882 4.791-11.844 9.46-17.909 13.927-2.224 1.657-4.386 3.234-6.61 4.79l-3.715 2.708-141.722-141.849zM214.934 339.985c-25.358 69.746-25.358 146.196 0 215.945l-146.913 146.982c-44.567-77.564-68.021-165.458-68.021-254.916 0-89.459 23.454-177.353 68.021-254.915l78.135 78.239 68.778 68.665zM788.218 294.241c-1.559-2.725-3.254-5.615-4.949-8.465-0.307-0.484-0.751-1.172-1.132-1.82l-0.119-0.142-0.489-0.831-5.393-8.505c-0.671-1.035-1.274-2.025-2.025-3.254-3.658-5.461-7.538-10.712-11.56-15.952-0.87-1.149-1.838-2.344-2.788-3.533-3.721-4.71-7.396-9.079-11.179-13.34-0.99-1.195-1.496-1.758-2.020-2.304-4.204-4.608-8.71-9.279-13.301-13.83l-2.423-2.281-1.070-1.030c-3.8-3.601-7.72-7.157-11.787-10.633l-3.191-2.77c-4.989-4.164-10.007-8.084-15.155-11.964l-2.344-1.655-1.274-0.916c-4.227-3.049-8.471-5.86-12.794-8.71l-0.973-0.626c-1.229-0.831-2.543-1.616-3.777-2.446-4.204-2.566-8.511-5.131-12.857-7.578l141.682-141.71 1.149 0.808c2.167 1.479 4.329 2.992 6.428 4.551 1.655 1.189 3.237 2.423 4.773 3.675l3.294 2.532c35.994 27.597 68.193 59.824 95.761 95.846l2.321 2.97c1.172 1.434 2.281 2.97 3.476 4.483 1.536 2.145 2.992 4.289 4.489 6.428l0.91 1.314-141.682 141.687zM955.972 702.813l-146.916-147.004c25.361-69.749 25.361-146.199 0-215.949l146.916-146.961c44.572 77.562 68.028 165.456 68.028 254.916s-23.455 177.354-68.028 254.916v0.081zM619.941 150.938c-69.73-25.361-146.162-25.361-215.893 0l-146.933-146.944c77.548-44.55 165.418-67.994 254.85-67.994 89.43 0 177.3 23.444 254.851 67.994l-146.876 146.944zM358.412 171.736c-1.273 0.666-2.566 1.456-3.86 2.202l-1.88 1.075c-2.324 1.411-4.446 2.645-6.528 3.897-2.082 1.257-4.244 2.668-6.326 4.045l-1.535 0.973c-1.496 0.99-3.032 2.020-4.507 3.009-2.163 1.473-4.265 2.953-6.266 4.426l-1.576 1.109c-1.435 1.035-2.829 2.025-4.243 3.157s-3.073 2.361-4.568 3.556l-1.294 1.013-2.020 1.576c-1.274 1.007-2.507 2.020-3.699 2.987-1.193 0.973-2.769 2.367-4.224 3.601l-1.516 1.354-0.828 0.705c-1.536 1.297-3.093 2.691-4.609 4.045s-2.506 2.344-3.8 3.595l-2.021 1.843c-3.294 3.169-6.306 6.241-9.358 9.375l-1.456 1.496c-1.294 1.377-2.607 2.748-3.9 4.164s-2.971 3.317-4.487 5.074l-0.687 0.768-1.051 1.234c-1.152 1.308-2.285 2.606-3.437 4.039s-2.283 2.788-3.415 4.187l-1.455 1.9-1.497 1.877c-0.909 1.195-1.859 2.367-2.748 3.516-0.889 1.155-2.021 2.81-3.052 4.187l-1.536 2.224-1.555 2.020-2.386 3.374c-1.637 2.406-3.072 4.688-4.588 7.037-1.071 1.616-2.345 3.556-3.517 5.473-1.395 2.247-2.83 4.654-4.224 7.037-1.051 1.781-2.021 3.635-3.092 5.376l-56.328-56.252-85.371-85.436 1.294-1.9c1.273-1.82 2.485-3.641 3.779-5.359 2.264-3.129 4.669-6.059 7.034-9.176l2.143-2.765c26.939-34.497 58.183-65.405 92.97-91.967l3.457-2.708 4.223-3.254c2.507-1.82 5.012-3.578 7.538-5.296l0.263-0.182 141.74 141.767z" />
<glyph unicode="&#xe941;" glyph-name="lock-keyhole" d="M888.098 576h-66.372v85.334c0 164.686-138.94 298.666-309.726 298.666-170.788 0-309.728-133.98-309.728-298.666v-85.334h-66.371c-12.229 0-22.124-9.542-22.124-21.334v-533.333c0-47.064 39.687-85.333 88.495-85.333h619.459c48.805 0 88.491 38.269 88.491 85.333v533.333c0 11.792-9.893 21.334-22.124 21.334zM578.242 130.355c0.691-6.019-1.317-12.060-5.509-16.583s-10.198-7.105-16.485-7.105h-88.495c-6.286 0-12.293 2.583-16.485 7.105-4.192 4.517-6.201 10.559-5.509 16.583l13.957 121.020c-22.663 15.895-36.209 41.040-36.209 68.625 0 47.064 39.687 85.334 88.495 85.334s88.494-38.27 88.494-85.334c0-27.585-13.546-52.73-36.209-68.625l13.955-121.020zM688.987 576h-353.974v85.334c0 94.104 79.398 170.666 176.987 170.666s176.987-76.562 176.987-170.666v-85.334z" />
<glyph unicode="&#xe942;" glyph-name="mail" d="M0 633.6v-375.603l268.288 174.387-268.288 201.216zM1024.011 257.997v375.603l-268.288-201.216 268.288-174.387zM512 249.6l-178.286 133.712-333.714-216.912v-76.8h1024v76.8l-333.716 216.912-178.284-133.712zM0 729.6l512-384 512 384v76.8h-1024v-76.8z" />
<glyph unicode="&#xe943;" glyph-name="pause" d="M362.058 78.628c0-78.766-63.862-142.628-142.629-142.628s-142.629 63.862-142.629 142.628v738.743c0 78.767 63.862 142.629 142.629 142.629s142.629-63.862 142.629-142.629v-738.743zM897.341 78.628c0-78.766-63.862-142.628-142.633-142.628-78.766 0-142.628 63.862-142.628 142.628v738.743c0.020 78.767 63.882 142.629 142.628 142.629 78.771 0 142.633-63.862 142.633-142.629v-738.743z" />
<glyph unicode="&#xe944;" glyph-name="pen" d="M419.84 744.952l-204.8-204.8c-22.622-22.622-59.298-22.622-81.92 0l-92.16 92.16c-22.622 22.622-22.622 59.298 0 81.92l204.8 204.8c22.622 22.622 59.298 22.622 81.92 0l92.16-92.16c22.622-22.622 22.622-59.298 0-81.92zM825.626 421.084c9.108-9.108 14.92-20.992 16.517-33.772l29.261-234.061c4.685-37.478-27.182-69.345-64.666-64.66l-234.056 29.256c-12.785 1.597-24.668 7.409-33.777 16.517l-262.426 262.431c-22.622 22.62-22.622 59.296 0 81.917l204.8 204.8c22.622 22.622 59.3 22.622 81.92 0l262.426-262.428z" />
<glyph unicode="&#xe945;" glyph-name="person" d="M493.105 419.544c148.010 0 267.994 120.985 267.994 270.228s-119.985 270.228-267.994 270.228c-148.009 0-267.994-120.985-267.994-270.228s119.985-270.228 267.994-270.228zM611.554 288.085h-236.988c-156.838 0-284.011-128.205-284.011-286.401v-65.69h805.012v65.69c0 158.197-127.175 286.401-284.013 286.401z" />
<glyph unicode="&#xe946;" glyph-name="question" d="M433.121 256.631l-28.684 233.975 7.171 7.221c175.925 5.777 263.888 59.216 263.888 160.316v2.889c0 41.403-14.82 74.622-44.459 99.656-28.683 25.035-68.362 37.552-119.037 37.552-85.094 0-163.018-38.033-233.77-114.099l-107.563 115.543c93.699 106.877 208.911 160.316 345.636 160.316 101.348 0 182.618-26.479 243.807-79.436 62.151-52.957 93.224-124.209 93.224-213.755v-2.888c0-85.695-26.772-152.132-80.316-199.312-52.584-47.18-122.381-77.992-209.388-92.436l-14.342-115.541h-116.168zM391.529-64v199.31h192.179v-199.31h-192.179z" />
<glyph unicode="&#xe947;" glyph-name="paper" d="M812.138 818.758v141.242h-812.138v-865.103c0-87.615 71.282-158.897 158.896-158.897h706.207c87.615 0 158.897 71.282 158.897 158.897v723.861h-211.862zM670.897 183.174h-529.655v105.929h529.655v-105.929zM670.897 395.036h-529.655v105.929h529.655v-105.929zM670.897 712.828v-105.932h-529.655v211.862h529.655v-105.93zM918.067 94.897c0-29.208-23.761-52.968-52.964-52.968-29.208 0-52.968 23.761-52.968 52.968v617.931h105.933v-617.931z" />
<glyph unicode="&#xe948;" glyph-name="vk" d="M911.468 330.342c0 0 82.79-81.766 103.27-119.603 0.399-0.548 0.707-1.152 0.922-1.792 8.346-13.978 10.394-24.934 6.298-33.024-6.912-13.363-30.31-20.070-38.246-20.634h-146.33c-10.189 0-31.386 2.662-57.19 20.48-19.712 13.773-39.322 36.454-58.317 58.624-28.365 32.922-52.89 61.491-77.722 61.491-3.139 0.007-6.252-0.513-9.216-1.536-18.79-5.939-42.65-32.717-42.65-104.038 0-22.323-17.613-35.021-29.952-35.021h-67.021c-22.835 0-141.722 7.987-247.142 119.142-129.178 136.090-245.197 409.088-246.323 411.494-7.219 17.664 7.936 27.29 24.32 27.29h147.763c19.814 0 26.266-11.981 30.771-22.733 5.222-12.339 24.576-61.696 56.32-117.146 51.405-90.214 82.995-126.925 108.237-126.925 4.742-0.014 9.404 1.223 13.517 3.584 32.973 18.125 26.829 135.885 25.293 160.154 0 4.71-0.051 52.582-16.947 75.725-12.083 16.589-32.666 23.040-45.107 25.395 3.328 4.813 10.394 12.186 19.456 16.538 22.579 11.264 63.386 12.902 103.885 12.902h22.477c43.93-0.614 55.297-3.43 71.271-7.475 32.154-7.68 32.768-28.518 29.952-99.482-0.819-20.275-1.69-43.11-1.69-69.99 0-5.734-0.256-12.134-0.256-18.637-0.973-36.403-2.253-77.414 23.45-94.259 3.333-2.077 7.183-3.176 11.11-3.174 8.909 0 35.584 0 107.93 124.16 31.744 54.835 56.32 119.501 58.010 124.365 1.434 2.714 5.734 10.343 10.957 13.415 3.712 1.977 7.875 2.964 12.083 2.867h173.824c18.944 0 31.795-2.867 34.304-10.035 4.198-11.622-0.819-47.104-80.179-154.419-13.363-17.869-25.088-33.331-35.379-46.848-71.936-94.413-71.936-99.174 4.25-170.854z" />
<glyph unicode="&#xe949;" glyph-name="auth-pause" d="M597.333 149.333h170.667v597.333h-170.667zM256 149.333h170.667v597.333h-170.667v-597.333z" />
<glyph unicode="&#xe94a;" glyph-name="auth-play" d="M341.333 740.693v-597.333l469.333 298.667-469.333 298.667z" />
<glyph unicode="&#xe94b;" glyph-name="auth-volume-high" d="M597.333 822.187v-87.893c123.307-36.693 213.333-151.040 213.333-286.293s-90.027-249.173-213.333-285.867v-88.32c170.667 38.827 298.667 191.573 298.667 374.187s-128 335.36-298.667 374.187zM704 448c0 75.52-42.667 140.373-106.667 171.947v-342.613c64 30.293 106.667 95.573 106.667 170.667zM128 576v-256h170.667l213.333-213.333v682.667l-213.333-213.333h-170.667z" />
<glyph unicode="&#xe94c;" glyph-name="auth-volume-mute" d="M128 576h170.667l213.333 213.333v-682.667l-213.333 213.333h-170.667v256zM707.84 448l-110.507 110.507 60.16 60.16 110.507-110.507 110.507 110.507 60.16-60.16-110.507-110.507 110.507-110.507-60.16-60.16-110.507 110.507-110.507-110.507-60.16 60.16 110.507 110.507z" />
<glyph unicode="&#xe94d;" glyph-name="azpotify" horiz-adv-x="2194" d="M2194.286 249.49l-313.476-313.47-313.461 313.47-313.471-313.47-313.47 313.47-313.47-313.47-626.938 626.938 313.47 313.47 313.468-313.47 313.47 313.47 313.47-313.47 313.471 313.47 626.937-626.938z" />
<glyph unicode="&#xe94e;" glyph-name="azpotify-forward" horiz-adv-x="1339" d="M472.615 209.245l-354.462-204.645c-52.513-30.318-118.154 7.578-118.154 68.214v750.376c0 60.636 65.641 98.534 118.154 68.216l354.462-204.648v136.432c0 60.636 65.641 98.534 118.154 68.216l649.846-375.189c52.515-30.318 52.515-106.114 0-136.432l-649.846-375.185c-52.513-30.318-118.154 7.578-118.154 68.214v136.431z" />
<glyph unicode="&#xe94f;" glyph-name="delorenzy" d="M44.083 256.214c-10.228 0-18.752 3.499-25.571 10.497s-10.228 17.943-10.228 32.838c0 13.28 2.602 27.186 7.806 41.721 5.383 14.713 13.279 27.095 23.686 37.145 10.587 10.228 23.148 15.342 37.683 15.342 7.357 0 12.83-1.255 16.419-3.768s5.383-5.831 5.383-9.959v-1.077l13.189 61.908 39.837 5.383-30.954-145.349c-0.718-2.692-1.077-5.562-1.077-8.613 0-3.59 0.807-6.191 2.422-7.806 1.795-1.437 4.666-2.153 8.613-2.153 5.025 0 9.331 2.153 12.92 6.46 3.768 4.307 6.729 10.050 8.882 17.227h11.305c-10.946-32.121-28.98-48.181-54.102-48.181-7.357 0-13.368 1.975-18.034 5.922-4.486 3.947-7.267 9.69-8.344 17.227-4.665-7.177-10.318-13.098-16.957-17.765-6.46-4.667-14.086-6.998-22.879-6.998zM61.578 282.323c4.307 0 8.613 1.975 12.92 5.922 4.486 3.947 7.537 9.421 9.152 16.419v1.346l13.189 61.639c-1.615 6.282-5.293 9.421-11.036 9.421-7.178 0-13.638-4.216-19.38-12.651-5.742-8.253-10.228-18.303-13.458-30.147-3.23-11.665-4.845-21.981-4.845-30.954s1.256-14.713 3.768-17.227c2.692-2.513 5.922-3.768 9.69-3.768zM191.691 256.214c-13.279 0-23.597 3.408-30.954 10.228-7.357 6.998-11.036 17.856-11.036 32.569 0 12.382 2.422 26.018 7.267 40.913s12.741 27.724 23.687 38.491c10.946 10.945 24.853 16.419 41.721 16.419 19.739 0 29.608-8.613 29.608-25.84 0-10.050-2.871-19.289-8.613-27.724s-13.368-15.252-22.879-20.457c-9.511-5.023-19.649-7.897-30.416-8.613-0.359-5.383-0.538-8.973-0.538-10.767 0-8.792 1.525-14.804 4.576-18.034 3.051-3.052 7.985-4.576 14.804-4.576 9.69 0 17.944 2.244 24.763 6.729 6.998 4.485 14.625 11.305 22.879 20.457h9.152c-19.918-33.198-44.592-49.796-74.021-49.796zM192.229 325.12c6.639 0.36 12.92 2.692 18.842 6.998 6.101 4.307 10.946 9.781 14.535 16.419 3.768 6.638 5.652 13.637 5.652 20.995s-2.243 11.036-6.729 11.036c-6.46 0-12.83-5.652-19.111-16.957-6.101-11.305-10.497-24.134-13.189-38.491zM283.15 256.214c-8.613 0-15.612 2.692-20.995 8.075-5.204 5.383-7.806 13.458-7.806 24.225 0 4.485 0.718 10.319 2.153 17.496l28.801 134.852 39.837 5.383-30.954-145.349c-0.717-2.692-1.077-5.562-1.077-8.613 0-3.59 0.807-6.191 2.422-7.806 1.793-1.437 4.667-2.153 8.613-2.153 5.205 0 10.050 2.153 14.535 6.46 4.485 4.485 7.715 10.228 9.69 17.227h11.305c-6.638-19.38-15.164-32.569-25.571-39.567-10.407-6.82-20.726-10.228-30.954-10.228zM367.56 256.752c-13.277 0-23.774 3.408-31.492 10.228-7.715 6.82-11.574 17.586-11.574 32.3 0 12.203 2.513 25.749 7.537 40.644 5.026 14.895 13.101 27.724 24.225 38.491 11.126 10.945 25.123 16.419 41.99 16.419 22.97 0 34.453-14.356 34.453-43.067v-0.269c0.538-0.178 1.527-0.269 2.961-0.269 5.922 0 12.741 1.524 20.457 4.576 7.718 3.23 14.716 7.089 20.995 11.574l2.422-7.267c-5.202-5.562-12.022-10.319-20.457-14.266-8.253-3.768-17.314-6.46-27.186-8.075-1.434-16.328-5.114-30.594-11.036-42.797s-13.546-21.624-22.879-28.262c-9.33-6.638-19.468-9.959-30.416-9.959zM378.327 280.977c4.307 0 8.613 2.422 12.92 7.267 4.307 5.023 8.075 11.753 11.305 20.187 3.23 8.613 5.565 18.125 6.998 28.532-4.845 1.077-7.267 4.845-7.267 11.305 0 7.358 2.782 12.203 8.344 14.535-0.357 5.922-1.255 9.959-2.692 12.112-1.434 2.332-3.947 3.499-7.537 3.499-5.922 0-11.662-4.307-17.227-12.92-5.562-8.613-10.047-18.932-13.458-30.954-3.408-12.022-5.114-22.61-5.114-31.762 0-8.613 0.989-14.444 2.961-17.496 1.975-2.87 5.565-4.307 10.767-4.307zM464.852 392.411h38.76l-3.499-16.688c6.1 5.383 11.574 9.511 16.419 12.382 5.023 2.87 10.407 4.307 16.15 4.307s10.228-1.975 13.458-5.922c3.408-3.947 5.114-8.704 5.114-14.266 0-5.205-1.706-9.781-5.114-13.727s-8.166-5.922-14.266-5.922c-3.947 0-6.638 0.898-8.075 2.692-1.255 1.975-2.244 4.754-2.961 8.344-0.538 2.332-1.077 4.037-1.615 5.114s-1.524 1.615-2.961 1.615c-3.768 0-6.998-0.807-9.69-2.422-2.513-1.437-5.831-4.037-9.959-7.806l-21.533-102.283h-38.76l28.532 134.583zM586.24 256.214c-13.28 0-23.599 3.408-30.954 10.228-7.358 6.998-11.036 17.856-11.036 32.569 0 12.382 2.422 26.018 7.267 40.913s12.739 27.724 23.687 38.491c10.945 10.945 24.851 16.419 41.721 16.419 19.737 0 29.608-8.613 29.608-25.84 0-10.050-2.873-19.289-8.613-27.724-5.743-8.435-13.371-15.252-22.879-20.457-9.511-5.023-19.649-7.897-30.416-8.613-0.36-5.383-0.538-8.973-0.538-10.767 0-8.792 1.524-14.804 4.576-18.034 3.049-3.052 7.984-4.576 14.804-4.576 9.69 0 17.943 2.244 24.763 6.729 6.998 4.485 14.623 11.305 22.879 20.457h9.152c-19.918-33.198-44.594-49.796-74.021-49.796zM586.778 325.12c6.638 0.36 12.92 2.692 18.842 6.998 6.1 4.307 10.945 9.781 14.535 16.419 3.768 6.638 5.652 13.637 5.652 20.995s-2.244 11.036-6.729 11.036c-6.46 0-12.832-5.652-19.111-16.957-6.103-11.305-10.497-24.134-13.189-38.491zM743.643 256.214c-9.509 0-16.419 2.87-20.726 8.613s-6.46 13.011-6.46 21.802c0 3.768 0.451 7.984 1.346 12.651 0.898 4.845 1.796 9.511 2.692 13.997 1.077 4.485 1.796 7.358 2.153 8.613 1.437 6.282 2.782 12.472 4.037 18.572 1.258 6.1 1.884 11.036 1.884 14.804 0 9.152-3.23 13.727-9.69 13.727-4.664 0-8.792-2.332-12.382-6.998-3.587-4.485-6.46-10.407-8.613-17.765l-18.303-86.402h-38.76l28.532 134.583h38.76l-2.961-13.997c8.973 10.050 19.471 15.073 31.492 15.073 9.152 0 16.419-2.513 21.802-7.537s8.075-12.651 8.075-22.879c0-5.205-0.626-11.036-1.884-17.496-1.255-6.282-3.049-13.997-5.383-23.148-1.434-5.562-2.779-11.036-4.037-16.419-1.077-5.205-1.615-9.33-1.615-12.382 0-3.59 0.807-6.369 2.422-8.344s4.397-2.961 8.344-2.961c4.307 0 7.267 0.538 8.882 1.615-1.077-9.152-4.394-16.059-9.959-20.726-5.383-4.667-11.931-6.998-19.649-6.998zM841.889 377.876h-15.073c-5.023 0-8.792-0.269-11.305-0.807-2.332-0.538-3.499-1.706-3.499-3.499 0-0.36 0.451-0.807 1.346-1.346 1.077-0.36 1.615-1.884 1.615-4.576 0-4.667-1.434-8.253-4.307-10.767-2.87-2.332-6.279-3.499-10.228-3.499-3.408 0-6.369 0.986-8.882 2.961-2.332 2.153-3.499 5.114-3.499 8.882s1.258 7.806 3.768 12.112c2.692 4.307 6.372 7.897 11.036 10.767 4.845 2.87 10.319 4.307 16.419 4.307h69.176l-65.946-113.857c1.077 0 3.052-0.178 5.922-0.538 6.103-0.717 10.948-1.077 14.535-1.077 7.718 0 11.934 1.793 12.651 5.383-1.615 0.178-2.87 0.717-3.768 1.615-0.895 1.077-1.346 2.422-1.346 4.037 0 2.87 1.346 5.474 4.037 7.806 2.692 2.513 6.372 3.768 11.036 3.768 3.95 0 6.911-1.167 8.882-3.499 1.975-2.332 2.961-5.474 2.961-9.421 0-4.307-1.346-8.704-4.037-13.189s-6.548-8.253-11.574-11.305c-5.023-2.87-10.767-4.307-17.227-4.307h-71.329l68.637 120.048zM930.401 190.537c-8.432 0-15.881 2.782-22.341 8.344-6.279 5.383-9.421 12.291-9.421 20.726 0 7.897 1.975 14.356 5.922 19.38 3.95 5.023 9.064 8.973 15.342 11.843 6.282 2.87 14.716 5.922 25.302 9.152l2.692 11.843c-9.152-10.407-20.097-15.612-32.838-15.612-8.613 0-15.612 2.692-20.995 8.075-5.202 5.383-7.806 13.458-7.806 24.225 0 4.485 0.72 10.319 2.153 17.496l18.303 86.402h38.76l-19.38-91.516c-0.538-2.153-0.807-4.397-0.807-6.729 0-7.897 2.692-11.843 8.075-11.843 5.026 0 9.333 2.063 12.92 6.191 3.59 4.307 6.46 10.138 8.613 17.496l18.303 86.402h39.029l-32.838-156.116c-3.587-17.227-9.959-29.161-19.111-35.799-8.97-6.638-18.929-9.959-29.877-9.959zM924.21 214.493c3.23 0 6.282 1.706 9.152 5.114 2.873 3.23 5.114 8.523 6.729 15.881l3.23 15.881c-9.509-3.23-16.867-6.998-22.072-11.305-5.202-4.307-7.806-9.868-7.806-16.688 0-2.153 1.077-4.128 3.23-5.922 2.153-1.975 4.667-2.961 7.537-2.961zM418.398 579.657c-4.798 0-8.777 2.996-8.777 6.609v50.232c-0.585 23.88 11.235 46.44 33.233 63.36 21.998 16.832 51.49 26.085 83.201 26.085 64.828 0 117.602-39.744 117.602-88.564v-50.232c0-3.613-3.979-6.609-8.777-6.609s-8.774 2.996-8.774 6.609v50.232c0 41.506-44.819 75.346-100.051 75.346-27.034 0-52.075-7.843-70.679-22.119-18.725-14.364-28.669-33.487-28.201-53.932v-50.319c0-3.701-3.862-6.697-8.777-6.697zM452.775 579.657h-1.586c-25.6 0-46.446-20.846-46.446-46.446v-22.917c0-25.6 20.846-46.446 46.446-46.446h1.586c25.6 0 46.446 20.846 46.446 46.446v22.917c0 25.6-20.846 46.446-46.446 46.446zM602.089 579.657h-1.586c-25.6 0-46.446-20.846-46.446-46.446v-22.917c0-25.6 20.846-46.446 46.446-46.446h1.586c25.6 0 46.446 20.846 46.446 46.446v22.917c0 25.6-20.846 46.446-46.446 46.446z" />
<glyph unicode="&#xe950;" glyph-name="azpotify-like-filled" d="M996.808 637.833l0.077-0.867 0.138-0.859c0.691-4.324 5.524-39.173-8.361-97.933v-0.008c-19.978-84.669-66.166-161.954-133.975-223.44-0.026-0.020-0.051-0.046-0.077-0.067l-345.531-308.255-339.704 308.275c-67.845 61.476-114.062 138.804-134.046 223.488l-0.001 0.005c-13.887 58.797-9.044 93.628-8.351 97.888l0.145 0.893 0.082 0.902c13.978 154.054 121.709 260.594 251.611 260.594 85.877 0 162.985-45.86 208.251-123.319l21.861-37.407 22.221 37.195c45.578 76.305 126.295 123.512 214.026 123.512 129.92 0 237.635-106.539 251.633-260.597z" />
<glyph unicode="&#xe951;" glyph-name="azpotify-play" horiz-adv-x="819" d="M768 536.681c68.267-39.414 68.267-137.949 0-177.363l-614.4-354.724c-68.267-39.414-153.6 9.854-153.6 88.681v709.448c0 78.828 85.333 128.095 153.6 88.681l614.4-354.724z" />
<glyph unicode="&#xe952;" glyph-name="azpotify-prev" horiz-adv-x="1339" d="M807.385 686.755l354.462 204.649c52.515 30.318 118.154-7.579 118.154-68.216v-750.381c0-60.637-65.638-98.532-118.154-68.214l-354.462 204.65v-136.435c0-60.637-65.641-98.532-118.154-68.214l-649.846 375.19c-52.513 30.318-52.513 106.114 0 136.432l649.846 375.189c52.513 30.318 118.154-7.579 118.154-68.216v-136.432z" />
<glyph unicode="&#xe953;" glyph-name="azpotify-magnifier" d="M1019.88 11.966l-288.846 288.846c53.536 68.832 85.762 155.019 85.762 248.767 0 224.058-182.296 406.349-406.351 406.349-224.058 0-406.349-182.292-406.349-406.349 0-224.059 182.292-406.351 406.349-406.351 93.749 0 179.935 32.227 248.768 85.758l288.846-288.846 71.821 71.826zM410.445 244.819c-168.055 0-304.762 136.704-304.762 304.76s136.706 304.762 304.762 304.762c168.057 0 304.761-136.706 304.761-304.762s-136.704-304.76-304.761-304.76z" />
</font>
</defs>
</svg>
