<svg width="36" height="36" viewBox="0 0 36 36" fill="none" xmlns="http://www.w3.org/2000/svg">
<path d="M27.287 34.627C26.883 34.627 26.481 34.503 26.135 34.256L18 28.422L9.865 34.256C9.172 34.752 8.242 34.752 7.553 34.248C6.864 33.749 6.574 32.863 6.832 32.054L9.866 22.262L1.804 16.581C1.119 16.076 0.833998 15.188 1.096 14.378C1.36 13.57 2.112 13.021 2.962 13.015L12.947 13L16.126 3.45099C16.394 2.64199 17.149 2.09799 18 2.09799C18.851 2.09799 19.606 2.64299 19.875 3.45099L23 13L33.036 13.015C33.889 13.021 34.642 13.571 34.903 14.378C35.166 15.188 34.881 16.076 34.195 16.581L26.133 22.262L29.167 32.054C29.427 32.863 29.134 33.749 28.447 34.248C28.1 34.502 27.694 34.627 27.287 34.627V34.627Z" fill="#FFAC33"/>
<g clip-path="url(#clip0)">
<path d="M30 26.0455C30 26.5637 29.5636 27 29.0454 27C28.7727 27 28.5272 26.8909 28.3363 26.7L25.2818 23.3727C25.1727 23.2636 25.1727 23.1 25.2818 22.9909L25.9909 22.2818C26.1 22.1727 26.2636 22.1727 26.3727 22.2818L29.7 25.3637C29.8909 25.5273 30 25.8 30 26.0455Z" fill="#B06328"/>
<path d="M25.3621 22.9022L25.9021 22.3622L25.0922 21.5523L24.5522 22.0923L25.3621 22.9022Z" fill="#B0C4D8"/>
<path d="M25.5 22.5L25.6364 22.6364L25.9091 22.3637L25.0909 21.5455L24.5455 22.0909L24.9546 22.5C25.1182 22.3364 25.3364 22.3364 25.5 22.5Z" fill="#99B4CD"/>
<path d="M22.0909 15C19.8273 15 18 16.8273 18 19.0909C18 21.3545 19.8273 23.1818 22.0909 23.1818C24.3545 23.1818 26.1818 21.3545 26.1818 19.0909C26.1818 16.8273 24.3545 15 22.0909 15ZM22.0909 22.3636C20.2909 22.3636 18.8182 20.8909 18.8182 19.0909C18.8182 17.2909 20.2909 15.8182 22.0909 15.8182C23.8909 15.8182 25.3636 17.2909 25.3636 19.0909C25.3636 20.8909 23.8909 22.3636 22.0909 22.3636Z" fill="#C4D7E5"/>
<path d="M22.0909 22.3636C23.8984 22.3636 25.3636 20.8984 25.3636 19.0909C25.3636 17.2834 23.8984 15.8182 22.0909 15.8182C20.2834 15.8182 18.8182 17.2834 18.8182 19.0909C18.8182 20.8984 20.2834 22.3636 22.0909 22.3636Z" fill="#70B7E5"/>
<path d="M20.4818 19.4727C20.6181 18.4364 21.4363 17.6182 22.4727 17.4818H22.5C22.9636 17.4273 22.9909 16.7727 22.5545 16.6909C22.2818 16.6364 22.009 16.6364 21.7363 16.6637C20.6727 16.8273 19.8272 17.6728 19.6909 18.7091C19.6363 18.9818 19.6636 19.2818 19.7181 19.5273C19.8 19.9909 20.4545 19.9364 20.509 19.4728C20.4818 19.5 20.4818 19.4727 20.4818 19.4727Z" fill="#92C5EB"/>
<path d="M19.0909 19.3637C19.0909 17.5637 20.5636 16.091 22.3636 16.091C23.2091 16.091 23.9454 16.4182 24.5454 16.9091C23.9454 16.2273 23.0727 15.8182 22.0909 15.8182C20.2909 15.8182 18.8182 17.291 18.8182 19.091C18.8182 20.0728 19.2545 20.9455 19.9091 21.5455C19.4182 20.9455 19.0909 20.2091 19.0909 19.3637Z" fill="#4C9CD6"/>
<path d="M22.0909 23.1818C24.3546 23.1818 26.1818 21.3545 26.1818 19.0909C26.0455 19.0909 25.9091 19.2 25.9091 19.3636C25.8546 20.2909 25.4455 21.1364 24.8182 21.7636C24.1909 22.4182 23.3182 22.8273 22.3637 22.9091C22.2 22.9091 22.0909 23.0455 22.0909 23.1818Z" fill="#B0C9DB"/>
<path d="M22.0909 15C19.8273 15 18 16.8273 18 19.0909C18.1364 19.0909 18.2727 18.9818 18.2727 18.8182C18.3273 17.9182 18.7091 17.1 19.2818 16.5C19.9364 15.8182 20.8364 15.3545 21.8182 15.2727C21.9818 15.2727 22.0909 15.1364 22.0909 15Z" fill="#E2E7F0"/>
<path d="M29.6727 25.3364L29.5091 25.2C29.6454 25.3636 29.7272 25.5818 29.7272 25.8C29.7272 26.1545 29.2909 26.2909 29.0454 26.0455L26.1818 23.1818C26.0182 23.0182 25.7727 23.0182 25.6091 23.1818L25.3364 23.4545L28.3091 26.6454C28.4727 26.8091 28.6909 26.9454 28.9091 26.9727C29.2091 27 29.5091 26.8909 29.7 26.7C29.8909 26.5091 30 26.2091 29.9727 25.9091C29.9727 25.6909 29.8363 25.5 29.6727 25.3364Z" fill="#A35425"/>
<path d="M26.8636 23.4545C26.8363 23.4545 26.7818 23.4545 26.7545 23.4273L26.0727 22.7454C26.0182 22.6909 26.0182 22.6091 26.0727 22.5545C26.1272 22.5 26.2091 22.5 26.2636 22.5545L26.9454 23.2364C27 23.2909 27 23.3727 26.9454 23.4273C26.9454 23.4545 26.8909 23.4545 26.8636 23.4545Z" fill="#C97629"/>
</g>
<defs>
<clipPath id="clip0">
<rect width="12" height="12" fill="white" transform="translate(18 15)"/>
</clipPath>
</defs>
</svg>
