<svg width="36" height="36" viewBox="0 0 36 36" fill="none" xmlns="http://www.w3.org/2000/svg">
<path d="M22 27H4C1.791 27 0 28.791 0 31V36H26V31C26 28.791 24.209 27 22 27Z" fill="#4289C1"/>
<path d="M21 32H22V36H21V32ZM4 32H5V36H4V32Z" fill="#2A6797"/>
<path d="M10 22V28C10 29.657 11.343 31 13 31C14.657 31 16 29.657 16 28V22H10Z" fill="#FFDC5D"/>
<path d="M29 36H22L23 19H29V36Z" fill="#4289C1"/>
<path d="M31.541 15.443C31.397 14.75 30.719 14.304 30.024 14.446L27.35 15H25C23.896 15 23 15.896 23 17V19H28C29.079 19 29.953 18.143 29.992 17.073L30.347 17H31C31 16.926 30.972 16.856 30.955 16.784C31.399 16.508 31.653 15.985 31.541 15.443V15.443Z" fill="#F9CA55"/>
<path d="M36 16C36 15.448 35.553 15 35 15L29 16H24C23.447 16 23 16.448 23 17V19H29L35 17C35 17 36 16.553 36 16ZM4 5.93799V17C4 21.971 8.029 26 13 26C17.971 26 22 21.971 22 17V6.24999L4 5.93799Z" fill="#FFDC5D"/>
<path d="M17 24H9C9 24 10 22 13 22C16 22 17 24 17 24Z" fill="#C1694F"/>
<path d="M9 16C8.448 16 8 15.552 8 15V14C8 13.448 8.448 13 9 13C9.552 13 10 13.448 10 14V15C10 15.552 9.552 16 9 16ZM17 16C16.448 16 16 15.552 16 15V14C16 13.448 16.448 13 17 13C17.552 13 18 13.448 18 14V15C18 15.552 17.552 16 17 16Z" fill="#662113"/>
<path d="M14 19.5H12C11.724 19.5 11.5 19.276 11.5 19C11.5 18.724 11.724 18.5 12 18.5H14C14.276 18.5 14.5 18.724 14.5 19C14.5 19.276 14.276 19.5 14 19.5Z" fill="#C1694F"/>
<path d="M5.847 13.715C5.847 15.295 5.046 16.576 4.059 16.576C3.072 16.576 2.271 15.295 2.271 13.715C2.271 12.135 3.072 10.854 4.059 10.854C5.046 10.854 5.847 12.135 5.847 13.715ZM23.729 13.715C23.729 15.295 22.929 16.576 21.941 16.576C20.953 16.576 20.153 15.295 20.153 13.715C20.153 12.135 20.953 10.854 21.941 10.854C22.929 10.854 23.729 12.135 23.729 13.715Z" fill="#FFDC5D"/>
<path d="M13 0.822998C5.98102 0.822998 2.86102 5.507 2.86102 9.411C2.86102 13.314 4.20402 14.397 4.42102 13.314C5.20102 9.411 7.54102 8.213 7.54102 8.213C12.221 12.117 11.441 8.994 11.441 8.994C16.12 13.678 13.781 8.994 13.781 8.994C15.341 10.556 20.02 10.556 20.02 10.556C20.02 10.556 20.8 11.754 21.579 13.315C22.359 14.877 23.139 13.315 23.139 9.412C23.139 5.507 19.239 0.822998 13 0.822998V0.822998Z" fill="#FFAC33"/>
<path d="M29.6182 12.6318H24.3359V10.3379H29.6182V12.6318Z" fill="#E46A80"/>
</svg>
