<svg width="36" height="36" viewBox="0 0 36 36" fill="none" xmlns="http://www.w3.org/2000/svg">
<path d="M32.415 9.586L23.415 0.586C23.054 0.225 22.553 0 22 0C20.896 0 20.001 0.896 20 2C20 2.552 20.224 3.053 20.586 3.415L16.727 7.274L25.727 16.274L29.586 12.415C29.948 12.776 30.448 13 31 13C32.104 13 33.001 12.104 33 11C33 10.448 32.776 9.948 32.415 9.586Z" fill="#E1E8ED"/>
<path d="M22 0H7C4.791 0 3 1.791 3 4V32C3 34.209 4.791 36 7 36H29C31.209 36 33 34.209 33 32V11H24C23 11 22 10 22 9V0Z" fill="#CCD6DD"/>
<path d="M22 0H20V9C20 11.209 21.791 13 24 13H33V11H24C23 11 22 10 22 9V0ZM17 8C17 8.552 16.552 9 16 9H8C7.448 9 7 8.552 7 8C7 7.448 7.448 7 8 7H16C16.552 7 17 7.448 17 8ZM17 12C17 12.552 16.552 13 16 13H8C7.448 13 7 12.552 7 12C7 11.448 7.448 11 8 11H16C16.552 11 17 11.448 17 12ZM29 24C29 24.553 28.553 25 28 25H8C7.448 25 7 24.553 7 24C7 23.447 7.448 23 8 23H28C28.553 23 29 23.447 29 24ZM29 28C29 28.553 28.553 29 28 29H8C7.448 29 7 28.553 7 28C7 27.447 7.448 27 8 27H28C28.553 27 29 27.447 29 28Z" fill="#99AAB5"/>
<path d="M8.26855 19V15.4453H9.54541C10.0028 15.4453 10.3503 15.5291 10.5879 15.6968C10.8271 15.8644 10.9468 16.1077 10.9468 16.4268C10.9468 16.6107 10.9045 16.7677 10.8198 16.8979C10.7352 17.0282 10.6107 17.1242 10.4463 17.186C10.6318 17.2349 10.7743 17.326 10.8735 17.4595C10.9728 17.5929 11.0225 17.7557 11.0225 17.9478C11.0225 18.2961 10.9118 18.5581 10.6904 18.7339C10.4707 18.908 10.1444 18.9967 9.71143 19H8.26855ZM9.12549 17.4888V18.3408H9.68701C9.84163 18.3408 9.96045 18.3058 10.0435 18.2358C10.1265 18.1642 10.168 18.0641 10.168 17.9355C10.168 17.6393 10.0207 17.4904 9.72607 17.4888H9.12549ZM9.12549 16.9272H9.57227C9.75944 16.9256 9.8929 16.8914 9.97266 16.8247C10.0524 16.758 10.0923 16.6595 10.0923 16.5293C10.0923 16.3796 10.0492 16.2721 9.96289 16.207C9.87663 16.1403 9.73747 16.1069 9.54541 16.1069H9.12549V16.9272ZM12.3408 17.0835H12.7632C13.0073 17.0835 13.2222 17.1234 13.4077 17.2031C13.5933 17.2829 13.7349 17.396 13.8325 17.5425C13.9302 17.689 13.979 17.859 13.979 18.0527C13.979 18.3376 13.8683 18.5671 13.647 18.7412C13.4272 18.9137 13.127 19 12.7461 19H11.5132V16.3584H12.3408V17.0835ZM15.1973 19H14.3696V16.3584H15.1973V19ZM12.3408 17.7158V18.3701H12.7583C12.8836 18.3701 12.9813 18.3416 13.0513 18.2847C13.1229 18.2261 13.1587 18.1471 13.1587 18.0479C13.1587 17.9502 13.127 17.8704 13.0635 17.8086C13 17.7467 12.8983 17.7158 12.7583 17.7158H12.3408ZM17.5703 16.9932H16.5303V19H15.7051V16.3584H17.5703V16.9932ZM17.6631 17.6548C17.6631 17.3911 17.7144 17.1567 17.8169 16.9517C17.9194 16.745 18.0667 16.5863 18.2588 16.4756C18.4508 16.3649 18.6763 16.3096 18.9351 16.3096C19.3306 16.3096 19.6423 16.4325 19.8701 16.6782C20.098 16.9224 20.2119 17.2552 20.2119 17.6768V17.7061C20.2119 18.1178 20.0972 18.445 19.8677 18.6875C19.6398 18.9284 19.3306 19.0488 18.9399 19.0488C18.564 19.0488 18.262 18.9365 18.0342 18.7119C17.8063 18.4857 17.6834 18.1797 17.6655 17.7939L17.6631 17.6548ZM18.4858 17.7061C18.4858 17.9502 18.5241 18.1292 18.6006 18.2432C18.6771 18.3571 18.7902 18.4141 18.9399 18.4141C19.2329 18.4141 19.3826 18.1886 19.3892 17.7378V17.6548C19.3892 17.1812 19.2378 16.9443 18.9351 16.9443C18.66 16.9443 18.5111 17.1486 18.4883 17.5571L18.4858 17.7061ZM20.6294 19V16.3584H21.7622C22.1252 16.3584 22.4027 16.4219 22.5947 16.5488C22.7884 16.6758 22.8853 16.8589 22.8853 17.0981C22.8853 17.2202 22.8429 17.3301 22.7583 17.4277C22.6737 17.5238 22.55 17.5978 22.3872 17.6499C22.5972 17.6857 22.7591 17.7557 22.873 17.8599C22.987 17.9624 23.0439 18.091 23.0439 18.2456C23.0439 18.4946 22.9495 18.6826 22.7607 18.8096C22.5736 18.9349 22.3034 18.9984 21.9502 19H20.6294ZM21.4546 17.9233V18.3701H21.9355C22.0381 18.3701 22.1113 18.3522 22.1553 18.3164C22.1992 18.2806 22.2212 18.2261 22.2212 18.1528C22.2212 18.0063 22.1366 17.9299 21.9673 17.9233H21.4546ZM21.4546 17.4155H21.7939C21.8932 17.4155 21.9624 17.3993 22.0015 17.3667C22.0422 17.3325 22.0625 17.2829 22.0625 17.2178C22.0625 17.1331 22.0381 17.0737 21.9893 17.0396C21.9404 17.0054 21.8647 16.9883 21.7622 16.9883H21.4546V17.4155ZM23.2783 17.6548C23.2783 17.3911 23.3296 17.1567 23.4321 16.9517C23.5347 16.745 23.682 16.5863 23.874 16.4756C24.0661 16.3649 24.2915 16.3096 24.5503 16.3096C24.9458 16.3096 25.2575 16.4325 25.4854 16.6782C25.7132 16.9224 25.8271 17.2552 25.8271 17.6768V17.7061C25.8271 18.1178 25.7124 18.445 25.4829 18.6875C25.255 18.9284 24.9458 19.0488 24.5552 19.0488C24.1792 19.0488 23.8773 18.9365 23.6494 18.7119C23.4215 18.4857 23.2987 18.1797 23.2808 17.7939L23.2783 17.6548ZM24.1011 17.7061C24.1011 17.9502 24.1393 18.1292 24.2158 18.2432C24.2923 18.3571 24.4054 18.4141 24.5552 18.4141C24.8481 18.4141 24.9979 18.1886 25.0044 17.7378V17.6548C25.0044 17.1812 24.853 16.9443 24.5503 16.9443C24.2752 16.9443 24.1263 17.1486 24.1035 17.5571L24.1011 17.7061ZM28.6421 17.6987C28.6421 18.1089 28.5493 18.4368 28.3638 18.6826C28.1799 18.9268 27.9308 19.0488 27.6167 19.0488C27.3742 19.0488 27.1748 18.9601 27.0186 18.7827V20.0156H26.1958V16.3584H26.9648L26.9893 16.6025C27.1471 16.4072 27.3547 16.3096 27.6118 16.3096C27.9373 16.3096 28.1904 16.43 28.3711 16.6709C28.5518 16.9102 28.6421 17.2397 28.6421 17.6597V17.6987ZM27.8193 17.6475C27.8193 17.1787 27.6826 16.9443 27.4092 16.9443C27.2139 16.9443 27.0837 17.0143 27.0186 17.1543V18.1943C27.0902 18.3408 27.222 18.4141 27.4141 18.4141C27.6761 18.4141 27.8112 18.1878 27.8193 17.7354V17.6475Z" fill="#99AAB5"/>
</svg>
